<?xml version="1.0" encoding="utf-8"?>
<!-- Generator: Adobe Illustrator 23.1.1, SVG Export Plug-In . SVG Version: 6.00 Build 0)  -->
<svg version="1.1" id="Layer_1" xmlns="http://www.w3.org/2000/svg" xmlns:xlink="http://www.w3.org/1999/xlink" x="0px" y="0px"
	 viewBox="0 0 518.7 496.6" style="enable-background:new 0 0 518.7 496.6;" xml:space="preserve">
<style type="text/css">
	.st300{opacity:0.5;fill:url(#SVGID_1_);}
	.st301{opacity:0.5;fill:url(#SVGID_2_);}
	.st302{fill:#221F1F;}
	.st303{opacity:0.28;}
	.st304{fill:url(#SVGID_3_);}
	.st305{fill:url(#SVGID_4_);}
	.st306{fill:url(#SVGID_5_);}
	.st307{fill:#D7D9D9;}
	.st308{opacity:0.48;fill:#221F1F;}
	.st309{fill:url(#SVGID_6_);}
	.st330{fill:url(#SVGID_7_);}
	.st331{fill:url(#SVGID_8_);}
	.st332{fill:url(#SVGID_9_);}
	.st333{fill:url(#SVGID_10_);}
	.st334{fill:url(#SVGID_11_);}
	.st335{fill:url(#SVGID_12_);}
	.st336{fill:url(#SVGID_13_);}
	.st337{fill:url(#SVGID_14_);}
	.st338{fill:url(#SVGID_15_);}
	.st339{fill:url(#SVGID_16_);}
	.st340{fill:url(#SVGID_17_);}
	.st341{fill:url(#SVGID_18_);}
	.st342{fill:url(#SVGID_19_);}
	.st343{fill:url(#SVGID_20_);}
	.st344{fill:url(#SVGID_21_);}
	.st345{fill:url(#SVGID_22_);}
</style>
<g>
	<linearGradient id="SVGID_1_" gradientUnits="userSpaceOnUse" x1="261.4152" y1="9.9427" x2="261.4152" y2="41.6578">
		<stop  offset="0" style="stop-color:#000000"/>
		<stop  offset="1" style="stop-color:#000000;stop-opacity:0"/>
	</linearGradient>
	<rect x="13.8" y="8.6" class="st300" width="495.2" height="43.6"/>
	
		<linearGradient id="SVGID_2_" gradientUnits="userSpaceOnUse" x1="-2484.6855" y1="639.8686" x2="-2484.6855" y2="673.8053" gradientTransform="matrix(0 -1 1 0 -630.7042 -2236.3674)">
		<stop  offset="0" style="stop-color:#000000"/>
		<stop  offset="1" style="stop-color:#000000;stop-opacity:0"/>
	</linearGradient>
	<polygon class="st301" points="54.4,9.7 54.4,487 7.8,487 7.8,9.7 	"/>
	<g>
		<path class="st302" d="M518.7,0v496.6h-25V487H509V9.7H29.6c-2.4,0-4.6,0.4-6.7,1.2c-0.9,0.3-1.9,0.8-2.7,1.2
			c-2.1,1.1-4,2.7-5.6,4.5c-3.1,3.5-4.9,8.1-4.9,13v11.8h18.5c2.1,0,3.8,1.7,3.8,3.8v12.1c0,2.1-1.7,3.8-3.8,3.8H9.7v79.6h17.7
			c2.1,0,3.8,1.7,3.8,3.8v12.1c0,2.1-1.7,3.8-3.8,3.8H9.7v154.1h17.7c2.1,0,3.8,1.7,3.8,3.8v12.1c0,2.1-1.7,3.8-3.8,3.8H9.7v75.9
			h17.7c2.1,0,3.8,1.7,3.8,3.8v12.1c0,2.1-1.7,3.8-3.8,3.8H9.7v37c0,0.2,0,0.3,0,0.5c0.3,10.7,9.1,19.4,19.9,19.4h12v9.7h-12
			c-0.5,0-1,0-1.5,0c-0.4,0-0.9,0-1.3-0.1c-0.1,0-0.2,0-0.4,0c-0.6-0.1-1.3-0.1-1.9-0.3c-0.5-0.1-1.1-0.2-1.6-0.3
			c-0.4-0.1-0.9-0.2-1.3-0.3c-0.6-0.2-1.2-0.3-1.8-0.6c-0.2-0.1-0.5-0.2-0.7-0.3c-0.2-0.1-0.5-0.2-0.7-0.3c-0.2-0.1-0.4-0.2-0.6-0.3
			c-0.3-0.1-0.6-0.3-1-0.4c0,0,0,0-0.1,0c-0.1,0-0.1-0.1-0.2-0.1c-0.3-0.1-0.5-0.2-0.8-0.4c-0.1-0.1-0.3-0.1-0.4-0.2
			c-0.1-0.1-0.2-0.1-0.3-0.2c-0.5-0.3-1.1-0.6-1.6-1c-0.2-0.1-0.3-0.2-0.5-0.3c0,0-0.1,0-0.1-0.1c-0.1-0.1-0.2-0.2-0.4-0.3
			c0,0-0.1,0-0.1-0.1c-0.2-0.1-0.4-0.3-0.6-0.4c-0.2-0.2-0.4-0.3-0.7-0.5c-0.2-0.1-0.3-0.3-0.5-0.4c-0.2-0.2-0.4-0.3-0.6-0.5
			c-0.1-0.1-0.3-0.3-0.4-0.4c0,0,0,0,0,0c0,0-0.1-0.1-0.1-0.1c-0.3-0.3-0.6-0.6-1-0.9c0,0,0,0,0,0c-0.2-0.2-0.3-0.3-0.5-0.5
			c0,0,0,0-0.1-0.1c-0.1-0.1-0.3-0.3-0.4-0.5c0,0,0,0,0,0c-0.1-0.1-0.3-0.3-0.4-0.5c-0.1-0.1-0.2-0.2-0.3-0.3
			c-0.1-0.1-0.1-0.2-0.2-0.2c-0.5-0.6-0.9-1.2-1.3-1.8c-0.2-0.2-0.3-0.4-0.4-0.7c0,0,0-0.1-0.1-0.1c-0.2-0.3-0.4-0.6-0.5-0.9
			c-0.2-0.3-0.4-0.6-0.6-1c-0.2-0.3-0.4-0.7-0.5-1c-0.2-0.3-0.3-0.7-0.5-1c-0.2-0.4-0.4-0.8-0.5-1.2c-0.1-0.2-0.1-0.3-0.2-0.5
			c0-0.1,0-0.1-0.1-0.2c-0.1-0.1-0.1-0.3-0.2-0.4c-0.1-0.3-0.2-0.5-0.3-0.8c0,0,0,0,0,0c-0.1-0.2-0.1-0.3-0.2-0.5
			c-0.2-0.8-0.4-1.6-0.6-2.4c0-0.2-0.1-0.4-0.1-0.6c-0.1-0.4-0.2-0.9-0.2-1.3c0-0.2-0.1-0.4-0.1-0.6c0-0.3-0.1-0.6-0.1-0.9
			c0,0,0-0.1,0-0.1c0-0.4-0.1-0.7-0.1-1.1v-0.1c0,0,0,0,0,0c0-0.5,0-1,0-1.5V29.6C0,13.2,13.2,0,29.6,0H518.7z"/>
		<g class="st303">
			<g>
				<linearGradient id="SVGID_3_" gradientUnits="userSpaceOnUse" x1="0" y1="478.83" x2="29.9724" y2="478.83">
					<stop  offset="0" style="stop-color:#B5B7B7"/>
					<stop  offset="1" style="stop-color:#000000"/>
				</linearGradient>
				<path class="st304" d="M30,493.6v3h-0.4c-0.5,0-1,0-1.5,0c-0.4,0-0.9,0-1.3-0.1c-0.1,0-0.2,0-0.4,0c-0.6-0.1-1.3-0.1-1.9-0.3
					c-0.5-0.1-1.1-0.2-1.6-0.3c-0.4-0.1-0.9-0.2-1.3-0.3c-0.6-0.2-1.2-0.3-1.8-0.6c-0.2-0.1-0.5-0.2-0.7-0.3
					c-0.2-0.1-0.5-0.2-0.7-0.3c-0.2-0.1-0.4-0.2-0.6-0.3c-0.3-0.1-0.6-0.3-1-0.4c-0.1,0-0.2-0.1-0.3-0.1c-0.3-0.1-0.5-0.2-0.8-0.4
					c-0.1-0.1-0.3-0.1-0.4-0.2c-0.1-0.1-0.2-0.1-0.3-0.2c-0.5-0.3-1.1-0.6-1.6-1c-0.2-0.1-0.3-0.2-0.5-0.3c0,0-0.1,0-0.1-0.1
					c-0.1-0.1-0.2-0.2-0.4-0.3c0,0-0.1,0-0.1-0.1c-0.2-0.1-0.4-0.3-0.6-0.4c-0.2-0.2-0.4-0.3-0.7-0.5c-0.2-0.1-0.3-0.3-0.5-0.4
					c-0.2-0.2-0.4-0.3-0.6-0.5c-0.1-0.1-0.3-0.3-0.4-0.4c0,0,0,0,0,0c0,0-0.1-0.1-0.1-0.1c-0.3-0.3-0.6-0.6-1-0.9c0,0,0,0,0,0
					c-0.2-0.2-0.3-0.3-0.5-0.5c0,0,0,0-0.1-0.1c-0.1-0.1-0.3-0.3-0.4-0.5c0,0,0,0,0,0c-0.1-0.1-0.3-0.3-0.4-0.5
					c-0.1-0.1-0.2-0.2-0.3-0.3c-0.1-0.1-0.1-0.2-0.2-0.2c-0.5-0.6-0.9-1.2-1.3-1.8c-0.2-0.2-0.3-0.4-0.4-0.7c0,0,0-0.1-0.1-0.1
					c-0.2-0.3-0.4-0.6-0.5-0.9c-0.2-0.3-0.4-0.6-0.6-1c-0.2-0.3-0.4-0.7-0.5-1c-0.2-0.3-0.3-0.7-0.5-1c-0.2-0.4-0.4-0.8-0.5-1.2
					c-0.1-0.2-0.2-0.4-0.3-0.6c-0.1-0.1-0.1-0.3-0.2-0.4c-0.1-0.3-0.2-0.5-0.3-0.8c0,0,0,0,0,0c-0.1-0.2-0.1-0.3-0.2-0.5
					c-0.2-0.8-0.4-1.6-0.6-2.4c0-0.2-0.1-0.4-0.1-0.6c-0.1-0.4-0.2-0.9-0.2-1.3c0-0.2-0.1-0.4-0.1-0.6c0-0.3-0.1-0.6-0.1-0.9
					c0,0,0-0.1,0-0.1c0-0.4-0.1-0.8-0.1-1.1c0,0,0,0,0,0c0-0.5,0-1,0-1.5v-6h3v5.7c0,9.1,4.6,17.2,11.5,22.1
					C18.9,491.8,24.2,493.6,30,493.6z"/>
			</g>
			<g>
				<linearGradient id="SVGID_4_" gradientUnits="userSpaceOnUse" x1="0" y1="230.5196" x2="59.7855" y2="230.5196">
					<stop  offset="0" style="stop-color:#B5B7B7"/>
					<stop  offset="2.149087e-02" style="stop-color:#BABCBC"/>
					<stop  offset="0.1455" style="stop-color:#D3D4D4"/>
					<stop  offset="0.2842" style="stop-color:#E7E7E7"/>
					<stop  offset="0.4435" style="stop-color:#F5F5F5"/>
					<stop  offset="0.642" style="stop-color:#FDFDFD"/>
					<stop  offset="1" style="stop-color:#FFFFFF"/>
				</linearGradient>
				<path class="st305" d="M59.8,0v3H30C15.1,3,3,15.1,3,29.9V461H0V29.6C0,13.2,13.2,0,29.6,0H59.8z"/>
			</g>
			<g>
				<linearGradient id="SVGID_5_" gradientUnits="userSpaceOnUse" x1="59.7889" y1="1.4867" x2="518.6716" y2="1.4867">
					<stop  offset="1.364087e-03" style="stop-color:#FFFFFF"/>
					<stop  offset="1" style="stop-color:#221F1F"/>
				</linearGradient>
				<rect x="59.8" class="st306" width="458.9" height="3"/>
			</g>
		</g>
		<path class="st307" d="M29.6,9.7c-2.4,0-4.6,0.4-6.7,1.2c-0.9,0.3-1.9,0.8-2.7,1.2c1.3,0.3,2.3,1.2,2.7,2.4v8.9c0,2.2,1.8,4,4,4
			h468.6c2.1,0,3.9-1.7,3.9-3.9v-7.7c0-0.5,0.1-0.9,0.2-1.3c0.5-1.5,2-2.5,3.6-2.5h5.8V9.7H29.6z M452.8,14.4h12.4
			c0.8-1.4,2.2-2.3,3.9-2.3h16.5v8.8h-16.5c-1.9,0-3.6-1.2-4.2-2.9h-12.1V14.4z M431.5,12.1h13v2h-13c-1.3,0-2.4,1.1-2.4,2.4
			c0,1.3,1.1,2.4,2.4,2.4h13v2h-13c-2.4,0-4.4-2-4.4-4.4C427,14.1,429,12.1,431.5,12.1z M406.5,12.1h13v2h-13
			c-1.3,0-2.4,1.1-2.4,2.4c0,1.3,1.1,2.4,2.4,2.4h13v2h-13c-2.4,0-4.4-2-4.4-4.4C402.1,14.1,404.1,12.1,406.5,12.1z M383.2,12.1h13
			v2h-13c-1.3,0-2.4,1.1-2.4,2.4c0,1.3,1.1,2.4,2.4,2.4h13v2h-13c-2.4,0-4.4-2-4.4-4.4C378.8,14.1,380.7,12.1,383.2,12.1z
			 M359.8,12.1h13v2h-13c-1.3,0-2.4,1.1-2.4,2.4c0,1.3,1.1,2.4,2.4,2.4h13v2h-13c-2.4,0-4.4-2-4.4-4.4
			C355.4,14.1,357.4,12.1,359.8,12.1z M315.8,14.4h12.4c0.8-1.4,2.2-2.3,3.9-2.3h16.5v8.8h-16.5c-1.9,0-3.6-1.2-4.2-2.9h-12.1V14.4z
			 M296,12.1h13v2h-13c-1.3,0-2.4,1.1-2.4,2.4c0,1.3,1.1,2.4,2.4,2.4h13v2h-13c-2.4,0-4.4-2-4.4-4.4C291.6,14.1,293.5,12.1,296,12.1
			z M271.1,12.1h13v2h-13c-1.3,0-2.4,1.1-2.4,2.4c0,1.3,1.1,2.4,2.4,2.4h13v2h-13c-2.4,0-4.4-2-4.4-4.4
			C266.6,14.1,268.6,12.1,271.1,12.1z M247.7,12.1h13v2h-13c-1.3,0-2.4,1.1-2.4,2.4c0,1.3,1.1,2.4,2.4,2.4h13v2h-13
			c-2.4,0-4.4-2-4.4-4.4C243.3,14.1,245.3,12.1,247.7,12.1z M224.3,12.1h13v2h-13c-1.3,0-2.4,1.1-2.4,2.4c0,1.3,1.1,2.4,2.4,2.4h13
			v2h-13c-2.4,0-4.4-2-4.4-4.4C219.9,14.1,221.9,12.1,224.3,12.1z M179.7,14.4h12.4c0.8-1.4,2.2-2.3,3.9-2.3h16.5v8.8h-16.5
			c-1.9,0-3.6-1.2-4.2-2.9h-12.1V14.4z M161,12.1h13v2h-13c-1.3,0-2.4,1.1-2.4,2.4c0,1.3,1.1,2.4,2.4,2.4h13v2h-13
			c-2.4,0-4.4-2-4.4-4.4C156.6,14.1,158.5,12.1,161,12.1z M109.7,12.1h13v2h-13c-1.3,0-2.4,1.1-2.4,2.4c0,1.3,1.1,2.4,2.4,2.4h13v2
			h-13c-2.4,0-4.4-2-4.4-4.4C105.3,14.1,107.3,12.1,109.7,12.1z M87.1,12.1h13v2h-13c-1.3,0-2.4,1.1-2.4,2.4c0,1.3,1.1,2.4,2.4,2.4
			h13v2h-13c-2.4,0-4.4-2-4.4-4.4C82.7,14.1,84.6,12.1,87.1,12.1z M43.6,14.4h12.4c0.8-1.4,2.2-2.3,3.9-2.3h16.5v8.8H59.8
			c-1.9,0-3.6-1.2-4.2-2.9H43.6V14.4z"/>
		<path class="st307" d="M504.4,32.6c-1.2,0-2.1,1-2.1,2.3c0,0,0,0,0,0c0,3.6-2.2,6.6-5.4,7.9c-0.8,0.3-1.4,1.1-1.4,2l0,373.7
			c0,1.7,0.8,3.3,2.1,4.4l11.5,6V32.6L504.4,32.6z M497.1,59.9h2v13c0,1.3,1.1,2.4,2.4,2.4c1.3,0,2.4-1.1,2.4-2.4v-13h2v13
			c0,2.4-2,4.4-4.4,4.4c-2.4,0-4.4-2-4.4-4.4V59.9z M497.1,86.2h2v13c0,1.3,1.1,2.4,2.4,2.4c1.3,0,2.4-1.1,2.4-2.4v-13h2v13
			c0,2.4-2,4.4-4.4,4.4c-2.4,0-4.4-2-4.4-4.4V86.2z M497.1,112.6h2v13c0,1.3,1.1,2.4,2.4,2.4c1.3,0,2.4-1.1,2.4-2.4v-13h2v13
			c0,2.4-2,4.4-4.4,4.4c-2.4,0-4.4-2-4.4-4.4V112.6z M497.1,151.9v-13h2v13c0,1.3,1.1,2.4,2.4,2.4c1.3,0,2.4-1.1,2.4-2.4v-13h2v13
			c0,2.4-2,4.4-4.4,4.4C499.1,156.3,497.1,154.3,497.1,151.9z M507.4,336.2c0,2.4-2,4.4-4.4,4.4c-2.4,0-4.4-2-4.4-4.4v-13h2v13
			c0,1.3,1.1,2.4,2.4,2.4c1.3,0,2.4-1.1,2.4-2.4v-13h2V336.2z M507.4,309.9c0,2.4-2,4.4-4.4,4.4c-2.4,0-4.4-2-4.4-4.4v-13h2v13
			c0,1.3,1.1,2.4,2.4,2.4c1.3,0,2.4-1.1,2.4-2.4v-13h2V309.9z M507.4,283.5c0,2.4-2,4.4-4.4,4.4c-2.4,0-4.4-2-4.4-4.4v-13h2v13
			c0,1.3,1.1,2.4,2.4,2.4c1.3,0,2.4-1.1,2.4-2.4v-13h2V283.5z M507.4,257.2c0,2.4-2,4.4-4.4,4.4c-2.4,0-4.4-2-4.4-4.4v-13h2v13
			c0,1.3,1.1,2.4,2.4,2.4c1.3,0,2.4-1.1,2.4-2.4v-13h2V257.2z M507.4,230.9c0,2.4-2,4.4-4.4,4.4c-2.4,0-4.4-2-4.4-4.4v-13h2v13
			c0,1.3,1.1,2.4,2.4,2.4c1.3,0,2.4-1.1,2.4-2.4v-13h2V230.9z M507.4,204.6c0,2.4-2,4.4-4.4,4.4c-2.4,0-4.4-2-4.4-4.4v-13h2v13
			c0,1.3,1.1,2.4,2.4,2.4c1.3,0,2.4-1.1,2.4-2.4v-13h2V204.6z M507.4,178.2c0,2.4-2,4.4-4.4,4.4c-2.4,0-4.4-2-4.4-4.4v-13h2v13
			c0,1.3,1.1,2.4,2.4,2.4c1.3,0,2.4-1.1,2.4-2.4v-13h2V178.2z"/>
		<path class="st307" d="M27.3,70.6c0-1-0.8-1.7-1.7-1.7h-3.7c-1,0-1.8-0.8-1.8-1.8L9.7,67.4v67l10.5,0.9c0-1,0.8-1.8,1.8-1.8h3.7
			c1,0,1.8-0.8,1.8-1.8L27.3,70.6z M21.2,121.4c0,2.4-2,4.4-4.4,4.4c-2.4,0-4.4-2-4.4-4.4v-13h2v13c0,1.3,1.1,2.4,2.4,2.4
			c1.3,0,2.4-1.1,2.4-2.4v-13h2V121.4z M21.2,95c0,2.4-2,4.4-4.4,4.4c-2.4,0-4.4-2-4.4-4.4V82h2v13c0,1.3,1.1,2.4,2.4,2.4
			c1.3,0,2.4-1.1,2.4-2.4V82h2V95z"/>
		<path class="st307" d="M27.3,343.9c0-1-0.8-1.7-1.7-1.7h-3.7c-1,0-1.8-0.8-1.8-1.8l0.1-6H9.7v70.1l10.5,0.3c0-1,0.8-1.8,1.8-1.8h3.7
			c1,0,1.8-0.8,1.8-1.8L27.3,343.9z M22.6,393.3c0,2.4-2,4.4-4.4,4.4c-2.4,0-4.4-2-4.4-4.4v-13h2v13c0,1.3,1.1,2.4,2.4,2.4
			c1.3,0,2.4-1.1,2.4-2.4v-13h2V393.3z M22.6,367c0,2.4-2,4.4-4.4,4.4c-2.4,0-4.4-2-4.4-4.4v-13h2v13c0,1.3,1.1,2.4,2.4,2.4
			c1.3,0,2.4-1.1,2.4-2.4v-13h2V367z"/>
		<path class="st307" d="M25.6,455.2h-3.7c-1,0-1.7,0.8-1.7,1.7v0.1H9.7v-20.7l10.4-0.3l0,0c0,1,0.8,1.8,1.7,1.8h3.7
			c1,0,1.7,0.8,1.7,1.7l0.1,13.9C27.3,454.4,26.6,455.2,25.6,455.2z"/>
		<path class="st307" d="M27.3,178.2c0-0.8-0.4-1.5-1-1.9l-5.2-3.8c-0.6-0.5-1-1.2-1-2l0-3.7l0-6.3H9.7v154.1h10.5v-5.5
			c0-1,0.8-1.7,1.8-1.7h3.7c1,0,1.8-0.8,1.8-1.8L27.3,178.2z M22.6,298.7c0,2.4-2,4.4-4.4,4.4c-2.4,0-4.4-2-4.4-4.4v-13h2v13
			c0,1.3,1.1,2.4,2.4,2.4c1.3,0,2.4-1.1,2.4-2.4v-13h2V298.7z M22.6,272.4c0,2.4-2,4.4-4.4,4.4c-2.4,0-4.4-2-4.4-4.4v-13h2v13
			c0,1.3,1.1,2.4,2.4,2.4c1.3,0,2.4-1.1,2.4-2.4v-13h2V272.4z M22.6,246c0,2.4-2,4.4-4.4,4.4c-2.4,0-4.4-2-4.4-4.4v-13h2v13
			c0,1.3,1.1,2.4,2.4,2.4c1.3,0,2.4-1.1,2.4-2.4v-13h2V246z M22.6,219.7c0,2.4-2,4.4-4.4,4.4c-2.4,0-4.4-2-4.4-4.4v-13h2v13
			c0,1.3,1.1,2.4,2.4,2.4c1.3,0,2.4-1.1,2.4-2.4v-13h2V219.7z M22.6,193.4c0,2.4-2,4.4-4.4,4.4c-2.4,0-4.4-2-4.4-4.4v-13h2v13
			c0,1.3,1.1,2.4,2.4,2.4c1.3,0,2.4-1.1,2.4-2.4v-13h2V193.4z"/>
		<path class="st307" d="M20.2,20.8V35H9.7v-5.4c0-5,1.8-9.5,4.9-13h1.4C18.3,16.5,20.2,18.4,20.2,20.8z"/>
		<path class="st307" d="M498.1,463.4c-0.3,0-0.5,0.1-0.7,0.3l-2.2,2.5c-0.1,0.1-0.1,0.1-0.2,0.2c-0.1,0.1-0.3,0.1-0.4,0.1h-2.2
			c-0.2,0-0.3,0-0.4-0.1c-0.3-0.1-0.5-0.4-0.5-0.8v-1.3c0-0.5-0.4-0.9-0.9-0.9H35.4c-0.6,0-1,0.5-1,1v2.5c0,0.6-0.5,1.1-1.1,1.1
			h-2.7c-0.8,0-1.5-0.3-2.1-0.8l-0.9-0.8l-2.2-1.9c-0.8-0.7-1.8-1.1-2.9-1.1H9.7v3.6c0,0.2,0,0.3,0,0.5c0.3,10.7,9.1,19.4,19.9,19.4
			h12v1.8h452.1V487H509v-23.5H498.1z M73.6,482.6H57.1c-1.9,0-3.6-1.2-4.2-2.9H40.9v-3.6h12.4c0.8-1.4,2.2-2.3,3.9-2.3h16.5V482.6z
			 M89.9,482.6c-3.6,0-6.5-2.9-6.5-6.5c0-3.6,2.9-6.5,6.5-6.5c3.6,0,6.5,2.9,6.5,6.5C96.5,479.7,93.5,482.6,89.9,482.6z
			 M138.8,475.8h-13c-1.3,0-2.4,1.1-2.4,2.4c0,1.3,1.1,2.4,2.4,2.4h13v2h-13c-2.4,0-4.4-2-4.4-4.4c0-2.4,2-4.4,4.4-4.4h13V475.8z
			 M147.9,482.6c-3.6,0-6.6-2.9-6.6-6.5c0-3.6,2.9-6.5,6.6-6.5c3.6,0,6.5,2.9,6.5,6.5C154.5,479.7,151.5,482.6,147.9,482.6z
			 M209.7,482.6h-16.5c-1.9,0-3.6-1.2-4.2-2.9H177v-3.6h12.4c0.8-1.4,2.2-2.3,3.9-2.3h16.5V482.6z M234.7,475.8h-13
			c-1.3,0-2.4,1.1-2.4,2.4c0,1.3,1.1,2.4,2.4,2.4h13v2h-13c-2.4,0-4.4-2-4.4-4.4c0-2.4,2-4.4,4.4-4.4h13V475.8z M258,475.8h-13
			c-1.3,0-2.4,1.1-2.4,2.4c0,1.3,1.1,2.4,2.4,2.4h13v2h-13c-2.4,0-4.4-2-4.4-4.4c0-2.4,2-4.4,4.4-4.4h13V475.8z M281.4,475.8h-13
			c-1.3,0-2.4,1.1-2.4,2.4c0,1.3,1.1,2.4,2.4,2.4h13v2h-13c-2.4,0-4.4-2-4.4-4.4c0-2.4,2-4.4,4.4-4.4h13V475.8z M306.3,475.8h-13
			c-1.3,0-2.4,1.1-2.4,2.4c0,1.3,1.1,2.4,2.4,2.4h13v2h-13c-2.4,0-4.4-2-4.4-4.4c0-2.4,2-4.4,4.4-4.4h13V475.8z M345.9,482.6h-16.5
			c-1.9,0-3.6-1.2-4.2-2.9h-12.1v-3.6h12.4c0.8-1.4,2.2-2.3,3.9-2.3h16.5V482.6z M370.1,475.8h-13c-1.3,0-2.4,1.1-2.4,2.4
			c0,1.3,1.1,2.4,2.4,2.4h13v2h-13c-2.4,0-4.4-2-4.4-4.4c0-2.4,2-4.4,4.4-4.4h13V475.8z M393.5,475.8h-13c-1.3,0-2.4,1.1-2.4,2.4
			c0,1.3,1.1,2.4,2.4,2.4h13v2h-13c-2.4,0-4.4-2-4.4-4.4c0-2.4,2-4.4,4.4-4.4h13V475.8z M416.8,475.8h-13c-1.3,0-2.4,1.1-2.4,2.4
			c0,1.3,1.1,2.4,2.4,2.4h13v2h-13c-2.4,0-4.4-2-4.4-4.4c0-2.4,2-4.4,4.4-4.4h13V475.8z M441.8,475.8h-13c-1.3,0-2.4,1.1-2.4,2.4
			c0,1.3,1.1,2.4,2.4,2.4h13v2h-13c-2.4,0-4.4-2-4.4-4.4c0-2.4,2-4.4,4.4-4.4h13V475.8z M482.9,482.6h-16.5c-1.9,0-3.6-1.2-4.2-2.9
			h-12.1v-3.6h12.4c0.8-1.4,2.2-2.3,3.9-2.3h16.5V482.6z"/>
		<polygon class="st308" points="509.1,463.4 509.1,488.8 493.7,488.8 493.7,487 509,487 509,463.4 		"/>
		<linearGradient id="SVGID_6_" gradientUnits="userSpaceOnUse" x1="261.0895" y1="27.4419" x2="261.0895" y2="21.6274">
			<stop  offset="4.071594e-03" style="stop-color:#221F1F"/>
			<stop  offset="1" style="stop-color:#D8DADB"/>
		</linearGradient>
		<path class="st309" d="M499.3,21.3v2.2c0,2.1-1.7,3.9-3.9,3.9H26.9c-2.2,0-4-1.8-4-4v-2H499.3z"/>
		<linearGradient id="SVGID_7_" gradientUnits="userSpaceOnUse" x1="263.1103" y1="466.493" x2="263.1103" y2="463.5809">
			<stop  offset="0" style="stop-color:#D8DADB"/>
			<stop  offset="1" style="stop-color:#FFFFFF"/>
		</linearGradient>
		<path class="st330" d="M491.9,466.5H34.4v-2c0-0.6,0.5-1,1-1h455.1c0.5,0,0.9,0.4,0.9,0.9v1.3C491.4,466,491.6,466.3,491.9,466.5z"
			/>
		<linearGradient id="SVGID_8_" gradientUnits="userSpaceOnUse" x1="501.9789" y1="466.493" x2="501.9789" y2="463.5809">
			<stop  offset="0" style="stop-color:#D8DADB"/>
			<stop  offset="1" style="stop-color:#FFFFFF"/>
		</linearGradient>
		<path class="st331" d="M509,463.4v3h-14.1c0.1,0,0.2-0.1,0.2-0.2l2.2-2.5c0.2-0.2,0.4-0.3,0.7-0.3H509z"/>
		<linearGradient id="SVGID_9_" gradientUnits="userSpaceOnUse" x1="18.6124" y1="466.493" x2="18.6124" y2="463.5809">
			<stop  offset="0" style="stop-color:#D8DADB"/>
			<stop  offset="1" style="stop-color:#FFFFFF"/>
		</linearGradient>
		<path class="st332" d="M25.4,464.5l2.2,1.9H9.7v-3h12.9C23.6,463.4,24.6,463.8,25.4,464.5z"/>
		<linearGradient id="SVGID_10_" gradientUnits="userSpaceOnUse" x1="14.8945" y1="140.7339" x2="14.8945" y2="134.4115">
			<stop  offset="4.071594e-03" style="stop-color:#221F1F"/>
			<stop  offset="1" style="stop-color:#D8DADB"/>
		</linearGradient>
		<rect x="9.7" y="134.4" class="st333" width="10.5" height="6.3"/>
		<linearGradient id="SVGID_11_" gradientUnits="userSpaceOnUse" x1="14.9343" y1="41.3202" x2="14.9343" y2="34.9978">
			<stop  offset="4.071594e-03" style="stop-color:#221F1F"/>
			<stop  offset="1" style="stop-color:#D8DADB"/>
		</linearGradient>
		<rect x="9.7" y="35" class="st334" width="10.5" height="6.3"/>
		
			<linearGradient id="SVGID_12_" gradientUnits="userSpaceOnUse" x1="-4807.9868" y1="-2799.6458" x2="-4807.9868" y2="-2805.968" gradientTransform="matrix(-1 0 0 -1 -4793.0928 -2738.5464)">
			<stop  offset="3.740906e-03" style="stop-color:#FFFFFF"/>
			<stop  offset="1" style="stop-color:#D8DADB"/>
		</linearGradient>
		<polygon class="st335" points="20.1,61.1 9.7,61.1 9.7,67.4 20.1,67.1 		"/>
		<linearGradient id="SVGID_13_" gradientUnits="userSpaceOnUse" x1="14.8945" y1="410.287" x2="14.8945" y2="404.5515">
			<stop  offset="4.071594e-03" style="stop-color:#221F1F"/>
			<stop  offset="1" style="stop-color:#D8DADB"/>
		</linearGradient>
		<polygon class="st336" points="9.7,410.3 20.1,410.3 20.1,404.8 9.7,404.6 		"/>
		
			<linearGradient id="SVGID_14_" gradientUnits="userSpaceOnUse" x1="-4807.9868" y1="-3072.9468" x2="-4807.9868" y2="-3079.2693" gradientTransform="matrix(-1 0 0 -1 -4793.0928 -2738.5464)">
			<stop  offset="3.740906e-03" style="stop-color:#FFFFFF"/>
			<stop  offset="1" style="stop-color:#D8DADB"/>
		</linearGradient>
		<polygon class="st337" points="20.1,334.4 9.7,334.4 9.7,340.7 20.1,340.4 		"/>
		<linearGradient id="SVGID_15_" gradientUnits="userSpaceOnUse" x1="14.8945" y1="314.6089" x2="14.8945" y2="308.2865">
			<stop  offset="4.071594e-03" style="stop-color:#221F1F"/>
			<stop  offset="1" style="stop-color:#D8DADB"/>
		</linearGradient>
		<rect x="9.7" y="308.3" class="st338" width="10.5" height="6.3"/>
		
			<linearGradient id="SVGID_16_" gradientUnits="userSpaceOnUse" x1="-4807.9868" y1="-2899.0693" x2="-4807.9868" y2="-2905.3918" gradientTransform="matrix(-1 0 0 -1 -4793.0928 -2738.5464)">
			<stop  offset="3.740906e-03" style="stop-color:#FFFFFF"/>
			<stop  offset="1" style="stop-color:#D8DADB"/>
		</linearGradient>
		<polygon class="st339" points="20.1,160.5 9.7,160.5 9.7,166.8 20.1,166.8 		"/>
		<linearGradient id="SVGID_17_" gradientUnits="userSpaceOnUse" x1="14.9146" y1="463.4331" x2="14.9146" y2="457.1107">
			<stop  offset="4.071594e-03" style="stop-color:#221F1F"/>
			<stop  offset="1" style="stop-color:#D8DADB"/>
		</linearGradient>
		<polygon class="st340" points="9.7,463.4 20.2,463.4 20.1,457.1 9.7,457.1 		"/>
		
			<linearGradient id="SVGID_18_" gradientUnits="userSpaceOnUse" x1="-4807.9868" y1="-3168.6211" x2="-4807.9868" y2="-3174.9434" gradientTransform="matrix(-1 0 0 -1 -4793.0928 -2738.5464)">
			<stop  offset="3.740906e-03" style="stop-color:#FFFFFF"/>
			<stop  offset="1" style="stop-color:#D8DADB"/>
		</linearGradient>
		<polygon class="st341" points="20.1,430.1 9.7,430.1 9.7,436.4 20.1,436.4 		"/>
		<g>
			
				<radialGradient id="SVGID_19_" cx="21.6709" cy="475.8426" r="10.3138" fx="16.8718" fy="475.7466" gradientTransform="matrix(0.2525 0.9676 -1.1565 0.3018 566.511 311.2589)" gradientUnits="userSpaceOnUse">
				<stop  offset="0" style="stop-color:#FFFFFF"/>
				<stop  offset="0.9129" style="stop-color:#DCDDDE"/>
				<stop  offset="0.9976" style="stop-color:#D8DADB"/>
			</radialGradient>
			<path class="st342" d="M25.1,472.3c0.8,0.9,0.9,2.4,0.4,3.7c-0.5,1.3-1.7,2.3-3.1,2.7c-1.4,0.4-2.9,0.1-4-0.8
				c-1.1-0.8-1.7-2.2-1.5-3.4c1.6,1.8,3.4,2.2,4.9,1.8C23.3,475.9,24.7,474.7,25.1,472.3z"/>
			<linearGradient id="SVGID_20_" gradientUnits="userSpaceOnUse" x1="28.4617" y1="485.3685" x2="18.3689" y2="469.1776">
				<stop  offset="9.559482e-02" style="stop-color:#B5B7B7"/>
				<stop  offset="1" style="stop-color:#000000"/>
			</linearGradient>
			<path class="st343" d="M25.1,472.3c-0.6-2.3-2.9-3.6-5.2-3c-2.3,0.6-3.6,2.9-3,5.2c0.6,2.3,2.9,3.6,5.2,3
				C24.4,476.9,25.7,474.6,25.1,472.3z M20.3,470.8c1.5-0.4,3,0.5,3.4,1.9c0.4,1.5-0.5,3-1.9,3.4c-1.5,0.4-3-0.5-3.4-1.9
				C18,472.7,18.8,471.2,20.3,470.8z"/>
		</g>
		<g>
			
				<radialGradient id="SVGID_21_" cx="112.4709" cy="983.0923" r="10.3138" fx="107.6717" fy="982.9963" gradientTransform="matrix(0.4648 0.8854 -1.0583 0.5555 1490.8958 -170.04)" gradientUnits="userSpaceOnUse">
				<stop  offset="0" style="stop-color:#FFFFFF"/>
				<stop  offset="0.9129" style="stop-color:#DCDDDE"/>
				<stop  offset="0.9976" style="stop-color:#D8DADB"/>
			</radialGradient>
			<path class="st344" d="M505.3,471.4c1,0.7,1.5,2.2,1.2,3.5c-0.2,1.4-1.1,2.6-2.4,3.3c-1.3,0.7-2.8,0.7-4.1,0.2
				c-1.2-0.6-2.2-1.7-2.2-3c1.9,1.4,3.8,1.4,5.2,0.7C504.4,475.3,505.4,473.8,505.3,471.4z"/>
			
				<linearGradient id="SVGID_22_" gradientUnits="userSpaceOnUse" x1="119.2619" y1="992.6185" x2="109.1655" y2="976.4219" gradientTransform="matrix(0.9741 -0.2261 0.2261 0.9741 170.9047 -456.5354)">
				<stop  offset="9.559482e-02" style="stop-color:#B5B7B7"/>
				<stop  offset="1" style="stop-color:#000000"/>
			</linearGradient>
			<path class="st345" d="M505.3,471.4c-1.1-2.1-3.7-2.8-5.7-1.7c-2.1,1.1-2.8,3.7-1.7,5.7c1.1,2.1,3.7,2.8,5.7,1.7
				C505.6,476.1,506.4,473.5,505.3,471.4z M500.3,471c1.3-0.7,3-0.2,3.7,1.1c0.7,1.3,0.2,3-1.1,3.7c-1.3,0.7-3,0.2-3.7-1.1
				C498.4,473.4,498.9,471.7,500.3,471z"/>
		</g>
	</g>
</g>
</svg>
