<?xml version="1.0" encoding="utf-8"?>
<!-- Generator: Adobe Illustrator 23.1.1, SVG Export Plug-In . SVG Version: 6.00 Build 0)  -->
<svg version="1.1" id="Layer_1" xmlns="http://www.w3.org/2000/svg" xmlns:xlink="http://www.w3.org/1999/xlink" x="0px" y="0px"
	 viewBox="0 0 518.7 488.8" style="enable-background:new 0 0 518.7 488.8;" xml:space="preserve">
<style type="text/css">
	.st0{fill:#9B9B9B;}
</style>
<path class="st0" d="M518.7,0v488.8H9.5c0,0,0,0,0,0c0,0-0.1-0.1-0.1-0.1c-0.3-0.3-0.6-0.6-1-0.9c0,0,0,0,0,0
	c-0.2-0.2-0.3-0.3-0.5-0.5c0,0,0,0-0.1-0.1c-0.1-0.1-0.3-0.3-0.4-0.5c0,0,0,0,0,0c-0.1-0.1-0.3-0.3-0.4-0.5
	c-0.1-0.1-0.2-0.2-0.3-0.3c-0.1-0.1-0.1-0.2-0.2-0.2c-0.5-0.6-0.9-1.2-1.3-1.8c-0.2-0.2-0.3-0.4-0.4-0.7c0,0,0-0.1-0.1-0.1
	c-0.2-0.3-0.4-0.6-0.5-0.9c-0.2-0.3-0.4-0.6-0.6-1c-0.2-0.3-0.4-0.7-0.5-1c-0.2-0.3-0.3-0.7-0.5-1c-0.2-0.4-0.4-0.8-0.5-1.2
	c-0.1-0.2-0.1-0.3-0.2-0.5c0-0.1,0-0.1-0.1-0.2c-0.1-0.1-0.1-0.3-0.2-0.4c-0.1-0.3-0.2-0.5-0.3-0.8c0,0,0,0,0,0
	c-0.1-0.2-0.1-0.3-0.2-0.5c-0.2-0.8-0.4-1.6-0.6-2.4c0-0.2-0.1-0.4-0.1-0.6c-0.1-0.4-0.2-0.9-0.2-1.3c0-0.2-0.1-0.4-0.1-0.6
	c0-0.3-0.1-0.6-0.1-0.9c0,0,0-0.1,0-0.1c0-0.4-0.1-0.7-0.1-1.1v-0.1c0,0,0,0,0,0c0-0.5,0-1,0-1.5V29.6C0,13.2,13.2,0,29.6,0H518.7z"
	/>
</svg>
