<?xml version="1.0" encoding="utf-8"?>
<!-- Generator: Adobe Illustrator 23.1.1, SVG Export Plug-In . SVG Version: 6.00 Build 0)  -->
<svg version="1.1" id="Layer_1" xmlns="http://www.w3.org/2000/svg" xmlns:xlink="http://www.w3.org/1999/xlink" x="0px" y="0px"
	 viewBox="0 0 156.1 156.2" style="enable-background:new 0 0 156.1 156.2;" xml:space="preserve">
<style type="text/css">
	.st0{fill:#4B4950;}
	.st1{fill:#BAB632;}
	.st2{fill:#1E1E1D;}
	.st3{opacity:0.51;fill:url(#SVGID_1_);}
	.st4{opacity:0.51;fill:url(#SVGID_2_);}
	.st5{opacity:0.5;fill:url(#SVGID_3_);}
	.st6{fill:url(#SVGID_4_);}
	.st7{opacity:0.3;fill:url(#SVGID_5_);}
	.st8{opacity:0.45;fill:url(#SVGID_6_);}
	.st9{opacity:0.3;fill:#1E1E1D;}
	.st10{opacity:0.51;fill:url(#SVGID_7_);}
	.st11{opacity:0.51;fill:url(#SVGID_8_);}
	.st12{opacity:0.51;fill:url(#SVGID_9_);}
	.st13{opacity:0.51;fill:url(#SVGID_10_);}
	.st14{opacity:0.51;fill:url(#SVGID_11_);}
	.st15{opacity:0.51;fill:url(#SVGID_12_);}
	.st16{opacity:0.1;fill:url(#SVGID_13_);}
	.st17{opacity:0.1;fill:url(#SVGID_14_);}
	.st18{opacity:0.1;fill:url(#SVGID_15_);}
	.st19{opacity:0.1;fill:url(#SVGID_16_);}
	.st20{opacity:0.1;fill:url(#SVGID_17_);}
	.st21{opacity:0.1;fill:url(#SVGID_18_);}
	.st22{fill:#E9F0F0;}
	.st23{opacity:0.1;fill:url(#SVGID_19_);}
	.st24{opacity:0.1;fill:url(#SVGID_20_);}
	.st25{opacity:0.1;fill:url(#SVGID_21_);}
	.st26{opacity:0.1;fill:url(#SVGID_22_);}
</style>
<g>
	<path class="st0" d="M74.9,52.7l-2.8,0.8l-0.1,0l-1.5,0.4c-5.2,1.6-9.7,4.7-13.1,8.8c-0.1,0.1-0.1,0.1-0.2,0.2l-0.8-0.6L51,58.1
		l-7.8-6.2L24,36.7c1.7-2.1,3.5-4.1,5.4-6.1c2.1-2.1,4.3-4.1,6.7-5.9c1.7-1.3,3.4-2.5,5.2-3.7c5.4-3.4,11.2-6,17.2-7.8L74.8,52
		L74.9,52.7z"/>
	<g>
		<path class="st1" d="M75,53.6c-6.8,0.8-12.9,4.3-17,9.3l-0.6-0.3c3.3-4.1,7.9-7.2,13.1-8.8l1.5-0.4l0.1,0l2.8-0.8L75,53.6z"/>
		<path class="st1" d="M74.9,52.7l-2.8,0.8l-0.1,0l-1.5,0.4c-5.2,1.6-9.7,4.7-13.1,8.8L58,63c4.2-5.1,10.2-8.5,17-9.3L74.9,52.7
			L74.9,52.7z"/>
	</g>
	<path class="st0" d="M110.9,18.8l-11,27.3L97.1,53l-1.9,4.7v0l-0.6,0.8L94.1,59c-4.4-3.5-10-5.6-16.1-5.6c-0.9,0-1.7,0-2.6,0.1
		l-0.4-0.9l-0.2,0.1L74.8,52L70,11C83.9,9.3,98.2,11.9,110.9,18.8z"/>
	<g>
		<path class="st1" d="M103.9,73.1l0.8,3.2l-0.9,0.1c-0.8-6.8-4.3-12.9-9.3-17l0.3-0.6c4.2,3.4,7.3,8,8.9,13.3L103.9,73.1z"/>
		<path class="st1" d="M94.8,58.7l-0.3,0.6c5.1,4.1,8.5,10.2,9.3,17l0.9-0.1l-0.8-3.2l-0.3-1.1C102.1,66.7,98.9,62.1,94.8,58.7
			L94.8,58.7z"/>
	</g>
	<path class="st0" d="M144.1,59.7l-38.7,16.4l0,0l-0.7,0.1l-0.8-3.2l-0.3-1.1c-1.5-5.3-4.7-9.9-8.9-13.3c-0.1-0.1-0.2-0.1-0.2-0.2
		l0.6-0.8v0l4.2-5.3l6.2-7.8l15.2-19.3c2.1,1.6,4.1,3.4,6.1,5.4c2.1,2.1,4.1,4.4,5.9,6.7c1.3,1.7,2.5,3.4,3.6,5.2
		C139.8,48,142.4,53.8,144.1,59.7z"/>
	<path class="st0" d="M138.7,112.2l-27.3-11l-11.7-4.7l-1-0.4c0.1-0.1,0.1-0.2,0.2-0.2c0.2-0.3,0.4-0.6,0.6-0.8
		c1.1-1.5,1.2-4.6,1.9-6.2l3.2-12.6l0.7-0.1l0,0l41.1-4.9C148.2,85.2,145.5,99.6,138.7,112.2z"/>
	<g>
		<path class="st1" d="M105.7,97.3l-2.1-7.9c0.7-1.8,1.2-3.8,1.5-5.7l4,15L105.7,97.3z"/>
		<path class="st1" d="M104.8,76.4l-0.9,0.4c0.1,0.8,0.1,1.7,0.1,2.6c0,6.1-2.1,11.6-5.6,16.1l0.5,0.4c0.2-0.3,0.4-0.6,0.6-0.8
			c1.1-1.5,2-3,2.7-4.7l1,3.7l1.2,4.3v0l6.9,2.8l-0.8-2.9l-1.5-5.8L104.8,76.4L104.8,76.4z"/>
	</g>
	<g>
		<polygon class="st1" points="81.4,106.9 81.5,107.2 81.3,106.8 81.3,106.6 		"/>
		<polygon class="st1" points="81.3,106.6 81.3,106.8 81.5,107.2 81.4,106.9 81.3,106.6 		"/>
	</g>
	<g>
		<path class="st1" d="M98.1,95.8l0.7,0.3c-3.4,4.2-8,7.3-13.3,8.9l-0.1,0l-0.9,0.2l-3.2,0.9l-0.1-0.9C88,104.4,94,100.9,98.1,95.8z
			"/>
		<path class="st1" d="M98.1,95.8c-4.1,5.1-10.2,8.5-17,9.3l0.1,0.9l3.2-0.9l0.9-0.2l0.1,0c5.3-1.5,9.9-4.7,13.3-8.9L98.1,95.8
			L98.1,95.8z"/>
	</g>
	<path class="st0" d="M132.2,122.1c-1.7,2.1-3.5,4.1-5.4,6c-2.1,2.1-4.4,4.1-6.7,5.9c-1.7,1.3-3.4,2.5-5.2,3.6
		c-5.4,3.4-11.2,6-17.2,7.8l-16.2-38.3l-0.4-1l0.1,0l0.1,0l3.2-0.9l0.9-0.2l0.1,0c5.3-1.5,9.9-4.7,13.3-8.9l1,0.4l5.3,4.2l7.8,6.2
		L132.2,122.1z"/>
	<path class="st0" d="M86,148c-13.9,1.5-28.3-1.2-40.9-8.1l11.2-27.1l2.9-6.9l2-4.8l0.3-0.8l0.2,0.2l0.5-0.6c4.4,3.5,10,5.6,16,5.7
		c0.9,0,1.7,0,2.6-0.1l0.3,0.8l0.2,0.4v0l0.1,0.3l0,0.2L86,148z"/>
	<path class="st0" d="M61.4,100.1h0.4l-5,6.3l-6.2,7.8l-15.2,19.2c-2.1-1.6-4.1-3.5-6.1-5.4c-2.1-2.1-4.1-4.3-5.8-6.6
		c-1.3-1.7-2.5-3.4-3.7-5.2c-3.4-5.4-6.1-11.2-7.8-17.2l38.6-16.4h0l0.7-0.3l0.1,0.2l0.9,3.3l0.2,0.9l0,0.1
		C54,92.1,57.2,96.7,61.4,100.1z"/>
	<g>
		<path class="st1" d="M61.6,99.5l-0.3,0.7c-4.2-3.4-7.3-8-8.9-13.4l0-0.1l-0.2-0.9l-0.9-3.3l0.9-0.1C53.1,89.3,56.6,95.3,61.6,99.5
			z"/>
		<path class="st1" d="M52.3,82.5l-0.9,0.1l0.9,3.3l0.2,0.9l0,0.1c1.5,5.3,4.7,10,8.9,13.4l0.3-0.7C56.6,95.3,53.1,89.3,52.3,82.5
			L52.3,82.5z"/>
	</g>
	<path class="st0" d="M52.1,79.4c0,0.9,0,1.7,0.1,2.6l-0.9,0.4l-0.7,0.3h0l-41,4.8c-1.6-13.9,1-28.3,7.8-40.9l27.3,11l6.9,2.8
		l4.7,1.9l0.8,0.6l0.5,0.4C54.2,67.8,52.1,73.3,52.1,79.4z"/>
	<path class="st2" d="M2.7,126.9v-6l-1.1,0.3v6.2l1.2-0.3C2.7,127,2.7,126.9,2.7,126.9z"/>
	<g>
		<path class="st2" d="M70.4,53.9l1.5-0.4C71.4,53.6,70.9,53.8,70.4,53.9z"/>
	</g>
	<path class="st0" d="M57.9,153.5H29.3c-10.6-6.9-19.7-16-26.6-26.6V98.3C9.8,125.2,31,146.3,57.9,153.5z"/>
	<path class="st0" d="M153.5,98.3v28.6c-6.9,10.6-16,19.7-26.6,26.6H98.3C125.2,146.3,146.3,125.2,153.5,98.3z"/>
	<path class="st0" d="M153.5,29.2v28.6c-7.2-26.8-28.3-48-55.2-55.2h28.6C137.5,9.5,146.6,18.6,153.5,29.2z"/>
	<path class="st0" d="M57.8,2.7C31,9.8,9.8,31,2.7,57.8V29.2c6.9-10.6,16-19.7,26.6-26.6H57.8z"/>
	<linearGradient id="SVGID_1_" gradientUnits="userSpaceOnUse" x1="98.7941" y1="91.7663" x2="146.9901" y2="91.7663">
		<stop  offset="0" style="stop-color:#000000;stop-opacity:0.27"/>
		<stop  offset="1" style="stop-color:#FFFFFF"/>
	</linearGradient>
	<path class="st3" d="M138.7,112.2l-27.3-11l-11.7-4.7l-1-0.4c0.1-0.1,0.1-0.2,0.2-0.2c0.2-0.3,0.4-0.6,0.6-0.8
		c1.1-1.5,1.2-4.6,1.9-6.2l3.2-12.6l0.7-0.1l0,0l41.1-4.9C148.2,85.2,145.5,99.6,138.7,112.2z"/>
	<linearGradient id="SVGID_2_" gradientUnits="userSpaceOnUse" x1="94.5337" y1="50.7708" x2="144.1398" y2="50.7708">
		<stop  offset="0" style="stop-color:#000000;stop-opacity:0.27"/>
		<stop  offset="1" style="stop-color:#FFFFFF"/>
	</linearGradient>
	<path class="st4" d="M144.1,59.7l-38.7,16.4l0,0l-0.7,0.1l-0.8-3.2l-0.3-1.1c-1.5-5.3-4.7-9.9-8.9-13.3c-0.1-0.1-0.2-0.1-0.2-0.2
		l0.6-0.8v0l4.2-5.3l6.2-7.8l15.2-19.3c2.1,1.6,4.1,3.4,6.1,5.4c2.1,2.1,4.1,4.4,5.9,6.7c1.3,1.7,2.5,3.4,3.6,5.2
		C139.8,48,142.4,53.8,144.1,59.7z"/>
	<linearGradient id="SVGID_3_" gradientUnits="userSpaceOnUse" x1="8.256" y1="20.0583" x2="42.1004" y2="35.7292">
		<stop  offset="0" style="stop-color:#000000;stop-opacity:0.27"/>
		<stop  offset="1" style="stop-color:#FFFFFF"/>
	</linearGradient>
	<path class="st5" d="M57.8,2.7C31,9.8,9.8,31,2.7,57.8V29.2c6.9-10.6,16-19.7,26.6-26.6H57.8z"/>
	<linearGradient id="SVGID_4_" gradientUnits="userSpaceOnUse" x1="4.2905" y1="130.7668" x2="31.2383" y2="125.7225">
		<stop  offset="0" style="stop-color:#000000;stop-opacity:0.27"/>
		<stop  offset="1" style="stop-color:#FFFFFF"/>
	</linearGradient>
	<path class="st6" d="M57.9,153.5H29.3c-10.6-6.9-19.7-16-26.6-26.6V98.3C9.8,125.2,31,146.3,57.9,153.5z"/>
	<linearGradient id="SVGID_5_" gradientUnits="userSpaceOnUse" x1="192.6481" y1="15.9605" x2="137.1832" y2="27.8258">
		<stop  offset="0" style="stop-color:#FFFFFF;stop-opacity:0"/>
		<stop  offset="1" style="stop-color:#FFFFFF"/>
	</linearGradient>
	<path class="st7" d="M153.5,29.2v28.6c-7.2-26.8-28.3-48-55.2-55.2h28.6C137.5,9.5,146.6,18.6,153.5,29.2z"/>
	<linearGradient id="SVGID_6_" gradientUnits="userSpaceOnUse" x1="160.9958" y1="138.0467" x2="99.0782" y2="116.6326">
		<stop  offset="0" style="stop-color:#FFFFFF;stop-opacity:0"/>
		<stop  offset="0.9802" style="stop-color:#FFFFFF"/>
	</linearGradient>
	<path class="st8" d="M153.5,98.3v28.6c-6.9,10.6-16,19.7-26.6,26.6H98.3C125.2,146.3,146.3,125.2,153.5,98.3z"/>
	<path class="st2" d="M2.7,127l-1.2,0.3v-6.2l1.1-0.3v6C2.7,126.9,2.7,127,2.7,127z"/>
	<path class="st9" d="M153.5,34.7v6.2l-7,1.9l-6.8,1.8l-37,9.8l-0.9,0.2l-1.4,0.4l-4.4,1.2l-3.7,1c1.7,0.7,3.2,1.7,4.7,2.7
		c0.3,0.2,0.6,0.4,0.8,0.6c0.1,0.1,0.2,0.1,0.2,0.2c4.2,3.4,7.3,8,8.9,13.3l0.3,1.1l0.8,3.2l0.1,0.2l4.3,16.1l1.5,5.8l0.8,2.9
		l1.5,5.7l7.2,27.1l1.4,5.2l3.8,14.3h-6.2l-2.9-10.9l-1.3-5l-9.8-37l-0.2-0.9l-0.4-1.4v0l-1.2-4.3l-1-3.7c-0.7,1.7-1.7,3.2-2.7,4.7
		c-0.2,0.3-0.4,0.6-0.6,0.8c-0.1,0.1-0.1,0.2-0.2,0.2c-3.4,4.2-8,7.3-13.3,8.9l-0.1,0l-0.9,0.2l-3.2,0.9l-0.1,0l-16.1,4.3l-5.8,1.5
		l-2.9,0.8l-5.8,1.5l-27.1,7.2l-5.5,1.5l-19.8,5.3v-6.2l16.3-4.3l5.4-1.4l36.9-9.8l0.9-0.2l1.5-0.4l4.3-1.1l3.7-1
		c-1.7-0.7-3.2-1.7-4.7-2.7c-0.3-0.2-0.5-0.4-0.8-0.6c-0.1-0.1-0.2-0.2-0.3-0.2c-4.2-3.4-7.3-8-8.9-13.4l0-0.1l-0.2-0.9l-0.9-3.3
		l-0.1-0.2l-4.3-16l-1.5-5.8l-0.8-2.9l-1.5-5.7l-7.2-27.1l-2-7.4L33,2.7h9.7l-3.3,0.9l3.2,12.4l1.9,7.3l9.8,36.9l0.2,0.9l0.4,1.4
		l1.2,4.4l1,3.7c0.7-1.7,1.7-3.2,2.7-4.7c0.2-0.3,0.4-0.6,0.7-0.9c0.1-0.1,0.1-0.1,0.2-0.2c3.3-4.1,7.9-7.2,13.1-8.8l1.5-0.4l0.1,0
		l2.8-0.8l0.2-0.1l16-4.3l5.8-1.5l2.9-0.8l5.7-1.5l27.1-7.2l7.1-1.9L153.5,34.7z"/>
	<line class="st2" x1="30.5" y1="4.1" x2="51.4" y2="82.6"/>
	<linearGradient id="SVGID_7_" gradientUnits="userSpaceOnUse" x1="69.9795" y1="34.7555" x2="110.8854" y2="34.7555">
		<stop  offset="0" style="stop-color:#000000;stop-opacity:0.27"/>
		<stop  offset="1" style="stop-color:#FFFFFF"/>
	</linearGradient>
	<path class="st10" d="M110.9,18.8l-11,27.3L97.1,53l-1.9,4.7v0l-0.6,0.8L94.1,59c-4.4-3.5-10-5.6-16.1-5.6c-0.9,0-1.7,0-2.6,0.1
		l-0.4-0.9l-0.2,0.1L74.8,52L70,11C83.9,9.3,98.2,11.9,110.9,18.8z"/>
	<linearGradient id="SVGID_8_" gradientUnits="userSpaceOnUse" x1="32.0739" y1="48.423" x2="79.2764" y2="29.2179">
		<stop  offset="0" style="stop-color:#000000;stop-opacity:0.27"/>
		<stop  offset="1" style="stop-color:#FFFFFF"/>
	</linearGradient>
	<path class="st11" d="M74.9,52.7l-2.8,0.8l-0.1,0l-1.5,0.4c-5.2,1.6-9.7,4.7-13.1,8.8c-0.1,0.1-0.1,0.1-0.2,0.2l-0.8-0.6L51,58.1
		l-7.8-6.2L24,36.7c1.7-2.1,3.5-4.1,5.4-6.1c2.1-2.1,4.3-4.1,6.7-5.9c1.7-1.3,3.4-2.5,5.2-3.7c5.4-3.4,11.2-6,17.2-7.8L74.8,52
		L74.9,52.7z"/>
	<linearGradient id="SVGID_9_" gradientUnits="userSpaceOnUse" x1="33.4252" y1="54.8922" x2="33.4252" y2="103.4332">
		<stop  offset="0" style="stop-color:#000000;stop-opacity:0.27"/>
		<stop  offset="1" style="stop-color:#FFFFFF"/>
	</linearGradient>
	<path class="st12" d="M52.1,79.4c0,0.9,0,1.7,0.1,2.6l-0.9,0.4l-0.7,0.3h0l-41,4.8c-1.6-13.9,1-28.3,7.8-40.9l27.3,11l6.9,2.8
		l4.7,1.9l0.8,0.6l0.5,0.4C54.2,67.8,52.1,73.3,52.1,79.4z"/>
	<linearGradient id="SVGID_10_" gradientUnits="userSpaceOnUse" x1="30.5758" y1="92.542" x2="53.3405" y2="123.9207">
		<stop  offset="0" style="stop-color:#000000;stop-opacity:0.27"/>
		<stop  offset="1" style="stop-color:#FFFFFF"/>
	</linearGradient>
	<path class="st13" d="M61.4,100.1h0.4l-5,6.3l-6.2,7.8l-15.2,19.2c-2.1-1.6-4.1-3.5-6.1-5.4c-2.1-2.1-4.1-4.3-5.8-6.6
		c-1.3-1.7-2.5-3.4-3.7-5.2c-3.4-5.4-6.1-11.2-7.8-17.2l38.6-16.4h0l0.7-0.3l0.1,0.2l0.9,3.3l0.2,0.9l0,0.1
		C54,92.1,57.2,96.7,61.4,100.1z"/>
	<linearGradient id="SVGID_11_" gradientUnits="userSpaceOnUse" x1="53.8662" y1="124.0804" x2="83.1525" y2="124.0804">
		<stop  offset="0" style="stop-color:#000000;stop-opacity:0.27"/>
		<stop  offset="1" style="stop-color:#FFFFFF"/>
	</linearGradient>
	<path class="st14" d="M86,148c-13.9,1.5-28.3-1.2-40.9-8.1l11.2-27.1l2.9-6.9l2-4.8l0.3-0.8l0.2,0.2l0.5-0.6c4.4,3.5,10,5.6,16,5.7
		c0.9,0,1.7,0,2.6-0.1l0.3,0.8l0.2,0.4v0l0.1,0.3l0,0.2L86,148z"/>
	<linearGradient id="SVGID_12_" gradientUnits="userSpaceOnUse" x1="92.0026" y1="122.1066" x2="122.028" y2="115.7237">
		<stop  offset="0" style="stop-color:#000000;stop-opacity:0.27"/>
		<stop  offset="1" style="stop-color:#FFFFFF"/>
	</linearGradient>
	<path class="st15" d="M132.2,122.1c-1.7,2.1-3.5,4.1-5.4,6c-2.1,2.1-4.4,4.1-6.7,5.9c-1.7,1.3-3.4,2.5-5.2,3.6
		c-5.4,3.4-11.2,6-17.2,7.8l-16.2-38.3l-0.4-1l0.1,0l0.1,0l3.2-0.9l0.9-0.2l0.1,0c5.3-1.5,9.9-4.7,13.3-8.9l1,0.4l5.3,4.2l7.8,6.2
		L132.2,122.1z"/>
	<linearGradient id="SVGID_13_" gradientUnits="userSpaceOnUse" x1="63.1369" y1="26.4921" x2="102.3532" y2="38.127">
		<stop  offset="0.3815" style="stop-color:#FFFFFF;stop-opacity:0"/>
		<stop  offset="0.9802" style="stop-color:#FFFFFF"/>
	</linearGradient>
	<path class="st16" d="M110.9,18.8l-11,27.3L97.1,53l-1.9,4.7v0l-0.6,0.8L94.1,59c-4.4-3.5-10-5.6-16.1-5.6c-0.9,0-1.7,0-2.6,0.1
		l-0.4-0.9l-0.2,0.1L74.8,52L70,11C83.9,9.3,98.2,11.9,110.9,18.8z"/>
	<linearGradient id="SVGID_14_" gradientUnits="userSpaceOnUse" x1="31.6014" y1="51.1735" x2="66.2449" y2="32.9479">
		<stop  offset="0.3815" style="stop-color:#FFFFFF;stop-opacity:0"/>
		<stop  offset="0.9802" style="stop-color:#FFFFFF"/>
	</linearGradient>
	<path class="st17" d="M74.9,52.7l-2.8,0.8l-0.1,0l-1.5,0.4c-5.2,1.6-9.7,4.7-13.1,8.8c-0.1,0.1-0.1,0.1-0.2,0.2l-0.8-0.6L51,58.1
		l-7.8-6.2L24,36.7c1.7-2.1,3.5-4.1,5.4-6.1c2.1-2.1,4.3-4.1,6.7-5.9c1.7-1.3,3.4-2.5,5.2-3.7c5.4-3.4,11.2-6,17.2-7.8L74.8,52
		L74.9,52.7z"/>
	<linearGradient id="SVGID_15_" gradientUnits="userSpaceOnUse" x1="36.6489" y1="55.8634" x2="29.5894" y2="79.294">
		<stop  offset="0" style="stop-color:#FFFFFF"/>
		<stop  offset="0.7736" style="stop-color:#FFFFFF;stop-opacity:0"/>
	</linearGradient>
	<path class="st18" d="M52.1,79.4c0,0.9,0,1.7,0.1,2.6l-0.9,0.4l-0.7,0.3h0l-41,4.8c-1.6-13.9,1-28.3,7.8-40.9l27.3,11l6.9,2.8
		l4.7,1.9l0.8,0.6l0.5,0.4C54.2,67.8,52.1,73.3,52.1,79.4z"/>
	<linearGradient id="SVGID_16_" gradientUnits="userSpaceOnUse" x1="48.5787" y1="113.5013" x2="21.1665" y2="86.0892">
		<stop  offset="0" style="stop-color:#FFFFFF"/>
		<stop  offset="0.5125" style="stop-color:#FFFFFF;stop-opacity:0"/>
	</linearGradient>
	<path class="st19" d="M61.4,100.1h0.4l-5,6.3l-6.2,7.8l-15.2,19.2c-2.1-1.6-4.1-3.5-6.1-5.4c-2.1-2.1-4.1-4.3-5.8-6.6
		c-1.3-1.7-2.5-3.4-3.7-5.2c-3.4-5.4-6.1-11.2-7.8-17.2l38.6-16.4h0l0.7-0.3l0.1,0.2l0.9,3.3l0.2,0.9l0,0.1
		C54,92.1,57.2,96.7,61.4,100.1z"/>
	<linearGradient id="SVGID_17_" gradientUnits="userSpaceOnUse" x1="77.3927" y1="125.1408" x2="48.3022" y2="121.7602">
		<stop  offset="0" style="stop-color:#FFFFFF"/>
		<stop  offset="0.7736" style="stop-color:#FFFFFF;stop-opacity:0"/>
	</linearGradient>
	<path class="st20" d="M86,148c-13.9,1.5-28.3-1.2-40.9-8.1l11.2-27.1l2.9-6.9l2-4.8l0.3-0.8l0.2,0.2l0.5-0.6c4.4,3.5,10,5.6,16,5.7
		c0.9,0,1.7,0,2.6-0.1l0.3,0.8l0.2,0.4v0l0.1,0.3l0,0.2L86,148z"/>
	<linearGradient id="SVGID_18_" gradientUnits="userSpaceOnUse" x1="115.7104" y1="107.4124" x2="92.2013" y2="127.1503">
		<stop  offset="0" style="stop-color:#FFFFFF"/>
		<stop  offset="0.7736" style="stop-color:#FFFFFF;stop-opacity:0"/>
	</linearGradient>
	<path class="st21" d="M132.2,122.1c-1.7,2.1-3.5,4.1-5.4,6c-2.1,2.1-4.4,4.1-6.7,5.9c-1.7,1.3-3.4,2.5-5.2,3.6
		c-5.4,3.4-11.2,6-17.2,7.8l-16.2-38.3l-0.4-1l0.1,0l0.1,0l3.2-0.9l0.9-0.2l0.1,0c5.3-1.5,9.9-4.7,13.3-8.9l1,0.4l5.3,4.2l7.8,6.2
		L132.2,122.1z"/>
	<g>
		<path class="st2" d="M149.8,0H6.3C2.8,0,0,2.8,0,6.3v143.5c0,3.5,2.8,6.3,6.3,6.3h143.5c3.5,0,6.3-2.8,6.3-6.3V6.3
			C156.1,2.8,153.3,0,149.8,0z M2.7,29.2c6.9-10.6,16-19.7,26.6-26.6h0.9L34,17.4l2,7.4l7.2,27.1l1.5,5.7l0.8,2.9l1.5,5.8l4.3,16
			l0.1,0.2l0.9,3.3l0.2,0.9l0,0.1c1.5,5.3,4.7,10,8.9,13.4c0.1,0.1,0.2,0.2,0.3,0.2c0.3,0.2,0.5,0.4,0.8,0.6c1.5,1.1,3,2,4.7,2.7
			l-3.7,1l-4.3,1.1l-1.5,0.4l-0.9,0.2l-36.9,9.8l-5.4,1.4l-11.8,3.1V29.2z M29.3,153.5C18.7,146.6,9.6,137.6,2.7,127L18,123l5.5-1.5
			l27.1-7.2l5.8-1.5l2.9-0.8l5.8-1.5l16.1-4.3l0.1,0l3.2-0.9l0.9-0.2l0.1,0c5.3-1.5,9.9-4.7,13.3-8.9c0.1-0.1,0.1-0.2,0.2-0.2
			c0.2-0.3,0.4-0.6,0.6-0.8c1.1-1.5,2-3,2.7-4.7l1,3.7l1.2,4.3v0l0.4,1.4l0.2,0.9l9.8,37l1.3,5l2.9,10.9H29.3z M153.5,126.9
			c-6.9,10.6-16,19.7-26.6,26.6h-1.6l-3.8-14.3l-1.4-5.2l-7.2-27.1l-1.5-5.7l-0.8-2.9l-1.5-5.8l-4.3-16.1l-0.1-0.2l-0.8-3.2
			l-0.3-1.1c-1.5-5.3-4.7-9.9-8.9-13.3c-0.1-0.1-0.2-0.1-0.2-0.2c-0.3-0.2-0.6-0.4-0.8-0.6c-1.5-1-3-2-4.7-2.7l3.7-1l4.4-1.2
			l1.4-0.4l0.9-0.2l37-9.8l6.8-1.8l10.4-2.8V126.9z M153.5,31.8l-13.7,3.7l-7.1,1.9l-27.1,7.2l-5.7,1.5l-2.9,0.8l-5.8,1.5l-16,4.3
			l-0.2,0.1l-2.8,0.8l-0.1,0l-1.5,0.4c-5.2,1.6-9.7,4.7-13.1,8.8c-0.1,0.1-0.1,0.1-0.2,0.2c-0.2,0.3-0.4,0.6-0.7,0.9
			c-1.1,1.5-2,3-2.7,4.7l-1-3.7l-1.2-4.4L51.3,59L51,58.1l-9.8-36.9l-1.9-7.3L36.5,3.5l3.3-0.9h87.1c10.6,6.9,19.7,16,26.6,26.6
			V31.8z"/>
		<g>
			<circle class="st22" cx="78.1" cy="79.4" r="18.9"/>
		</g>
		<linearGradient id="SVGID_19_" gradientUnits="userSpaceOnUse" x1="46.404" y1="51.6908" x2="43.5329" y2="52.4734">
			<stop  offset="0" style="stop-color:#FFFFFF;stop-opacity:0"/>
			<stop  offset="0.9802" style="stop-color:#FFFFFF"/>
		</linearGradient>
		<path class="st23" d="M62.4,100.9c-0.3-0.2-0.5-0.4-0.8-0.6c-0.1-0.1-0.2-0.2-0.3-0.2c-4.2-3.4-7.3-8-8.9-13.4l0-0.1l-0.2-0.9
			l-0.9-3.3l-0.1-0.2l-4.3-16l-1.5-5.8l-0.8-2.9l-1.5-5.7L36,24.7l-2-7.4L30.1,2.6h9.7l-3.3,0.9l17.3,65L62.4,100.9z"/>
		<linearGradient id="SVGID_20_" gradientUnits="userSpaceOnUse" x1="113.3849" y1="115.5316" x2="109.2644" y2="116.8957">
			<stop  offset="0" style="stop-color:#FFFFFF;stop-opacity:0"/>
			<stop  offset="0.9802" style="stop-color:#FFFFFF"/>
		</linearGradient>
		<polygon class="st24" points="125.3,153.5 119.2,153.5 102.3,90.4 104.8,76.4 		"/>
		<linearGradient id="SVGID_21_" gradientUnits="userSpaceOnUse" x1="43.4162" y1="115.3628" x2="42.2338" y2="110.4719">
			<stop  offset="0" style="stop-color:#FFFFFF;stop-opacity:0"/>
			<stop  offset="1" style="stop-color:#FFFFFF"/>
		</linearGradient>
		<path class="st25" d="M2.7,120.9l0.1,6.2l81.7-21.8c0,0-4.8,0.6-9.3,0.1c-5.2-0.5-8.1-1.7-8.1-1.7L2.7,120.9z"/>
		<linearGradient id="SVGID_22_" gradientUnits="userSpaceOnUse" x1="104.6101" y1="46.4147" x2="105.5988" y2="49.8963">
			<stop  offset="0" style="stop-color:#FFFFFF"/>
			<stop  offset="1" style="stop-color:#FFFFFF;stop-opacity:0"/>
		</linearGradient>
		<path class="st26" d="M153.5,31.8L70.4,53.9c0,0-4.5,1.4-8.3,4.2c-3.7,2.8-5.6,5.7-5.6,5.7l97-25.8V31.8z"/>
	</g>
</g>
</svg>
