<?xml version="1.0" encoding="utf-8"?>
<!-- Generator: Adobe Illustrator 23.1.1, SVG Export Plug-In . SVG Version: 6.00 Build 0)  -->
<svg version="1.1" id="Layer_1" xmlns="http://www.w3.org/2000/svg" xmlns:xlink="http://www.w3.org/1999/xlink" x="0px" y="0px"
	 viewBox="0 0 116.1 98.1" style="enable-background:new 0 0 116.1 98.1;" xml:space="preserve">
<style type="text/css">
	.st0{opacity:0.3;fill:#1E1E1D;}
	.st1{fill:#F9F6F1;}
	.st2{opacity:0.39;fill:url(#SVGID_1_);}
	.st3{opacity:0.39;fill:url(#SVGID_2_);}
	.st4{fill:#252624;}
	.st5{fill:#FFF7F1;}
	.st6{opacity:0.4;}
	.st7{fill:#1E1E1D;}
	.st8{fill:url(#SVGID_3_);}
	.st9{opacity:0.5;fill:url(#SVGID_4_);}
	.st10{fill:url(#SVGID_5_);}
	.st11{fill:#181A18;}
	.st12{opacity:0.6;fill:url(#SVGID_6_);}
	.st13{opacity:7.000000e-02;fill:#010101;}
	.st14{opacity:7.000000e-02;fill:url(#SVGID_7_);}
	.st15{opacity:7.000000e-02;fill:url(#SVGID_8_);}
	.st16{opacity:7.000000e-02;fill:url(#SVGID_9_);}
	.st17{opacity:7.000000e-02;fill:url(#SVGID_10_);}
	.st18{opacity:7.000000e-02;fill:url(#SVGID_11_);}
	.st19{opacity:7.000000e-02;fill:url(#SVGID_12_);}
	.st20{opacity:0.45;fill:url(#SVGID_13_);}
	.st21{opacity:0.45;fill:url(#SVGID_14_);}
	.st22{opacity:0.45;fill:url(#SVGID_15_);}
	.st23{opacity:0.45;fill:url(#SVGID_16_);}
	.st24{opacity:0.45;fill:url(#SVGID_17_);}
	.st25{opacity:0.45;fill:url(#SVGID_18_);}
	.st26{clip-path:url(#SVGID_20_);}
	.st27{fill:#AFB7BA;}
	.st28{opacity:0.5;}
	.st29{opacity:0.5;fill:#F2FAFA;}
	.st30{opacity:0.5;fill:url(#SVGID_21_);}
	.st31{opacity:0.5;fill:url(#SVGID_22_);}
	.st32{fill:#FFFFFF;}
	.st33{fill:none;stroke:#FFFFFF;stroke-miterlimit:10;}
</style>
<g>
	<g>
		<g>
			<circle class="st0" cx="110.9" cy="58" r="5.3"/>
			<path class="st0" d="M112.1,62.4h-9.5v16.5L114,67.1C115.8,65.3,114.5,62.4,112.1,62.4z"/>
			<path class="st0" d="M103.4,37.2v16.5h9.5c2.5,0,3.7-3,2-4.7L103.4,37.2z"/>
			<path class="st1" d="M110.4,60.7h-9.5v16.5l11.5-11.7C114.1,63.7,112.9,60.7,110.4,60.7z"/>
			<path class="st1" d="M100.9,34.7v16.5h9.5c2.5,0,3.7-3,2-4.7L100.9,34.7z"/>
			
				<linearGradient id="SVGID_1_" gradientUnits="userSpaceOnUse" x1="-174.9998" y1="585.3123" x2="-162.6737" y2="585.3123" gradientTransform="matrix(1 0 0 1 275.8885 -516.3544)">
				<stop  offset="0" style="stop-color:#000000"/>
				<stop  offset="0.1178" style="stop-color:#040404;stop-opacity:0.9058"/>
				<stop  offset="0.2424" style="stop-color:#111010;stop-opacity:0.8061"/>
				<stop  offset="0.3701" style="stop-color:#262524;stop-opacity:0.7039"/>
				<stop  offset="0.5001" style="stop-color:#444240;stop-opacity:0.5999"/>
				<stop  offset="0.6319" style="stop-color:#6A6765;stop-opacity:0.4945"/>
				<stop  offset="0.7651" style="stop-color:#999491;stop-opacity:0.388"/>
				<stop  offset="0.8969" style="stop-color:#CFC9C5;stop-opacity:0.2825"/>
				<stop  offset="1" style="stop-color:#FFF7F2;stop-opacity:0.2"/>
			</linearGradient>
			<path class="st2" d="M110.4,60.7h-9.5v16.5l11.5-11.7C114.1,63.7,112.9,60.7,110.4,60.7z"/>
			
				<linearGradient id="SVGID_2_" gradientUnits="userSpaceOnUse" x1="-174.9998" y1="559.2545" x2="-162.6737" y2="559.2545" gradientTransform="matrix(1 0 0 1 275.8885 -516.3544)">
				<stop  offset="0" style="stop-color:#000000"/>
				<stop  offset="0.1178" style="stop-color:#040404;stop-opacity:0.9058"/>
				<stop  offset="0.2424" style="stop-color:#111010;stop-opacity:0.8061"/>
				<stop  offset="0.3701" style="stop-color:#262524;stop-opacity:0.7039"/>
				<stop  offset="0.5001" style="stop-color:#444240;stop-opacity:0.5999"/>
				<stop  offset="0.6319" style="stop-color:#6A6765;stop-opacity:0.4945"/>
				<stop  offset="0.7651" style="stop-color:#999491;stop-opacity:0.388"/>
				<stop  offset="0.8969" style="stop-color:#CFC9C5;stop-opacity:0.2825"/>
				<stop  offset="1" style="stop-color:#FFF7F2;stop-opacity:0.2"/>
			</linearGradient>
			<path class="st3" d="M100.9,34.7v16.5h9.5c2.5,0,3.7-3,2-4.7L100.9,34.7z"/>
			<rect x="88.8" y="11.8" class="st1" width="0.4" height="12.3"/>
			<rect x="87.8" y="11.8" class="st1" width="0.4" height="12.3"/>
			<rect x="86.8" y="11.8" class="st1" width="0.4" height="12.3"/>
			<rect x="85.7" y="11.8" class="st1" width="0.4" height="12.3"/>
			<rect x="84.7" y="11.8" class="st1" width="0.4" height="12.3"/>
			<rect x="83.6" y="11.8" class="st1" width="0.4" height="12.3"/>
			<rect x="82.6" y="11.8" class="st1" width="0.4" height="12.3"/>
			<rect x="81.5" y="11.8" class="st1" width="0.4" height="12.3"/>
			<rect x="80.5" y="11.8" class="st1" width="0.4" height="12.3"/>
			<rect x="79.4" y="11.8" class="st1" width="0.4" height="12.3"/>
			<rect x="78.4" y="11.8" class="st1" width="0.4" height="12.3"/>
			<rect x="77.4" y="11.8" class="st1" width="0.4" height="12.3"/>
			<rect x="76.3" y="11.8" class="st1" width="0.4" height="12.3"/>
			<rect x="71.6" y="11.8" class="st1" width="0.4" height="12.3"/>
			<rect x="70.5" y="11.8" class="st1" width="0.4" height="12.3"/>
			<rect x="69.5" y="11.8" class="st1" width="0.4" height="12.3"/>
			<rect x="68.4" y="11.8" class="st1" width="0.4" height="12.3"/>
			<rect x="67.4" y="11.8" class="st1" width="0.4" height="12.3"/>
			<rect x="66.3" y="11.8" class="st1" width="0.4" height="12.3"/>
			<rect x="65.3" y="11.8" class="st1" width="0.4" height="12.3"/>
			<rect x="64.2" y="11.8" class="st1" width="0.4" height="12.3"/>
			<rect x="63.2" y="11.8" class="st1" width="0.4" height="12.3"/>
			<rect x="62.1" y="11.8" class="st1" width="0.4" height="12.3"/>
			<rect x="61.1" y="11.8" class="st1" width="0.4" height="12.3"/>
			<rect x="60" y="11.8" class="st1" width="0.4" height="12.3"/>
			<rect x="58.9" y="11.8" class="st1" width="0.4" height="12.3"/>
			<rect x="57.9" y="11.8" class="st1" width="0.4" height="12.3"/>
			<rect x="56.8" y="11.8" class="st1" width="0.4" height="12.3"/>
			<rect x="55.8" y="11.8" class="st1" width="0.4" height="12.3"/>
			<rect x="54.7" y="11.8" class="st1" width="0.4" height="12.3"/>
			<rect x="53.7" y="11.8" class="st1" width="0.4" height="12.3"/>
			<rect x="52.6" y="11.8" class="st1" width="0.4" height="12.3"/>
			<rect x="51.6" y="11.8" class="st1" width="0.4" height="12.3"/>
			<rect x="50.5" y="11.8" class="st1" width="0.4" height="12.3"/>
			<rect x="49.5" y="11.8" class="st1" width="0.4" height="12.3"/>
			<rect x="48.4" y="11.8" class="st1" width="0.4" height="12.3"/>
			<rect x="47.3" y="11.8" class="st1" width="0.4" height="12.3"/>
			<rect x="46.3" y="11.8" class="st1" width="0.4" height="12.3"/>
			<rect x="45.2" y="11.8" class="st1" width="0.4" height="12.3"/>
			<rect x="44.2" y="11.8" class="st1" width="0.4" height="12.3"/>
			<rect x="43.1" y="11.8" class="st1" width="0.4" height="12.3"/>
			<rect x="42.1" y="11.8" class="st1" width="0.4" height="12.3"/>
			<rect x="41" y="11.8" class="st1" width="0.4" height="12.3"/>
			<rect x="40" y="11.8" class="st1" width="0.4" height="12.3"/>
			<rect x="38.9" y="11.8" class="st1" width="0.4" height="12.3"/>
			<rect x="37.9" y="11.8" class="st1" width="0.4" height="12.3"/>
			<rect x="36.8" y="11.8" class="st1" width="0.4" height="12.3"/>
			<rect x="35.7" y="11.8" class="st1" width="0.4" height="12.3"/>
			<rect x="34.7" y="11.8" class="st1" width="0.4" height="12.3"/>
			<rect x="33.6" y="11.8" class="st1" width="0.4" height="12.3"/>
			<rect x="32.6" y="11.8" class="st1" width="0.4" height="12.3"/>
			<rect x="31.5" y="11.8" class="st1" width="0.4" height="12.3"/>
			<g>
				<rect y="33.1" class="st4" width="16.9" height="49.8"/>
			</g>
			<path class="st5" d="M17.8,90.4h81c1.2,0,2.2-1,2.2-2.2V23.6c0-1.2-1-2.2-2.2-2.2h-81c-1.2,0-2.2,1-2.2,2.2v64.6
				C15.6,89.4,16.6,90.4,17.8,90.4z"/>
			<path class="st5" d="M16,94.6l-13.8,0c-1.3,0-2.4-1.1-2.4-2.4l0-11.8c0-1.3,1.1-2.4,2.4-2.4l16.2,0l0,14.2
				C18.4,93.5,17.4,94.6,16,94.6z"/>
			<g class="st6">
				<path class="st7" d="M10.5,98.1H7.6V74.9c0-2,1.1-3.8,2.8-4.7l1.6-0.9c0.9-0.5,1.5-1.5,1.5-2.6V53.6c0-0.9-0.4-1.8-1.2-2.4
					l-2.5-1.9c-1.3-1-2.1-2.6-2.1-4.3V23c0-3.5,2.8-6.5,6.3-6.6l64.5-3c1.4-0.1,2.5-1,2.9-2.3L82,8.4c0.7-2.5,2.5-4.5,5-5.2
					c2.5-0.8,5.1-0.2,7.1,1.5l12.7,10.9c1.7,1.5,2.7,3.6,2.7,5.9v1.5c0,1,0.4,1.9,1.1,2.6l2.8,2.7l-2,2.1l-2.8-2.7
					c-1.3-1.2-2-2.9-2-4.7v-1.5c0-1.4-0.6-2.8-1.7-3.7L92.3,6.8c-1.2-1-2.9-1.4-4.4-0.9c-1.5,0.5-2.7,1.7-3.1,3.2l-0.7,2.7
					c-0.7,2.5-2.9,4.3-5.5,4.4l-64.5,3c-2,0.1-3.6,1.7-3.6,3.8v22c0,0.8,0.4,1.5,1,2L14,49c1.5,1.1,2.3,2.8,2.3,4.7v13.1
					c0,2.1-1.2,4.1-3,5.1l-1.6,0.9C11,73.2,8.9,74.1,8.9,75l0,19.5l1.5,0V98.1z"/>
			</g>
			<path class="st5" d="M18.6,37L2.4,37C1.1,37,0,35.9,0,34.6l0-11.8c0-1.3,1.1-2.4,2.4-2.4l13.8,0c1.3,0,2.4,1.1,2.4,2.4L18.6,37z"
				/>
			<path class="st1" d="M17.7,61.1h-6.3c-0.6,0-1.1-0.5-1.1-1.1v-5.5c0-0.6,0.5-1.1,1.1-1.1h6.3c0.6,0,1.1,0.5,1.1,1.1V60
				C18.8,60.6,18.3,61.1,17.7,61.1z"/>
			<g>
				<path class="st5" d="M8.9,95.3H6.1V72.1c0-2,1.1-3.8,2.8-4.7l1.6-0.9c0.9-0.5,1.5-1.5,1.5-2.6V50.8c0-0.9-0.4-1.8-1.2-2.4
					l-2.5-1.9c-1.3-1-2.1-2.6-2.1-4.3v-22c0-3.5,2.8-6.5,6.3-6.6l64.5-3c1.4-0.1,2.5-1,2.9-2.3l0.7-2.7c0.7-2.5,2.5-4.5,5-5.2
					c2.5-0.8,5.1-0.2,7.1,1.5l12.7,10.9c1.7,1.5,2.7,3.6,2.7,5.9v1.5c0,1,0.4,1.9,1.1,2.6l2.8,2.7l-2,2.1l-2.8-2.7
					c-1.3-1.2-2-2.9-2-4.7v-1.5c0-1.4-0.6-2.8-1.7-3.7L90.7,4c-1.2-1-2.9-1.4-4.4-0.9c-1.5,0.5-2.7,1.7-3.1,3.2L82.5,9
					c-0.7,2.5-2.9,4.3-5.5,4.4l-64.5,3c-2,0.1-3.6,1.7-3.6,3.8v22c0,0.8,0.4,1.5,1,2l2.5,1.9c1.5,1.1,2.3,2.8,2.3,4.7v13.1
					c0,2.1-1.2,4.1-3,5.1l-1.6,0.9c-0.8,0.4-1.3,1.3-1.3,2.2V95.3z"/>
			</g>
			
				<linearGradient id="SVGID_3_" gradientUnits="userSpaceOnUse" x1="-217.6306" y1="538.2245" x2="-217.6306" y2="543.0381" gradientTransform="matrix(1 0 0 1 275.8885 -516.3544)">
				<stop  offset="0" style="stop-color:#FCFCFC"/>
				<stop  offset="0.3554" style="stop-color:#FDFAF8;stop-opacity:0.4876"/>
				<stop  offset="0.5549" style="stop-color:#FFF7F2;stop-opacity:0.2"/>
			</linearGradient>
			<path class="st8" d="M100.9,23.6V27H15.6v-3.3c0-1.2,1-2.2,2.2-2.2h81C99.9,21.5,100.9,22.4,100.9,23.6z"/>
			
				<linearGradient id="SVGID_4_" gradientUnits="userSpaceOnUse" x1="4434.8682" y1="3376.573" x2="4434.8682" y2="3381.3867" gradientTransform="matrix(-1 0 0 -1 4493.126 3466.561)">
				<stop  offset="0" style="stop-color:#000000"/>
				<stop  offset="6.562210e-02" style="stop-color:#040404;stop-opacity:0.9058"/>
				<stop  offset="0.135" style="stop-color:#111010;stop-opacity:0.8061"/>
				<stop  offset="0.2062" style="stop-color:#262524;stop-opacity:0.7039"/>
				<stop  offset="0.2786" style="stop-color:#444240;stop-opacity:0.5999"/>
				<stop  offset="0.352" style="stop-color:#6A6765;stop-opacity:0.4945"/>
				<stop  offset="0.4262" style="stop-color:#999491;stop-opacity:0.388"/>
				<stop  offset="0.4996" style="stop-color:#CFC9C5;stop-opacity:0.2825"/>
				<stop  offset="0.5571" style="stop-color:#FFF7F2;stop-opacity:0.2"/>
			</linearGradient>
			<path class="st9" d="M15.6,88.2v-3.3h85.3v3.3c0,1.2-1,2.2-2.2,2.2h-81C16.6,90.4,15.6,89.4,15.6,88.2z"/>
			
				<linearGradient id="SVGID_5_" gradientUnits="userSpaceOnUse" x1="3771.7493" y1="-187.5282" x2="3771.7493" y2="-183.2255" gradientTransform="matrix(0 -1 1 0 203.5027 3829.2732)">
				<stop  offset="0" style="stop-color:#FCFCFC"/>
				<stop  offset="0.3554" style="stop-color:#FDFAF8;stop-opacity:0.4876"/>
				<stop  offset="0.5549" style="stop-color:#FFF7F2;stop-opacity:0.2"/>
			</linearGradient>
			<polygon class="st10" points="17.6,37 20.5,37 20.5,78 17.6,78 15.6,78 15.6,37 			"/>
			<g>
				<g>
					<path class="st4" d="M101.5,39.8l1.4-0.9c0.4-0.2,0.6-0.6,0.6-1.1V24.6c0-0.7-0.6-1.3-1.3-1.3h-8.5c-0.1,0-0.1,0-0.2,0
						c-0.3,0-0.5,0.2-0.7,0.3l-3.3,3.1c-0.2,0.2-0.6,0.3-0.9,0.3H62.9c-0.3,0-0.5,0.1-0.8,0.2l-1.6,1.2c-0.2,0.2-0.5,0.3-0.8,0.3
						h-7.2c-0.3,0-0.6-0.1-0.9-0.3l-1.5-1.3l-3.9-3.5c-0.2-0.2-0.5-0.3-0.9-0.3H27c-0.5,0-0.9,0.3-1.1,0.7l-1.7,3.2l-0.9,1.7l-1.6,3
						c-0.1,0.2-0.2,0.4-0.2,0.6v12.3c0,0.7,0.6,1.3,1.3,1.3h4.5c0.7,0,1.3,0.6,1.3,1.3v17.3c0,0.7-0.6,1.3-1.3,1.3h-4.5
						c-0.7,0-1.3,0.6-1.3,1.3v12.3c0,0.2,0.1,0.4,0.2,0.6l1.6,3l0.9,1.7l1.7,3.2c0.2,0.4,0.7,0.7,1.1,0.7h18.5
						c0.3,0,0.6-0.1,0.9-0.3l3.9-3.5l1.5-1.3c0.2-0.2,0.5-0.3,0.9-0.3h7.2c0.3,0,0.5,0.1,0.8,0.2l1.6,1.2c0.2,0.2,0.5,0.3,0.8,0.3
						h25.7c0.3,0,0.6,0.1,0.9,0.3l3.5,3.2c0.2,0.1,0.4,0.3,0.6,0.3c0.1,0,0.2,0,0.3,0h8.4c0.7,0,1.3-0.6,1.3-1.3V73.9
						c0-0.3-0.1-0.7-0.4-0.9l-1.8-1.7c-0.3-0.2-0.4-0.6-0.4-0.9v-4.9c0-0.7,0.6-1.3,1.3-1.3c0.7,0,1.3-0.6,1.3-1.3V47.3
						c0-0.7-0.6-1.3-1.3-1.3c-0.7,0-1.3-0.6-1.3-1.3v-3.8C101,40.5,101.2,40.1,101.5,39.8z M28.7,84.9c-0.4,0.2-0.8,0-1-0.3L24,77.2
						v-6.5c0-0.4,0.3-0.7,0.7-0.7c0.4,0,0.7,0.3,0.7,0.7v6.2L29,84C29.2,84.3,29,84.8,28.7,84.9z M29,26.9l-3.6,7.1v6.2
						c0,0.4-0.3,0.7-0.7,0.7c-0.4,0-0.7-0.3-0.7-0.7v-6.5l3.8-7.4c0.2-0.4,0.6-0.5,1-0.3C29,26.1,29.2,26.6,29,26.9z M101.6,77.9
						v4.9l-1.2,1.2v3.1c0,0.4-0.3,0.7-0.7,0.7c-0.4,0-0.7-0.3-0.7-0.7v-3.7l1.2-1.2v-3.7l-1.1-1.1c-0.3-0.3-0.3-0.7,0-1
						c0.3-0.3,0.7-0.3,1,0L101.6,77.9z M100.1,35.9c-0.1,0.1-0.3,0.2-0.5,0.2c-0.2,0-0.4-0.1-0.5-0.2c-0.3-0.3-0.3-0.7,0-1l1.1-1.1
						V30L99,28.8v-3.7c0-0.4,0.3-0.7,0.7-0.7c0.4,0,0.7,0.3,0.7,0.7v3.1l1.2,1.2v4.9L100.1,35.9z"/>
				</g>
				<g>
					<path class="st11" d="M93.3,34.8V78c0,1.7-1.4,3.1-3.2,3.1H32.3c-1.5,0-2.8-1-3.1-2.4c-0.1-0.2-0.1-0.5-0.1-0.7v-2.2
						c0,0.2,0,0.5,0.1,0.7c0.3,1.3,1.5,2.3,3,2.3H88c1.7,0,3.1-1.3,3.1-3V34.7c0-1.7-1.4-3-3.1-3h2.1C91.8,31.7,93.3,33.1,93.3,34.8
						z"/>
				</g>
				
					<linearGradient id="SVGID_6_" gradientUnits="userSpaceOnUse" x1="-181.3993" y1="572.2834" x2="-179.1081" y2="572.2834" gradientTransform="matrix(1 0 0 1 275.8885 -516.3544)">
					<stop  offset="0" style="stop-color:#000000"/>
					<stop  offset="0.1178" style="stop-color:#040404;stop-opacity:0.9058"/>
					<stop  offset="0.2424" style="stop-color:#111111;stop-opacity:0.8061"/>
					<stop  offset="0.3701" style="stop-color:#262626;stop-opacity:0.7039"/>
					<stop  offset="0.5001" style="stop-color:#444444;stop-opacity:0.5999"/>
					<stop  offset="0.6319" style="stop-color:#6A6A6A;stop-opacity:0.4945"/>
					<stop  offset="0.7651" style="stop-color:#999999;stop-opacity:0.388"/>
					<stop  offset="0.8969" style="stop-color:#CFCFCF;stop-opacity:0.2825"/>
					<stop  offset="1" style="stop-color:#FFFFFF;stop-opacity:0.2"/>
				</linearGradient>
				<path class="st12" d="M96.8,23.3v65.2h-2c-0.1,0-0.2,0-0.3,0V23.3c0.1,0,0.1,0,0.2,0H96.8z"/>
				<g>
					<g>
						<path class="st11" d="M88,32.4c1.3,0,2.3,1,2.3,2.3v42.3c0,1.3-1,2.3-2.3,2.3H32.2c-1.3,0-2.3-1-2.3-2.3V34.8
							c0-1.3,1-2.3,2.3-2.3H88 M88,31.7H32.2c-1.7,0-3.1,1.4-3.1,3.1v42.3c0,1.7,1.4,3.1,3.1,3.1H88c1.7,0,3.1-1.4,3.1-3.1V34.8
							C91.1,33.1,89.7,31.7,88,31.7L88,31.7z"/>
					</g>
				</g>
			</g>
			<g>
				<g>
					<circle class="st11" cx="16.1" cy="87.4" r="4.9"/>
				</g>
				<g>
					<circle class="st1" cx="16" cy="87.5" r="4.5"/>
					<path class="st13" d="M17.7,89.8l-0.6,0c-0.1,0-0.3,0.1-0.4,0.2l-0.4,0.4c-0.2,0.2-0.5,0.2-0.7,0L15.2,90
						c-0.1-0.1-0.2-0.2-0.4-0.2h-0.6c-0.3,0-0.5-0.2-0.5-0.5v-0.6c0-0.1-0.1-0.3-0.2-0.4l-0.4-0.4c-0.2-0.2-0.2-0.5,0-0.7l0.4-0.4
						c0.1-0.1,0.2-0.2,0.2-0.4v-0.6c0-0.3,0.2-0.5,0.5-0.5h0.6c0.1,0,0.3-0.1,0.4-0.2l0.4-0.4c0.2-0.2,0.5-0.2,0.7,0l0.4,0.4
						c0.1,0.1,0.2,0.2,0.4,0.2h0.6c0.3,0,0.5,0.2,0.5,0.5v0.6c0,0.1,0.1,0.3,0.2,0.4l0.4,0.4c0.2,0.2,0.2,0.5,0,0.7l-0.4,0.4
						c-0.1,0.1-0.2,0.2-0.2,0.4l0,0.6C18.3,89.6,18,89.8,17.7,89.8z"/>
					
						<linearGradient id="SVGID_7_" gradientUnits="userSpaceOnUse" x1="-561.3095" y1="2601.6011" x2="-557.0848" y2="2605.8259" gradientTransform="matrix(0.7071 0.7071 -0.7071 0.7071 2252.5098 -1358.0358)">
						<stop  offset="0" style="stop-color:#000000"/>
						<stop  offset="0.1256" style="stop-color:#040404;stop-opacity:0.8995"/>
						<stop  offset="0.2511" style="stop-color:#10100F;stop-opacity:0.7991"/>
						<stop  offset="0.3767" style="stop-color:#242322;stop-opacity:0.6986"/>
						<stop  offset="0.5025" style="stop-color:#403E3D;stop-opacity:0.598"/>
						<stop  offset="0.6284" style="stop-color:#65615F;stop-opacity:0.4973"/>
						<stop  offset="0.7544" style="stop-color:#918C8A;stop-opacity:0.3965"/>
						<stop  offset="0.8782" style="stop-color:#C5BEBB;stop-opacity:0.2974"/>
						<stop  offset="1" style="stop-color:#FFF7F2;stop-opacity:0.2"/>
					</linearGradient>
					<path class="st14" d="M17.7,89.8l-0.6,0c-0.1,0-0.3,0.1-0.4,0.2l-0.4,0.4c-0.2,0.2-0.5,0.2-0.7,0L15.2,90
						c-0.1-0.1-0.2-0.2-0.4-0.2h-0.6c-0.3,0-0.5-0.2-0.5-0.5v-0.6c0-0.1-0.1-0.3-0.2-0.4l-0.4-0.4c-0.2-0.2-0.2-0.5,0-0.7l0.4-0.4
						c0.1-0.1,0.2-0.2,0.2-0.4v-0.6c0-0.3,0.2-0.5,0.5-0.5h0.6c0.1,0,0.3-0.1,0.4-0.2l0.4-0.4c0.2-0.2,0.5-0.2,0.7,0l0.4,0.4
						c0.1,0.1,0.2,0.2,0.4,0.2h0.6c0.3,0,0.5,0.2,0.5,0.5v0.6c0,0.1,0.1,0.3,0.2,0.4l0.4,0.4c0.2,0.2,0.2,0.5,0,0.7l-0.4,0.4
						c-0.1,0.1-0.2,0.2-0.2,0.4l0,0.6C18.3,89.6,18,89.8,17.7,89.8z"/>
					
						<linearGradient id="SVGID_8_" gradientUnits="userSpaceOnUse" x1="-238.3261" y1="389.0161" x2="-234.1014" y2="393.2408" gradientTransform="matrix(1 0 0 1 252.2926 -303.5042)">
						<stop  offset="0" style="stop-color:#000000"/>
						<stop  offset="0.1256" style="stop-color:#040404;stop-opacity:0.8995"/>
						<stop  offset="0.2511" style="stop-color:#10100F;stop-opacity:0.7991"/>
						<stop  offset="0.3767" style="stop-color:#242322;stop-opacity:0.6986"/>
						<stop  offset="0.5025" style="stop-color:#403E3D;stop-opacity:0.598"/>
						<stop  offset="0.6284" style="stop-color:#65615F;stop-opacity:0.4973"/>
						<stop  offset="0.7544" style="stop-color:#918C8A;stop-opacity:0.3965"/>
						<stop  offset="0.8782" style="stop-color:#C5BEBB;stop-opacity:0.2974"/>
						<stop  offset="1" style="stop-color:#FFF7F2;stop-opacity:0.2"/>
					</linearGradient>
					<path class="st15" d="M18.8,87.9l-0.4,0.4c-0.1,0.1-0.2,0.2-0.2,0.4v0.6c0,0.3-0.2,0.5-0.5,0.5h-0.6c-0.1,0-0.3,0.1-0.4,0.2
						l-0.4,0.4c-0.2,0.2-0.5,0.2-0.7,0L15.2,90c-0.1-0.1-0.2-0.2-0.4-0.2h-0.6c-0.3,0-0.5-0.2-0.5-0.5v-0.6c0-0.1-0.1-0.3-0.2-0.4
						l-0.4-0.4c-0.2-0.2-0.2-0.5,0-0.7l0.4-0.4c0.1-0.1,0.2-0.2,0.2-0.4v-0.6c0-0.3,0.2-0.5,0.5-0.5h0.6c0.1,0,0.3-0.1,0.4-0.2
						l0.4-0.4c0.2-0.2,0.5-0.2,0.7,0l0.4,0.4c0.1,0.1,0.2,0.2,0.4,0.2h0.6c0.3,0,0.5,0.2,0.5,0.5v0.6c0,0.1,0.1,0.3,0.2,0.4l0.4,0.4
						C19,87.4,19,87.7,18.8,87.9z"/>
				</g>
			</g>
			<g>
				<g>
					<circle class="st11" cx="16.1" cy="24.4" r="4.9"/>
				</g>
				<g>
					<circle class="st1" cx="16" cy="24.5" r="4.5"/>
					<path class="st13" d="M17.7,26.8l-0.6,0c-0.1,0-0.3,0.1-0.4,0.2l-0.4,0.4c-0.2,0.2-0.5,0.2-0.7,0l-0.4-0.4
						c-0.1-0.1-0.2-0.2-0.4-0.2h-0.6c-0.3,0-0.5-0.2-0.5-0.5v-0.6c0-0.1-0.1-0.3-0.2-0.4l-0.4-0.4c-0.2-0.2-0.2-0.5,0-0.7l0.4-0.4
						c0.1-0.1,0.2-0.2,0.2-0.4v-0.6c0-0.3,0.2-0.5,0.5-0.5h0.6c0.1,0,0.3-0.1,0.4-0.2l0.4-0.4c0.2-0.2,0.5-0.2,0.7,0l0.4,0.4
						c0.1,0.1,0.2,0.2,0.4,0.2h0.6c0.3,0,0.5,0.2,0.5,0.5v0.6c0,0.1,0.1,0.3,0.2,0.4l0.4,0.4c0.2,0.2,0.2,0.5,0,0.7l-0.4,0.4
						c-0.1,0.1-0.2,0.2-0.2,0.4l0,0.6C18.3,26.5,18,26.8,17.7,26.8z"/>
					
						<linearGradient id="SVGID_9_" gradientUnits="userSpaceOnUse" x1="-605.8751" y1="2557.0356" x2="-601.6504" y2="2561.2603" gradientTransform="matrix(0.7071 0.7071 -0.7071 0.7071 2252.5098 -1358.0358)">
						<stop  offset="0" style="stop-color:#000000"/>
						<stop  offset="0.1256" style="stop-color:#040404;stop-opacity:0.8995"/>
						<stop  offset="0.2511" style="stop-color:#10100F;stop-opacity:0.7991"/>
						<stop  offset="0.3767" style="stop-color:#242322;stop-opacity:0.6986"/>
						<stop  offset="0.5025" style="stop-color:#403E3D;stop-opacity:0.598"/>
						<stop  offset="0.6284" style="stop-color:#65615F;stop-opacity:0.4973"/>
						<stop  offset="0.7544" style="stop-color:#918C8A;stop-opacity:0.3965"/>
						<stop  offset="0.8782" style="stop-color:#C5BEBB;stop-opacity:0.2974"/>
						<stop  offset="1" style="stop-color:#FFF7F2;stop-opacity:0.2"/>
					</linearGradient>
					<path class="st16" d="M17.7,26.8l-0.6,0c-0.1,0-0.3,0.1-0.4,0.2l-0.4,0.4c-0.2,0.2-0.5,0.2-0.7,0l-0.4-0.4
						c-0.1-0.1-0.2-0.2-0.4-0.2h-0.6c-0.3,0-0.5-0.2-0.5-0.5v-0.6c0-0.1-0.1-0.3-0.2-0.4l-0.4-0.4c-0.2-0.2-0.2-0.5,0-0.7l0.4-0.4
						c0.1-0.1,0.2-0.2,0.2-0.4v-0.6c0-0.3,0.2-0.5,0.5-0.5h0.6c0.1,0,0.3-0.1,0.4-0.2l0.4-0.4c0.2-0.2,0.5-0.2,0.7,0l0.4,0.4
						c0.1,0.1,0.2,0.2,0.4,0.2h0.6c0.3,0,0.5,0.2,0.5,0.5v0.6c0,0.1,0.1,0.3,0.2,0.4l0.4,0.4c0.2,0.2,0.2,0.5,0,0.7l-0.4,0.4
						c-0.1,0.1-0.2,0.2-0.2,0.4l0,0.6C18.3,26.5,18,26.8,17.7,26.8z"/>
					
						<linearGradient id="SVGID_10_" gradientUnits="userSpaceOnUse" x1="-238.3261" y1="325.9908" x2="-234.1014" y2="330.2155" gradientTransform="matrix(1 0 0 1 252.2926 -303.5042)">
						<stop  offset="0" style="stop-color:#000000"/>
						<stop  offset="0.1256" style="stop-color:#040404;stop-opacity:0.8995"/>
						<stop  offset="0.2511" style="stop-color:#10100F;stop-opacity:0.7991"/>
						<stop  offset="0.3767" style="stop-color:#242322;stop-opacity:0.6986"/>
						<stop  offset="0.5025" style="stop-color:#403E3D;stop-opacity:0.598"/>
						<stop  offset="0.6284" style="stop-color:#65615F;stop-opacity:0.4973"/>
						<stop  offset="0.7544" style="stop-color:#918C8A;stop-opacity:0.3965"/>
						<stop  offset="0.8782" style="stop-color:#C5BEBB;stop-opacity:0.2974"/>
						<stop  offset="1" style="stop-color:#FFF7F2;stop-opacity:0.2"/>
					</linearGradient>
					<path class="st17" d="M18.8,24.9l-0.4,0.4c-0.1,0.1-0.2,0.2-0.2,0.4v0.6c0,0.3-0.2,0.5-0.5,0.5h-0.6c-0.1,0-0.3,0.1-0.4,0.2
						l-0.4,0.4c-0.2,0.2-0.5,0.2-0.7,0l-0.4-0.4c-0.1-0.1-0.2-0.2-0.4-0.2h-0.6c-0.3,0-0.5-0.2-0.5-0.5v-0.6c0-0.1-0.1-0.3-0.2-0.4
						l-0.4-0.4c-0.2-0.2-0.2-0.5,0-0.7l0.4-0.4c0.1-0.1,0.2-0.2,0.2-0.4v-0.6c0-0.3,0.2-0.5,0.5-0.5h0.6c0.1,0,0.3-0.1,0.4-0.2
						l0.4-0.4c0.2-0.2,0.5-0.2,0.7,0l0.4,0.4c0.1,0.1,0.2,0.2,0.4,0.2h0.6c0.3,0,0.5,0.2,0.5,0.5v0.6c0,0.1,0.1,0.3,0.2,0.4l0.4,0.4
						C19,24.3,19,24.7,18.8,24.9z"/>
				</g>
			</g>
			<circle class="st1" cx="108.8" cy="56" r="5.3"/>
			<path class="st13" d="M112.3,56.2l-0.5,0.5c-0.1,0.1-0.2,0.3-0.2,0.4v0.7c0,0.3-0.3,0.6-0.6,0.6h-0.7c-0.2,0-0.3,0.1-0.4,0.2
				l-0.5,0.5c-0.2,0.2-0.6,0.2-0.9,0l-0.5-0.5c-0.1-0.1-0.3-0.2-0.4-0.2H107c-0.3,0-0.6-0.3-0.6-0.6v-0.7c0-0.2-0.1-0.3-0.2-0.4
				l-0.5-0.5c-0.2-0.2-0.2-0.6,0-0.9l0.5-0.5c0.1-0.1,0.2-0.3,0.2-0.4v-0.7c0-0.3,0.3-0.6,0.6-0.6h0.7c0.2,0,0.3-0.1,0.4-0.2
				l0.5-0.5c0.2-0.2,0.6-0.2,0.9,0l0.5,0.5c0.1,0.1,0.3,0.2,0.4,0.2h0.7c0.3,0,0.6,0.3,0.6,0.6v0.7c0,0.2,0.1,0.3,0.2,0.4l0.5,0.5
				C112.6,55.6,112.6,55.9,112.3,56.2z"/>
			
				<linearGradient id="SVGID_11_" gradientUnits="userSpaceOnUse" x1="-169.1971" y1="569.753" x2="-164.2981" y2="574.6519" gradientTransform="matrix(1 0 0 1 275.8885 -516.3544)">
				<stop  offset="0" style="stop-color:#000000"/>
				<stop  offset="0.1256" style="stop-color:#040404;stop-opacity:0.8995"/>
				<stop  offset="0.2511" style="stop-color:#10100F;stop-opacity:0.7991"/>
				<stop  offset="0.3767" style="stop-color:#242322;stop-opacity:0.6986"/>
				<stop  offset="0.5025" style="stop-color:#403E3D;stop-opacity:0.598"/>
				<stop  offset="0.6284" style="stop-color:#65615F;stop-opacity:0.4973"/>
				<stop  offset="0.7544" style="stop-color:#918C8A;stop-opacity:0.3965"/>
				<stop  offset="0.8782" style="stop-color:#C5BEBB;stop-opacity:0.2974"/>
				<stop  offset="1" style="stop-color:#FFF7F2;stop-opacity:0.2"/>
			</linearGradient>
			<path class="st18" d="M112.3,56.2l-0.5,0.5c-0.1,0.1-0.2,0.3-0.2,0.4v0.7c0,0.3-0.3,0.6-0.6,0.6h-0.7c-0.2,0-0.3,0.1-0.4,0.2
				l-0.5,0.5c-0.2,0.2-0.6,0.2-0.9,0l-0.5-0.5c-0.1-0.1-0.3-0.2-0.4-0.2H107c-0.3,0-0.6-0.3-0.6-0.6v-0.7c0-0.2-0.1-0.3-0.2-0.4
				l-0.5-0.5c-0.2-0.2-0.2-0.6,0-0.9l0.5-0.5c0.1-0.1,0.2-0.3,0.2-0.4v-0.7c0-0.3,0.3-0.6,0.6-0.6h0.7c0.2,0,0.3-0.1,0.4-0.2
				l0.5-0.5c0.2-0.2,0.6-0.2,0.9,0l0.5,0.5c0.1,0.1,0.3,0.2,0.4,0.2h0.7c0.3,0,0.6,0.3,0.6,0.6v0.7c0,0.2,0.1,0.3,0.2,0.4l0.5,0.5
				C112.6,55.6,112.6,55.9,112.3,56.2z"/>
			
				<linearGradient id="SVGID_12_" gradientUnits="userSpaceOnUse" x1="1475.2388" y1="-770.1718" x2="1480.0896" y2="-765.3209" gradientTransform="matrix(0.7071 -0.7071 0.7071 0.7071 -392.8122 1643.6791)">
				<stop  offset="0" style="stop-color:#000000"/>
				<stop  offset="0.1256" style="stop-color:#040404;stop-opacity:0.8995"/>
				<stop  offset="0.2511" style="stop-color:#10100F;stop-opacity:0.7991"/>
				<stop  offset="0.3767" style="stop-color:#242322;stop-opacity:0.6986"/>
				<stop  offset="0.5025" style="stop-color:#403E3D;stop-opacity:0.598"/>
				<stop  offset="0.6284" style="stop-color:#65615F;stop-opacity:0.4973"/>
				<stop  offset="0.7544" style="stop-color:#918C8A;stop-opacity:0.3965"/>
				<stop  offset="0.8782" style="stop-color:#C5BEBB;stop-opacity:0.2974"/>
				<stop  offset="1" style="stop-color:#FFF7F2;stop-opacity:0.2"/>
			</linearGradient>
			<path class="st19" d="M111.3,53.9v0.7c0.4,0.2,0.4,0.3,0.6,0.4l0.5,0.5c0.2,0.2,0.2,0.6,0,0.9l-0.5,0.5c-0.1,0.1-0.2,0.3-0.1,0.4
				v0.7c0,0.3-0.6,0.4-0.6,0.4h-0.7c0,0-0.3,0.2-0.4,0.3l-0.5,0.5c-0.2,0.2-0.6,0.2-0.9,0l-0.5-0.5c-0.1-0.1-0.3-0.2-0.4-0.3H107
				c-0.3,0.2-0.6-0.1-0.6-0.4v-0.7c0-0.2,0-0.3-0.2-0.4l-0.5-0.5c-0.2-0.2-0.2-0.6,0-0.9l0.5-0.5c0.1-0.1,0.2-0.3,0.6-0.4v-0.7
				c-0.4-0.3,0.2-0.8,0.2-0.8h0.7c0,0,0.3,0.1,0.4,0l0.5-0.5c0.2-0.2,0.6-0.2,0.9,0l0.5,0.5c0.1,0.1,0.3,0.2,0.4,0h0.7
				C111.4,53.3,111.6,53.6,111.3,53.9z"/>
			
				<linearGradient id="SVGID_13_" gradientUnits="userSpaceOnUse" x1="4220.585" y1="3322.0884" x2="4223.8574" y2="3322.0884" gradientTransform="matrix(-1 0 0 -1 4226.6597 3408.3767)">
				<stop  offset="0" style="stop-color:#000000"/>
				<stop  offset="0.1178" style="stop-color:#040404;stop-opacity:0.9058"/>
				<stop  offset="0.2424" style="stop-color:#111010;stop-opacity:0.8061"/>
				<stop  offset="0.3701" style="stop-color:#262524;stop-opacity:0.7039"/>
				<stop  offset="0.5001" style="stop-color:#444240;stop-opacity:0.5999"/>
				<stop  offset="0.6319" style="stop-color:#6A6765;stop-opacity:0.4945"/>
				<stop  offset="0.7651" style="stop-color:#999491;stop-opacity:0.388"/>
				<stop  offset="0.8969" style="stop-color:#CFC9C5;stop-opacity:0.2825"/>
				<stop  offset="1" style="stop-color:#FFF7F2;stop-opacity:0.2"/>
			</linearGradient>
			<polygon class="st20" points="6.1,78 2.8,78 2.8,94.6 6.1,94.6 			"/>
			
				<linearGradient id="SVGID_14_" gradientUnits="userSpaceOnUse" x1="-282.183" y1="602.6425" x2="-278.9106" y2="602.6425" gradientTransform="matrix(1 0 0 1 291.1244 -516.3544)">
				<stop  offset="0" style="stop-color:#000000"/>
				<stop  offset="0.1178" style="stop-color:#040404;stop-opacity:0.9058"/>
				<stop  offset="0.2424" style="stop-color:#111010;stop-opacity:0.8061"/>
				<stop  offset="0.3701" style="stop-color:#262524;stop-opacity:0.7039"/>
				<stop  offset="0.5001" style="stop-color:#444240;stop-opacity:0.5999"/>
				<stop  offset="0.6319" style="stop-color:#6A6765;stop-opacity:0.4945"/>
				<stop  offset="0.7651" style="stop-color:#999491;stop-opacity:0.388"/>
				<stop  offset="0.8969" style="stop-color:#CFC9C5;stop-opacity:0.2825"/>
				<stop  offset="1" style="stop-color:#FFF7F2;stop-opacity:0.2"/>
			</linearGradient>
			<rect x="8.9" y="78" class="st21" width="3.3" height="16.6"/>
			
				<linearGradient id="SVGID_15_" gradientUnits="userSpaceOnUse" x1="4220.585" y1="3379.6782" x2="4223.8574" y2="3379.6782" gradientTransform="matrix(-1 0 0 -1 4226.6597 3408.3767)">
				<stop  offset="0" style="stop-color:#000000"/>
				<stop  offset="0.1178" style="stop-color:#040404;stop-opacity:0.9058"/>
				<stop  offset="0.2424" style="stop-color:#111010;stop-opacity:0.8061"/>
				<stop  offset="0.3701" style="stop-color:#262524;stop-opacity:0.7039"/>
				<stop  offset="0.5001" style="stop-color:#444240;stop-opacity:0.5999"/>
				<stop  offset="0.6319" style="stop-color:#6A6765;stop-opacity:0.4945"/>
				<stop  offset="0.7651" style="stop-color:#999491;stop-opacity:0.388"/>
				<stop  offset="0.8969" style="stop-color:#CFC9C5;stop-opacity:0.2825"/>
				<stop  offset="1" style="stop-color:#FFF7F2;stop-opacity:0.2"/>
			</linearGradient>
			<polygon class="st22" points="6.1,20.4 2.8,20.4 2.8,37 6.1,37 			"/>
			
				<linearGradient id="SVGID_16_" gradientUnits="userSpaceOnUse" x1="-282.183" y1="545.0527" x2="-278.9106" y2="545.0527" gradientTransform="matrix(1 0 0 1 291.1244 -516.3544)">
				<stop  offset="0" style="stop-color:#000000"/>
				<stop  offset="0.1178" style="stop-color:#040404;stop-opacity:0.9058"/>
				<stop  offset="0.2424" style="stop-color:#111010;stop-opacity:0.8061"/>
				<stop  offset="0.3701" style="stop-color:#262524;stop-opacity:0.7039"/>
				<stop  offset="0.5001" style="stop-color:#444240;stop-opacity:0.5999"/>
				<stop  offset="0.6319" style="stop-color:#6A6765;stop-opacity:0.4945"/>
				<stop  offset="0.7651" style="stop-color:#999491;stop-opacity:0.388"/>
				<stop  offset="0.8969" style="stop-color:#CFC9C5;stop-opacity:0.2825"/>
				<stop  offset="1" style="stop-color:#FFF7F2;stop-opacity:0.2"/>
			</linearGradient>
			<rect x="8.9" y="20.4" class="st23" width="3.3" height="16.6"/>
			
				<linearGradient id="SVGID_17_" gradientUnits="userSpaceOnUse" x1="4214.7241" y1="3351.1038" x2="4216.4048" y2="3351.1038" gradientTransform="matrix(-1 0 0 -1 4226.6597 3408.3767)">
				<stop  offset="0" style="stop-color:#000000"/>
				<stop  offset="0.1178" style="stop-color:#040404;stop-opacity:0.9058"/>
				<stop  offset="0.2424" style="stop-color:#111010;stop-opacity:0.8061"/>
				<stop  offset="0.3701" style="stop-color:#262524;stop-opacity:0.7039"/>
				<stop  offset="0.5001" style="stop-color:#444240;stop-opacity:0.5999"/>
				<stop  offset="0.6319" style="stop-color:#6A6765;stop-opacity:0.4945"/>
				<stop  offset="0.7651" style="stop-color:#999491;stop-opacity:0.388"/>
				<stop  offset="0.8969" style="stop-color:#CFC9C5;stop-opacity:0.2825"/>
				<stop  offset="1" style="stop-color:#FFF7F2;stop-opacity:0.2"/>
			</linearGradient>
			<path class="st24" d="M11.9,53.4h-0.6c-0.6,0-1.1,0.5-1.1,1.1V60c0,0.6,0.5,1.1,1.1,1.1h0.6V53.4z"/>
			
				<linearGradient id="SVGID_18_" gradientUnits="userSpaceOnUse" x1="-276.3223" y1="573.6302" x2="-275.5003" y2="573.6302" gradientTransform="matrix(1 0 0 1 291.1244 -516.3544)">
				<stop  offset="0" style="stop-color:#000000"/>
				<stop  offset="0.1178" style="stop-color:#040404;stop-opacity:0.9058"/>
				<stop  offset="0.2424" style="stop-color:#111010;stop-opacity:0.8061"/>
				<stop  offset="0.3701" style="stop-color:#262524;stop-opacity:0.7039"/>
				<stop  offset="0.5001" style="stop-color:#444240;stop-opacity:0.5999"/>
				<stop  offset="0.6319" style="stop-color:#6A6765;stop-opacity:0.4945"/>
				<stop  offset="0.7651" style="stop-color:#999491;stop-opacity:0.388"/>
				<stop  offset="0.8969" style="stop-color:#CFC9C5;stop-opacity:0.2825"/>
				<stop  offset="1" style="stop-color:#FFF7F2;stop-opacity:0.2"/>
			</linearGradient>
			<rect x="14.8" y="53.4" class="st25" width="0.8" height="7.7"/>
		</g>
	</g>
	<g>
		<g>
			<defs>
				<path id="SVGID_19_" d="M38.3,73.5h20.8c0.5,0,0.9,0.2,1.2,0.5c0.2,0.3,0.4,0.6,0.4,1l0,0c0,0.4,0.2,0.8,0.6,1.1
					c0.3,0.2,0.7,0.4,1.1,0.4h15.1c3.5,0,6.4-2.6,6.4-5.8V39.3c0-1.6-0.7-3.1-1.9-4.1c-1.2-1-2.8-1.7-4.5-1.7H62
					c-0.7,0-1.3,0.5-1.3,1.2v0c0,0.7-0.6,1.2-1.3,1.2H38.3c-2.2,0-4,1.6-4,3.6v30.5c0,1,0.4,1.9,1.2,2.5S37.2,73.5,38.3,73.5z"/>
			</defs>
			<clipPath id="SVGID_20_">
				<use xlink:href="#SVGID_19_"  style="overflow:visible;"/>
			</clipPath>
			<g class="st26">
				<path class="st27" d="M82,39.4v31.2c0,4-3.3,7.3-7.3,7.3H43.5c-4,0-7.3-3.3-7.3-7.3v-8.9c0-0.7,0.6-1.3,1.3-1.3h0.1
					c0.7,0,1.3-0.6,1.3-1.3v-9.6c0-0.7-0.6-1.3-1.3-1.3h-0.1c-0.7,0-1.3-0.6-1.3-1.3v-7.6c0-4,3.3-7.3,7.3-7.3h31.2
					C78.7,32.1,82,35.4,82,39.4z"/>
				<g class="st28">
					<path class="st11" d="M79.5,40.1v29.7c0,1.4-0.5,2.6-1.4,3.6l-1-1c0.9-1,1.4-2.2,1.4-3.6V41.2c0-3-2.4-5.3-5.3-5.3h-27
						c-1.5,0-2.9,0.6-3.9,1.7l-1-1c1-1,2.3-1.7,3.9-1.7h29.1C77.1,34.8,79.5,37.2,79.5,40.1z"/>
				</g>
				<path class="st29" d="M78.1,73.4c-1,1.1-2.4,1.7-3.9,1.7l-29.1,0c-2.9,0-5.3-2.4-5.3-5.3l0-29.7c0-1.4,0.5-2.7,1.4-3.6l1,1
					c-0.9,1-1.5,2.2-1.5,3.7l0,27.6c0,3,2.4,5.3,5.4,5.3l27,0c1.6,0,3-0.7,4-1.7L78.1,73.4z"/>
				<linearGradient id="SVGID_21_" gradientUnits="userSpaceOnUse" x1="82.3287" y1="54.9649" x2="36.5573" y2="54.9649">
					<stop  offset="0" style="stop-color:#AFB7BA"/>
					<stop  offset="0.9893" style="stop-color:#FFFFFF"/>
				</linearGradient>
				<path class="st30" d="M82,39.4v31.2c0,4-3.3,7.3-7.3,7.3H43.5c-4,0-7.3-3.3-7.3-7.3v-8.9c0-0.7,0.6-1.3,1.3-1.3h0.1
					c0.7,0,1.3-0.6,1.3-1.3v-9.6c0-0.7-0.6-1.3-1.3-1.3h-0.1c-0.7,0-1.3-0.6-1.3-1.3v-7.6c0-4,3.3-7.3,7.3-7.3h31.2
					C78.7,32.1,82,35.4,82,39.4z"/>
				<path class="st27" d="M73.1,74.1H46.2c-3,0-5.4-2.4-5.4-5.4V41.2c0-3,2.4-5.4,5.4-5.4h26.9c3,0,5.4,2.4,5.4,5.4v27.5
					C78.5,71.7,76.1,74.1,73.1,74.1z"/>
				<g>
					<linearGradient id="SVGID_22_" gradientUnits="userSpaceOnUse" x1="90.1699" y1="54.963" x2="38.1566" y2="54.963">
						<stop  offset="0" style="stop-color:#AFB7BA"/>
						<stop  offset="0.9893" style="stop-color:#FFFFFF"/>
					</linearGradient>
					<path class="st31" d="M73.1,74.1H46.2c-3,0-5.4-2.4-5.4-5.4V41.2c0-3,2.4-5.4,5.4-5.4h26.9c3,0,5.4,2.4,5.4,5.4v27.5
						C78.5,71.7,76.1,74.1,73.1,74.1z"/>
				</g>
			</g>
		</g>
		<g>
			<g>
				<path class="st32" d="M38.2,74c-1.2,0-2.3-0.4-3.1-1.2l0.7-0.7c0.7,0.6,1.5,0.9,2.5,0.9V74z"/>
			</g>
			<g>
				<path class="st33" d="M60.3,74c-0.3-0.3-0.7-0.5-1.2-0.5"/>
			</g>
			<g>
				<path class="st11" d="M60.9,76.5c-0.5-0.4-0.7-0.9-0.7-1.5c0-0.3-0.1-0.5-0.3-0.6l0.7-0.7c0.3,0.4,0.5,0.8,0.5,1.3
					c0,0.3,0.1,0.5,0.4,0.7L60.9,76.5z"/>
			</g>
			<g>
				<path class="st32" d="M62.3,76.9c-0.5,0-1-0.2-1.4-0.5l0.6-0.8c0.2,0.2,0.5,0.3,0.8,0.3V76.9z"/>
			</g>
			<g>
				<rect x="38.2" y="73" class="st32" width="20.8" height="1"/>
			</g>
			<g>
				<rect x="62.3" y="75.9" class="st32" width="15.1" height="1"/>
			</g>
			<g>
				<path class="st32" d="M77.4,76.9v-1c3.3,0,5.9-2.4,5.9-5.3h1C84.3,74.1,81.2,76.9,77.4,76.9z"/>
			</g>
			<g>
				<rect x="83.3" y="39.3" class="st32" width="1" height="31.4"/>
			</g>
			<g>
				<path class="st32" d="M84.3,39.3h-1c0-1.4-0.6-2.7-1.7-3.7l0.7-0.7C83.6,36,84.3,37.6,84.3,39.3z"/>
			</g>
			<g>
				<path class="st11" d="M81.6,35.6c-1.1-1-2.6-1.6-4.2-1.6v-1c1.8,0,3.6,0.6,4.9,1.8L81.6,35.6z"/>
			</g>
			<g>
				<path class="st11" d="M35.1,72.8c-0.9-0.8-1.3-1.8-1.3-2.9V39.4c0-2.3,2-4.1,4.5-4.1h21.2c0.4,0,0.8-0.3,0.8-0.7
					c0-0.9,0.8-1.7,1.8-1.7h15.4v1H62c-0.4,0-0.8,0.3-0.8,0.7c0,0.9-0.8,1.7-1.8,1.7H38.2c-1.9,0-3.5,1.4-3.5,3.1v30.5
					c0,0.8,0.4,1.6,1,2.2L35.1,72.8z"/>
			</g>
		</g>
	</g>
</g>
</svg>
