<?xml version="1.0" encoding="utf-8"?>
<!-- Generator: Adobe Illustrator 23.1.1, SVG Export Plug-In . SVG Version: 6.00 Build 0)  -->
<svg version="1.1" id="Layer_1" xmlns="http://www.w3.org/2000/svg" xmlns:xlink="http://www.w3.org/1999/xlink" x="0px" y="0px"
	 viewBox="0 0 224.3 162.8" style="enable-background:new 0 0 224.3 162.8;" xml:space="preserve">
<style type="text/css">
	.st400{fill:#1E1E1D;}
	.st401{fill:#F6F6FB;}
	.st402{fill:#D5D6DC;}
	.st403{fill:#141515;}
	.st404{opacity:0.5;fill:url(#SVGID_1_);}
	.st5{opacity:0.47;fill:url(#SVGID_2_);}
	.st6{fill:none;stroke:#D5D6DC;stroke-miterlimit:10;}
	.st7{fill:#EA6325;}
	.st8{opacity:0.3;fill:#1E1E1D;}
	.st9{fill:#080808;}
	.st10{fill:#F7F8F9;}
	.st11{opacity:0.1;fill:url(#SVGID_3_);}
	.st12{opacity:0.2;fill:url(#SVGID_4_);}
	.st13{opacity:0.2;fill:url(#SVGID_5_);}
	.st14{opacity:0.2;fill:url(#SVGID_6_);}
	.st15{opacity:0.39;fill:url(#SVGID_7_);}
	.st16{fill:url(#SVGID_8_);}
	.st17{opacity:0.2;fill:url(#SVGID_9_);}
	.st18{opacity:0.2;fill:url(#SVGID_10_);}
	.st19{opacity:0.39;fill:url(#SVGID_11_);}
	.st20{opacity:0.39;fill:url(#SVGID_12_);}
	.st21{opacity:0.39;fill:url(#SVGID_13_);}
	.st22{opacity:0.39;fill:url(#SVGID_14_);}
	.st23{opacity:0.2;fill:url(#SVGID_15_);}
	.st24{opacity:0.2;fill:url(#SVGID_16_);}
	.st25{opacity:0.39;fill:url(#SVGID_17_);}
	.st26{opacity:0.39;fill:url(#SVGID_18_);}
	.st27{opacity:0.39;fill:url(#SVGID_19_);}
	.st28{fill:#F9F6F1;}
	.st29{opacity:7.000000e-02;fill:#010101;}
	.st30{opacity:7.000000e-02;fill:url(#SVGID_20_);}
	.st31{opacity:7.000000e-02;fill:url(#SVGID_21_);}
	.st32{opacity:7.000000e-02;fill:url(#SVGID_22_);}
	.st33{opacity:7.000000e-02;fill:url(#SVGID_23_);}
	.st34{opacity:7.000000e-02;fill:url(#SVGID_24_);}
	.st35{opacity:7.000000e-02;fill:url(#SVGID_25_);}
	.st36{fill:#AAAEB3;}
	.st37{opacity:0.8;}
	.st38{clip-path:url(#SVGID_27_);}
	.st39{fill:none;stroke:#FFFFFF;stroke-width:67;stroke-miterlimit:10;}
	.st40{fill:#DBD9DE;}
	.st41{opacity:0.39;fill:url(#SVGID_28_);}
	.st42{opacity:7.000000e-02;fill:url(#SVGID_29_);}
	.st43{opacity:7.000000e-02;fill:url(#SVGID_30_);}
	.st44{opacity:7.000000e-02;fill:url(#SVGID_31_);}
	.st45{opacity:7.000000e-02;fill:url(#SVGID_32_);}
	.st46{fill:#FFFFFF;}
	.st47{opacity:0.39;fill:url(#SVGID_33_);}
	.st48{opacity:7.000000e-02;fill:url(#SVGID_34_);}
	.st49{opacity:7.000000e-02;fill:url(#SVGID_35_);}
	.st50{opacity:0.3;fill:url(#SVGID_36_);}
	.st51{fill:#BFBDBD;}
	.st52{opacity:0.39;fill:url(#SVGID_37_);}
	.st53{opacity:7.000000e-02;fill:url(#SVGID_38_);}
	.st54{opacity:7.000000e-02;fill:url(#SVGID_39_);}
</style>
<g>
	<path class="st400" d="M213.1,0v164H4.4C2,164,0,162,0,159.6V4.4C0,2,2,0,4.4,0H213.1z"/>
	<path class="st401" d="M199.7,29.6v11.6c0,0.4-0.4,0.8-0.8,0.8h-7c-5.5-8.5-12.8-15.8-21.3-21.3v-7.1c0-0.4,0.4-0.8,0.8-0.8H183
		c0.5,0,1,0.2,1.4,0.6c5.7,5.7,9.1,9.1,14.8,14.8C199.5,28.6,199.7,29.1,199.7,29.6z"/>
	<path class="st400" d="M219.8,14.3V17c0,0.9-0.7,1.5-1.5,1.5h-9.8v-5.8h9.8C219.1,12.8,219.8,13.5,219.8,14.3z"/>
	<rect x="213.1" y="21.6" class="st400" width="11.1" height="142.3"/>
	<path class="st402" d="M10.1,0.5v5.6c0,1.8-1.4,3.2-3.2,3.2H0.7V4.5c0-2.2,1.8-4,4-4H10.1z"/>
	<path class="st402" d="M10.1,157.5v5.8H4.5c-2.1,0-3.8-1.7-3.8-3.8v-4.6h6.8C9,154.8,10.1,156,10.1,157.5z"/>
	<path class="st402" d="M207.7,144.9h5.4v5.8h-5.4c-0.8,0-1.5-0.7-1.5-1.5v-2.7C206.2,145.6,206.8,144.9,207.7,144.9z"/>
	<path class="st403" d="M108.3,14.7L94.8,3.2H20.5L5.1,18.6v133.1h5.6c5,0,9,4.1,9,9.1v0h82v-8.1H118l55.6-23.8l5.3-42.1l-19-54
		l-30.1-18.4L108.3,14.7z"/>
	<linearGradient id="SVGID_1_" gradientUnits="userSpaceOnUse" x1="7.1147" y1="82.0099" x2="20.8272" y2="82.0099">
		<stop  offset="0" style="stop-color:#000000"/>
		<stop  offset="0.1256" style="stop-color:#040404;stop-opacity:0.8995"/>
		<stop  offset="0.2511" style="stop-color:#100F0F;stop-opacity:0.7991"/>
		<stop  offset="0.3767" style="stop-color:#242322;stop-opacity:0.6986"/>
		<stop  offset="0.5025" style="stop-color:#403E3D;stop-opacity:0.598"/>
		<stop  offset="0.6284" style="stop-color:#65615F;stop-opacity:0.4973"/>
		<stop  offset="0.7544" style="stop-color:#918C89;stop-opacity:0.3965"/>
		<stop  offset="0.8782" style="stop-color:#C5BEBA;stop-opacity:0.2974"/>
		<stop  offset="1" style="stop-color:#FFF6F1;stop-opacity:0.2"/>
	</linearGradient>
	<path class="st404" d="M108.3,14.7L94.8,3.2H20.5L5.1,18.6v133.1h5.6c5,0,9,4.1,9,9.1v0h82v-8.1H118l55.6-23.8l5.3-42.1l-19-54
		l-30.1-18.4L108.3,14.7z"/>
	<path class="st402" d="M207.7,12.8h5.4v5.8h-5.4c-0.8,0-1.5-0.7-1.5-1.5v-2.7C206.2,13.5,206.8,12.8,207.7,12.8z"/>
	<path class="st402" d="M105.8,6.9V1.5h5.7v5.5c0,0.9-0.7,1.5-1.5,1.5h-2.7C106.5,8.5,105.8,7.8,105.8,6.9z"/>
	<path class="st402" d="M111.9,157.4v5.5h-5.7v-5.5c0-0.9,0.7-1.5,1.5-1.5h2.7C111.2,155.8,111.9,156.5,111.9,157.4z"/>
	<ellipse class="st402" cx="130.9" cy="81.9" rx="72.9" ry="73.1"/>
	
		<linearGradient id="SVGID_2_" gradientUnits="userSpaceOnUse" x1="2490.0449" y1="-1447.4224" x2="2635.7754" y2="-1447.4224" gradientTransform="matrix(-1 0 0 -1 2693.7749 -1365.5302)">
		<stop  offset="0" style="stop-color:#000000;stop-opacity:0"/>
		<stop  offset="0.1256" style="stop-color:#040404;stop-opacity:2.511660e-02"/>
		<stop  offset="0.2511" style="stop-color:#100F0F;stop-opacity:5.021952e-02"/>
		<stop  offset="0.3767" style="stop-color:#242322;stop-opacity:7.534674e-02"/>
		<stop  offset="0.5025" style="stop-color:#403E3D;stop-opacity:0.1005"/>
		<stop  offset="0.6284" style="stop-color:#65615F;stop-opacity:0.1257"/>
		<stop  offset="0.7544" style="stop-color:#918C89;stop-opacity:0.1509"/>
		<stop  offset="0.8782" style="stop-color:#C5BEBA;stop-opacity:0.1756"/>
		<stop  offset="1" style="stop-color:#FFF6F1;stop-opacity:0.2"/>
	</linearGradient>
	<ellipse class="st5" cx="130.9" cy="81.9" rx="72.9" ry="73.1"/>
	<path class="st402" d="M101.2,12.8c-1.9,0.7-3.8,1.4-5.6,2.3c-9,4-22.2,11.9-31.1,24.2c-1.5-1.6-6.9-7.7-17-8.1c-0.4,0-0.9,0-1.3,0
		c-11,0-23.5,8.3-24.7,22.2c-0.1,1.6-0.1,3.2,0,4.9c0.2,2.5,3,35.4,3,35.4l-4.8,4.7H7.2V21.2l4.9-4.9l75.3-1.1l7.4-6
		C98.6,6.3,101.2,11.2,101.2,12.8z"/>
	<polygon class="st402" points="94.2,7 86.3,13.3 14.2,14.2 21.3,7 	"/>
	<path class="st6" d="M55.8,53.2c0,4.6-3.7,8.3-8.3,8.3c-0.4,0-0.7,0-1.1-0.1c-3.7-0.5-6.7-3.4-7.1-7.2v0c0-0.3-0.1-0.7-0.1-1.1
		c0-4.6,3.7-8.3,8.3-8.3c1.2,0,2.4,0.3,3.5,0.8C53.9,47,55.8,49.9,55.8,53.2z"/>
	<polygon class="st7" points="19.7,149.6 7.2,149.6 7.2,100.1 19.7,100.1 31.1,106.7 31.1,143.4 	"/>
	<polygon class="st8" points="113.6,148.2 88.2,160 84.5,152.1 109.9,140.3 	"/>
	<polygon class="st8" points="84.4,159 84.5,150.7 103.2,150.7 103.2,159 	"/>
	<g>
		<path class="st401" d="M173,150.1L173,150.1c-0.5-0.5-0.5-1.4,0-1.9l26.4-26.5c0.5-0.5,1.4-0.5,1.9,0v0c0.5,0.5,0.5,1.4,0,1.9
			l-26.4,26.5C174.4,150.6,173.6,150.6,173,150.1z"/>
	</g>
	<rect x="213.1" y="21.6" class="st9" width="2.3" height="142.3"/>
	<rect x="213.1" y="12.8" class="st9" width="2.3" height="5.8"/>
	<path class="st402" d="M15.4,106.1L15.4,106.1c1.7,0,3-1.3,3-3l0-3h-6v3C12.4,104.7,13.7,106.1,15.4,106.1z"/>
	<g>
		<rect x="8.9" y="109.8" class="st10" width="3.9" height="3.8"/>
	</g>
	<g>
		<rect x="15" y="109.8" class="st10" width="3.9" height="3.8"/>
	</g>
	<g>
		<rect x="8.9" y="115.8" class="st10" width="3.9" height="3.8"/>
	</g>
	<g>
		<rect x="15" y="115.8" class="st10" width="3.9" height="3.8"/>
	</g>
	<g>
		<rect x="8.9" y="121.7" class="st10" width="3.9" height="3.8"/>
	</g>
	<g>
		<rect x="15" y="121.7" class="st10" width="3.9" height="3.8"/>
	</g>
	<g>
		<rect x="8.9" y="127.7" class="st10" width="3.9" height="3.8"/>
	</g>
	<g>
		<rect x="15" y="127.7" class="st10" width="3.9" height="3.8"/>
	</g>
	<linearGradient id="SVGID_3_" gradientUnits="userSpaceOnUse" x1="19.6785" y1="124.8374" x2="24.4497" y2="124.8374">
		<stop  offset="0" style="stop-color:#000000"/>
		<stop  offset="0.9988" style="stop-color:#000000;stop-opacity:0.201"/>
		<stop  offset="1" style="stop-color:#000000;stop-opacity:0.2"/>
	</linearGradient>
	<polygon class="st11" points="24.4,147 19.7,149.6 19.7,100.1 24.4,102.9 	"/>
	<rect x="27.1" y="7" class="st402" width="17.2" height="12.9"/>
	<linearGradient id="SVGID_4_" gradientUnits="userSpaceOnUse" x1="44.2568" y1="10.4287" x2="54.9642" y2="10.4287">
		<stop  offset="0" style="stop-color:#000000"/>
		<stop  offset="0.1256" style="stop-color:#040404;stop-opacity:0.8995"/>
		<stop  offset="0.2511" style="stop-color:#100F0F;stop-opacity:0.7991"/>
		<stop  offset="0.3767" style="stop-color:#242322;stop-opacity:0.6986"/>
		<stop  offset="0.5025" style="stop-color:#403E3D;stop-opacity:0.598"/>
		<stop  offset="0.6284" style="stop-color:#65615F;stop-opacity:0.4973"/>
		<stop  offset="0.7544" style="stop-color:#918C89;stop-opacity:0.3965"/>
		<stop  offset="0.8782" style="stop-color:#C5BEBA;stop-opacity:0.2974"/>
		<stop  offset="1" style="stop-color:#FFF6F1;stop-opacity:0.2"/>
	</linearGradient>
	<polygon class="st12" points="44.3,7 44.3,13.8 55,13.7 55,7 	"/>
	
		<linearGradient id="SVGID_5_" gradientUnits="userSpaceOnUse" x1="1642.3389" y1="-1592.1187" x2="1655.2488" y2="-1592.1187" gradientTransform="matrix(-1 0 0 -1 1669.4076 -1581.4982)">
		<stop  offset="0" style="stop-color:#000000"/>
		<stop  offset="0.1256" style="stop-color:#040404;stop-opacity:0.8995"/>
		<stop  offset="0.2511" style="stop-color:#100F0F;stop-opacity:0.7991"/>
		<stop  offset="0.3767" style="stop-color:#242322;stop-opacity:0.6986"/>
		<stop  offset="0.5025" style="stop-color:#403E3D;stop-opacity:0.598"/>
		<stop  offset="0.6284" style="stop-color:#65615F;stop-opacity:0.4973"/>
		<stop  offset="0.7544" style="stop-color:#918C89;stop-opacity:0.3965"/>
		<stop  offset="0.8782" style="stop-color:#C5BEBA;stop-opacity:0.2974"/>
		<stop  offset="1" style="stop-color:#FFF6F1;stop-opacity:0.2"/>
	</linearGradient>
	<polygon class="st13" points="27.1,14 27.1,7 21.3,7 14.2,14.2 	"/>
	<linearGradient id="SVGID_6_" gradientUnits="userSpaceOnUse" x1="35.6627" y1="17.5281" x2="35.6627" y2="19.1235">
		<stop  offset="0" style="stop-color:#000000"/>
		<stop  offset="0.1256" style="stop-color:#040404;stop-opacity:0.8995"/>
		<stop  offset="0.2511" style="stop-color:#100F0F;stop-opacity:0.7991"/>
		<stop  offset="0.3767" style="stop-color:#242322;stop-opacity:0.6986"/>
		<stop  offset="0.5025" style="stop-color:#403E3D;stop-opacity:0.598"/>
		<stop  offset="0.6284" style="stop-color:#65615F;stop-opacity:0.4973"/>
		<stop  offset="0.7544" style="stop-color:#918C89;stop-opacity:0.3965"/>
		<stop  offset="0.8782" style="stop-color:#C5BEBA;stop-opacity:0.2974"/>
		<stop  offset="1" style="stop-color:#FFF6F1;stop-opacity:0.2"/>
	</linearGradient>
	<polygon class="st14" points="27.1,17.4 44.3,17.1 44.3,19.1 27.1,19.4 	"/>
	<linearGradient id="SVGID_7_" gradientUnits="userSpaceOnUse" x1="15.6789" y1="84.4417" x2="15.6789" y2="88.6812">
		<stop  offset="0" style="stop-color:#000000"/>
		<stop  offset="0.9988" style="stop-color:#000000;stop-opacity:0.201"/>
		<stop  offset="1" style="stop-color:#000000;stop-opacity:0.2"/>
	</linearGradient>
	<polygon class="st15" points="7.2,83.6 23.6,83.4 24.1,89.3 7.2,89.3 	"/>
	<path class="st402" d="M47.5,31.1V37c-8.9,0-16.1,7.2-16.1,16.2v0h-9.9c1.3-13.9,13.7-22.2,24.7-22.2C46.7,31.1,47.1,31.1,47.5,31.1z
		"/>
	<linearGradient id="SVGID_8_" gradientUnits="userSpaceOnUse" x1="25.7333" y1="33.7184" x2="41.6353" y2="49.0156">
		<stop  offset="0" style="stop-color:#000000"/>
		<stop  offset="0.7625" style="stop-color:#000000;stop-opacity:0.1011"/>
		<stop  offset="0.7634" style="stop-color:#000000;stop-opacity:0.1"/>
	</linearGradient>
	<path class="st16" d="M47.5,31.1V37c-8.9,0-16.1,7.2-16.1,16.2v0h-9.9c1.3-13.9,13.7-22.2,24.7-22.2C46.7,31.1,47.1,31.1,47.5,31.1
		z"/>
	<linearGradient id="SVGID_9_" gradientUnits="userSpaceOnUse" x1="44.2475" y1="16.4386" x2="47.9969" y2="16.4386">
		<stop  offset="0" style="stop-color:#000000"/>
		<stop  offset="0.1256" style="stop-color:#040404;stop-opacity:0.8995"/>
		<stop  offset="0.2511" style="stop-color:#100F0F;stop-opacity:0.7991"/>
		<stop  offset="0.3767" style="stop-color:#242322;stop-opacity:0.6986"/>
		<stop  offset="0.5025" style="stop-color:#403E3D;stop-opacity:0.598"/>
		<stop  offset="0.6284" style="stop-color:#65615F;stop-opacity:0.4973"/>
		<stop  offset="0.7544" style="stop-color:#918C89;stop-opacity:0.3965"/>
		<stop  offset="0.8782" style="stop-color:#C5BEBA;stop-opacity:0.2974"/>
		<stop  offset="1" style="stop-color:#FFF6F1;stop-opacity:0.2"/>
	</linearGradient>
	<polygon class="st17" points="44.3,15.8 47.8,15.7 47.8,17.1 44.3,17.1 	"/>
	<linearGradient id="SVGID_10_" gradientUnits="userSpaceOnUse" x1="44.1683" y1="15.5726" x2="46.0761" y2="18.6025">
		<stop  offset="0.3072" style="stop-color:#000000"/>
		<stop  offset="0.3942" style="stop-color:#040404;stop-opacity:0.8995"/>
		<stop  offset="0.4812" style="stop-color:#100F0F;stop-opacity:0.7991"/>
		<stop  offset="0.5682" style="stop-color:#242322;stop-opacity:0.6986"/>
		<stop  offset="0.6554" style="stop-color:#403E3D;stop-opacity:0.598"/>
		<stop  offset="0.7426" style="stop-color:#65615F;stop-opacity:0.4973"/>
		<stop  offset="0.8299" style="stop-color:#918C89;stop-opacity:0.3965"/>
		<stop  offset="0.9156" style="stop-color:#C5BEBA;stop-opacity:0.2974"/>
		<stop  offset="1" style="stop-color:#FFF6F1;stop-opacity:0.2"/>
	</linearGradient>
	<rect x="44.3" y="17.1" class="st18" width="3.6" height="2.8"/>
	<linearGradient id="SVGID_11_" gradientUnits="userSpaceOnUse" x1="10.5497" y1="95.0249" x2="16.227" y2="95.0249">
		<stop  offset="0" style="stop-color:#000000"/>
		<stop  offset="0.9988" style="stop-color:#000000;stop-opacity:0.201"/>
		<stop  offset="1" style="stop-color:#000000;stop-opacity:0.2"/>
	</linearGradient>
	<path class="st19" d="M10.6,97.3h4.5c0,0,0.8-0.8,0.8-2.3c0-1.4-0.8-2.3-0.8-2.3h-4.5V97.3z"/>
	<linearGradient id="SVGID_12_" gradientUnits="userSpaceOnUse" x1="15.1138" y1="103.0808" x2="20.7911" y2="103.0808">
		<stop  offset="0" style="stop-color:#000000"/>
		<stop  offset="0.9988" style="stop-color:#000000;stop-opacity:0.201"/>
		<stop  offset="1" style="stop-color:#000000;stop-opacity:0.2"/>
	</linearGradient>
	<path class="st20" d="M15.1,105.3h4.5c0,0,0.8-0.8,0.8-2.3c0-1.4-0.8-2.3-0.8-2.3h-4.5V105.3z"/>
	<linearGradient id="SVGID_13_" gradientUnits="userSpaceOnUse" x1="15.1138" y1="146.594" x2="20.7911" y2="146.594">
		<stop  offset="0" style="stop-color:#000000"/>
		<stop  offset="0.9988" style="stop-color:#000000;stop-opacity:0.201"/>
		<stop  offset="1" style="stop-color:#000000;stop-opacity:0.2"/>
	</linearGradient>
	<path class="st21" d="M15.1,148.9h4.5c0,0,0.8-0.8,0.8-2.3c0-1.4-0.8-2.3-0.8-2.3h-4.5V148.9z"/>
	
		<linearGradient id="SVGID_14_" gradientUnits="userSpaceOnUse" x1="4.2924" y1="332.3757" x2="9.9697" y2="332.3757" gradientTransform="matrix(1 -1.491747e-03 1.202513e-03 0.8062 0.6776 -108.9148)">
		<stop  offset="0" style="stop-color:#000000"/>
		<stop  offset="0.9988" style="stop-color:#000000;stop-opacity:0.201"/>
		<stop  offset="1" style="stop-color:#000000;stop-opacity:0.2"/>
	</linearGradient>
	<path class="st22" d="M5.4,160.9l4.5,0c0,0,0.8-0.6,0.8-1.8c0-1.1-0.8-1.8-0.8-1.8l-4.5,0L5.4,160.9z"/>
	
		<linearGradient id="SVGID_15_" gradientUnits="userSpaceOnUse" x1="4.5222" y1="141.2989" x2="10.1995" y2="141.2989" gradientTransform="matrix(1 -1.491747e-03 1.202513e-03 0.8062 0.6776 -108.9148)">
		<stop  offset="0" style="stop-color:#000000"/>
		<stop  offset="0.1256" style="stop-color:#040404;stop-opacity:0.8995"/>
		<stop  offset="0.2511" style="stop-color:#100F0F;stop-opacity:0.7991"/>
		<stop  offset="0.3767" style="stop-color:#242322;stop-opacity:0.6986"/>
		<stop  offset="0.5025" style="stop-color:#403E3D;stop-opacity:0.598"/>
		<stop  offset="0.6284" style="stop-color:#65615F;stop-opacity:0.4973"/>
		<stop  offset="0.7544" style="stop-color:#918C89;stop-opacity:0.3965"/>
		<stop  offset="0.8782" style="stop-color:#C5BEBA;stop-opacity:0.2974"/>
		<stop  offset="1" style="stop-color:#FFF6F1;stop-opacity:0.2"/>
	</linearGradient>
	<path class="st23" d="M5.4,6.8l4.5,0c0,0,0.8-0.6,0.8-1.8c0-1.1-0.8-1.8-0.8-1.8l-4.5,0L5.4,6.8z"/>
	
		<linearGradient id="SVGID_16_" gradientUnits="userSpaceOnUse" x1="108.0398" y1="141.4904" x2="113.7171" y2="141.4904" gradientTransform="matrix(1 -1.491747e-03 1.202513e-03 0.8062 0.6776 -108.9148)">
		<stop  offset="0" style="stop-color:#000000"/>
		<stop  offset="0.1256" style="stop-color:#040404;stop-opacity:0.8995"/>
		<stop  offset="0.2511" style="stop-color:#100F0F;stop-opacity:0.7991"/>
		<stop  offset="0.3767" style="stop-color:#242322;stop-opacity:0.6986"/>
		<stop  offset="0.5025" style="stop-color:#403E3D;stop-opacity:0.598"/>
		<stop  offset="0.6284" style="stop-color:#65615F;stop-opacity:0.4973"/>
		<stop  offset="0.7544" style="stop-color:#918C89;stop-opacity:0.3965"/>
		<stop  offset="0.8782" style="stop-color:#C5BEBA;stop-opacity:0.2974"/>
		<stop  offset="1" style="stop-color:#FFF6F1;stop-opacity:0.2"/>
	</linearGradient>
	<path class="st24" d="M108.9,6.8l4.5,0c0,0,0.8-0.6,0.8-1.8c0-1.1-0.8-1.8-0.8-1.8l-4.5,0L108.9,6.8z"/>
	
		<linearGradient id="SVGID_17_" gradientUnits="userSpaceOnUse" x1="180.1597" y1="-45.0875" x2="185.837" y2="-45.0875" gradientTransform="matrix(1.1101 -1.655927e-03 1.494044e-03 1.0016 -103.096 56.7067)">
		<stop  offset="0" style="stop-color:#000000"/>
		<stop  offset="0.1256" style="stop-color:#040404;stop-opacity:0.8995"/>
		<stop  offset="0.2511" style="stop-color:#100F0F;stop-opacity:0.7991"/>
		<stop  offset="0.3767" style="stop-color:#242322;stop-opacity:0.6986"/>
		<stop  offset="0.5025" style="stop-color:#403E3D;stop-opacity:0.598"/>
		<stop  offset="0.6284" style="stop-color:#65615F;stop-opacity:0.4973"/>
		<stop  offset="0.7544" style="stop-color:#918C89;stop-opacity:0.3965"/>
		<stop  offset="0.8782" style="stop-color:#C5BEBA;stop-opacity:0.2974"/>
		<stop  offset="1" style="stop-color:#FFF6F1;stop-opacity:0.2"/>
	</linearGradient>
	<path class="st25" d="M96.9,13.5l5,0c0,0,0.9-0.8,0.9-2.3c0-1.4-0.9-2.3-0.9-2.3l-5,0L96.9,13.5z"/>
	
		<linearGradient id="SVGID_18_" gradientUnits="userSpaceOnUse" x1="107.8096" y1="332.9564" x2="113.4869" y2="332.9564" gradientTransform="matrix(1 -1.491747e-03 1.202513e-03 0.8062 0.6776 -108.9148)">
		<stop  offset="0" style="stop-color:#000000"/>
		<stop  offset="0.9988" style="stop-color:#000000;stop-opacity:0.201"/>
		<stop  offset="1" style="stop-color:#000000;stop-opacity:0.2"/>
	</linearGradient>
	<path class="st26" d="M108.9,161.2l4.5,0c0,0,0.8-0.6,0.8-1.8c0-1.1-0.8-1.8-0.8-1.8l-4.5,0L108.9,161.2z"/>
	
		<linearGradient id="SVGID_19_" gradientUnits="userSpaceOnUse" x1="208.5483" y1="318.776" x2="214.2256" y2="318.776" gradientTransform="matrix(1 -1.491747e-03 1.202513e-03 0.8062 0.6776 -108.9148)">
		<stop  offset="0" style="stop-color:#000000"/>
		<stop  offset="0.1256" style="stop-color:#040404;stop-opacity:0.8995"/>
		<stop  offset="0.2511" style="stop-color:#100F0F;stop-opacity:0.7991"/>
		<stop  offset="0.3767" style="stop-color:#242322;stop-opacity:0.6986"/>
		<stop  offset="0.5025" style="stop-color:#403E3D;stop-opacity:0.598"/>
		<stop  offset="0.6284" style="stop-color:#65615F;stop-opacity:0.4973"/>
		<stop  offset="0.7544" style="stop-color:#918C89;stop-opacity:0.3965"/>
		<stop  offset="0.8782" style="stop-color:#C5BEBA;stop-opacity:0.2974"/>
		<stop  offset="1" style="stop-color:#FFF6F1;stop-opacity:0.2"/>
	</linearGradient>
	<path class="st27" d="M209.6,149.6l4.5,0c0,0,0.8-0.6,0.8-1.8c0-1.1-0.8-1.8-0.8-1.8l-4.5,0L209.6,149.6z"/>
	<g>
		<g>
			<ellipse class="st28" cx="10.8" cy="95" rx="2.3" ry="2.3"/>
			<path class="st29" d="M11.7,96.2l-0.3,0c-0.1,0-0.1,0-0.2,0.1L11,96.5c-0.1,0.1-0.3,0.1-0.4,0l-0.2-0.2c0,0-0.1-0.1-0.2-0.1H9.9
				c-0.1,0-0.3-0.1-0.3-0.3v-0.3c0-0.1,0-0.1-0.1-0.2l-0.2-0.2c-0.1-0.1-0.1-0.3,0-0.4l0.2-0.2c0,0,0.1-0.1,0.1-0.2v-0.3
				c0-0.1,0.1-0.3,0.3-0.3h0.3c0.1,0,0.1,0,0.2-0.1l0.2-0.2c0.1-0.1,0.3-0.1,0.4,0l0.2,0.2c0,0,0.1,0.1,0.2,0.1h0.3
				c0.1,0,0.3,0.1,0.3,0.3v0.3c0,0.1,0,0.1,0.1,0.2l0.2,0.2c0.1,0.1,0.1,0.3,0,0.4L12,95.4c0,0-0.1,0.1-0.1,0.2l0,0.3
				C11.9,96.1,11.8,96.2,11.7,96.2z"/>
			
				<linearGradient id="SVGID_20_" gradientUnits="userSpaceOnUse" x1="-569.2469" y1="2660.5642" x2="-567.1238" y2="2662.6873" gradientTransform="matrix(0.7071 0.7071 -0.7071 0.7071 2294.6152 -1385.1964)">
				<stop  offset="0" style="stop-color:#000000"/>
				<stop  offset="0.1256" style="stop-color:#040404;stop-opacity:0.8995"/>
				<stop  offset="0.2511" style="stop-color:#100F0F;stop-opacity:0.7991"/>
				<stop  offset="0.3767" style="stop-color:#242322;stop-opacity:0.6986"/>
				<stop  offset="0.5025" style="stop-color:#403E3D;stop-opacity:0.598"/>
				<stop  offset="0.6284" style="stop-color:#65615F;stop-opacity:0.4973"/>
				<stop  offset="0.7544" style="stop-color:#918C89;stop-opacity:0.3965"/>
				<stop  offset="0.8782" style="stop-color:#C5BEBA;stop-opacity:0.2974"/>
				<stop  offset="1" style="stop-color:#FFF6F1;stop-opacity:0.2"/>
			</linearGradient>
			<path class="st30" d="M11.7,96.2l-0.3,0c-0.1,0-0.1,0-0.2,0.1L11,96.5c-0.1,0.1-0.3,0.1-0.4,0l-0.2-0.2c0,0-0.1-0.1-0.2-0.1H9.9
				c-0.1,0-0.3-0.1-0.3-0.3v-0.3c0-0.1,0-0.1-0.1-0.2l-0.2-0.2c-0.1-0.1-0.1-0.3,0-0.4l0.2-0.2c0,0,0.1-0.1,0.1-0.2v-0.3
				c0-0.1,0.1-0.3,0.3-0.3h0.3c0.1,0,0.1,0,0.2-0.1l0.2-0.2c0.1-0.1,0.3-0.1,0.4,0l0.2,0.2c0,0,0.1,0.1,0.2,0.1h0.3
				c0.1,0,0.3,0.1,0.3,0.3v0.3c0,0.1,0,0.1,0.1,0.2l0.2,0.2c0.1,0.1,0.1,0.3,0,0.4L12,95.4c0,0-0.1,0.1-0.1,0.2l0,0.3
				C11.9,96.1,11.8,96.2,11.7,96.2z"/>
			
				<linearGradient id="SVGID_21_" gradientUnits="userSpaceOnUse" x1="-242.5161" y1="397.5179" x2="-240.3966" y2="399.6375" gradientTransform="matrix(1 0 0 1 252.2926 -303.5042)">
				<stop  offset="0" style="stop-color:#000000"/>
				<stop  offset="0.1256" style="stop-color:#040404;stop-opacity:0.8995"/>
				<stop  offset="0.2511" style="stop-color:#100F0F;stop-opacity:0.7991"/>
				<stop  offset="0.3767" style="stop-color:#242322;stop-opacity:0.6986"/>
				<stop  offset="0.5025" style="stop-color:#403E3D;stop-opacity:0.598"/>
				<stop  offset="0.6284" style="stop-color:#65615F;stop-opacity:0.4973"/>
				<stop  offset="0.7544" style="stop-color:#918C89;stop-opacity:0.3965"/>
				<stop  offset="0.8782" style="stop-color:#C5BEBA;stop-opacity:0.2974"/>
				<stop  offset="1" style="stop-color:#FFF6F1;stop-opacity:0.2"/>
			</linearGradient>
			<path class="st31" d="M12.2,95.2L12,95.4c0,0-0.1,0.1-0.1,0.2v0.3c0,0.1-0.1,0.3-0.3,0.3h-0.3c-0.1,0-0.1,0-0.2,0.1L11,96.5
				c-0.1,0.1-0.3,0.1-0.4,0l-0.2-0.2c0,0-0.1-0.1-0.2-0.1H9.9c-0.1,0-0.3-0.1-0.3-0.3v-0.3c0-0.1,0-0.1-0.1-0.2l-0.2-0.2
				c-0.1-0.1-0.1-0.3,0-0.4l0.2-0.2c0,0,0.1-0.1,0.1-0.2v-0.3c0-0.1,0.1-0.3,0.3-0.3h0.3c0.1,0,0.1,0,0.2-0.1l0.2-0.2
				c0.1-0.1,0.3-0.1,0.4,0l0.2,0.2c0,0,0.1,0.1,0.2,0.1h0.3c0.1,0,0.3,0.1,0.3,0.3v0.3c0,0.1,0,0.1,0.1,0.2l0.2,0.2
				C12.3,94.9,12.3,95.1,12.2,95.2z"/>
		</g>
	</g>
	<g>
		<g>
			<ellipse class="st28" cx="15.4" cy="103.1" rx="2.3" ry="2.3"/>
			<path class="st29" d="M14.5,101.9l0.3,0c0.1,0,0.1,0,0.2-0.1l0.2-0.2c0.1-0.1,0.3-0.1,0.4,0l0.2,0.2c0,0,0.1,0.1,0.2,0.1h0.3
				c0.1,0,0.3,0.1,0.3,0.3v0.3c0,0.1,0,0.1,0.1,0.2l0.2,0.2c0.1,0.1,0.1,0.3,0,0.4l-0.2,0.2c0,0-0.1,0.1-0.1,0.2v0.3
				c0,0.1-0.1,0.3-0.3,0.3h-0.3c-0.1,0-0.1,0-0.2,0.1l-0.2,0.2c-0.1,0.1-0.3,0.1-0.4,0l-0.2-0.2c0,0-0.1-0.1-0.2-0.1h-0.3
				c-0.1,0-0.3-0.1-0.3-0.3v-0.3c0-0.1,0-0.1-0.1-0.2l-0.2-0.2c-0.1-0.1-0.1-0.3,0-0.4l0.2-0.2c0,0,0.1-0.1,0.1-0.2l0-0.3
				C14.2,102.1,14.4,101.9,14.5,101.9z"/>
			
				<linearGradient id="SVGID_22_" gradientUnits="userSpaceOnUse" x1="-460.3291" y1="478.4514" x2="-458.2059" y2="480.5746" gradientTransform="matrix(-0.7071 -0.7071 0.7071 -0.7071 -648.4494 117.3373)">
				<stop  offset="0" style="stop-color:#000000"/>
				<stop  offset="0.1256" style="stop-color:#040404;stop-opacity:0.8995"/>
				<stop  offset="0.2511" style="stop-color:#100F0F;stop-opacity:0.7991"/>
				<stop  offset="0.3767" style="stop-color:#242322;stop-opacity:0.6986"/>
				<stop  offset="0.5025" style="stop-color:#403E3D;stop-opacity:0.598"/>
				<stop  offset="0.6284" style="stop-color:#65615F;stop-opacity:0.4973"/>
				<stop  offset="0.7544" style="stop-color:#918C89;stop-opacity:0.3965"/>
				<stop  offset="0.8782" style="stop-color:#C5BEBA;stop-opacity:0.2974"/>
				<stop  offset="1" style="stop-color:#FFF6F1;stop-opacity:0.2"/>
			</linearGradient>
			<path class="st32" d="M14.5,101.9l0.3,0c0.1,0,0.1,0,0.2-0.1l0.2-0.2c0.1-0.1,0.3-0.1,0.4,0l0.2,0.2c0,0,0.1,0.1,0.2,0.1h0.3
				c0.1,0,0.3,0.1,0.3,0.3v0.3c0,0.1,0,0.1,0.1,0.2l0.2,0.2c0.1,0.1,0.1,0.3,0,0.4l-0.2,0.2c0,0-0.1,0.1-0.1,0.2v0.3
				c0,0.1-0.1,0.3-0.3,0.3h-0.3c-0.1,0-0.1,0-0.2,0.1l-0.2,0.2c-0.1,0.1-0.3,0.1-0.4,0l-0.2-0.2c0,0-0.1-0.1-0.2-0.1h-0.3
				c-0.1,0-0.3-0.1-0.3-0.3v-0.3c0-0.1,0-0.1-0.1-0.2l-0.2-0.2c-0.1-0.1-0.1-0.3,0-0.4l0.2-0.2c0,0,0.1-0.1,0.1-0.2l0-0.3
				C14.2,102.1,14.4,101.9,14.5,101.9z"/>
			
				<linearGradient id="SVGID_23_" gradientUnits="userSpaceOnUse" x1="-534.407" y1="-352.7252" x2="-532.2911" y2="-350.6094" gradientTransform="matrix(0.7071 -0.7071 0.7071 0.7071 641.2266 -25.3854)">
				<stop  offset="0" style="stop-color:#000000"/>
				<stop  offset="0.1256" style="stop-color:#040404;stop-opacity:0.8995"/>
				<stop  offset="0.2511" style="stop-color:#100F0F;stop-opacity:0.7991"/>
				<stop  offset="0.3767" style="stop-color:#242322;stop-opacity:0.6986"/>
				<stop  offset="0.5025" style="stop-color:#403E3D;stop-opacity:0.598"/>
				<stop  offset="0.6284" style="stop-color:#65615F;stop-opacity:0.4973"/>
				<stop  offset="0.7544" style="stop-color:#918C89;stop-opacity:0.3965"/>
				<stop  offset="0.8782" style="stop-color:#C5BEBA;stop-opacity:0.2974"/>
				<stop  offset="1" style="stop-color:#FFF6F1;stop-opacity:0.2"/>
			</linearGradient>
			<path class="st33" d="M16.5,102.2l0,0.3c0,0.1,0,0.1,0.1,0.2l0.2,0.2c0.1,0.1,0.1,0.3,0,0.4l-0.2,0.2c0,0-0.1,0.1-0.1,0.2v0.3
				c0,0.1-0.1,0.3-0.3,0.3h-0.3c-0.1,0-0.1,0-0.2,0.1l-0.2,0.2c-0.1,0.1-0.3,0.1-0.4,0l-0.2-0.2c0,0-0.1-0.1-0.2-0.1h-0.3
				c-0.1,0-0.3-0.1-0.3-0.3v-0.3c0-0.1,0-0.1-0.1-0.2l-0.2-0.2c-0.1-0.1-0.1-0.3,0-0.4l0.2-0.2c0,0,0.1-0.1,0.1-0.2v-0.3
				c0-0.1,0.1-0.3,0.3-0.3h0.3c0.1,0,0.1,0,0.2-0.1l0.2-0.2c0.1-0.1,0.3-0.1,0.4,0l0.2,0.2c0,0,0.1,0.1,0.2,0.1l0.3,0
				C16.4,101.9,16.5,102.1,16.5,102.2z"/>
		</g>
	</g>
	<g>
		<path class="st2" d="M15.4,143.6L15.4,143.6c-1.7,0-3,1.3-3,3v3h6v-3C18.4,144.9,17,143.6,15.4,143.6z"/>
		<g>
			<g>
				<ellipse class="st28" cx="15.4" cy="146.6" rx="2.3" ry="2.3"/>
				<path class="st29" d="M16.2,147.7l-0.3,0c-0.1,0-0.1,0-0.2,0.1l-0.2,0.2c-0.1,0.1-0.3,0.1-0.4,0l-0.2-0.2c0,0-0.1-0.1-0.2-0.1
					h-0.3c-0.1,0-0.3-0.1-0.3-0.3v-0.3c0-0.1,0-0.1-0.1-0.2l-0.2-0.2c-0.1-0.1-0.1-0.3,0-0.4l0.2-0.2c0,0,0.1-0.1,0.1-0.2v-0.3
					c0-0.1,0.1-0.3,0.3-0.3h0.3c0.1,0,0.1,0,0.2-0.1l0.2-0.2c0.1-0.1,0.3-0.1,0.4,0l0.2,0.2c0,0,0.1,0.1,0.2,0.1h0.3
					c0.1,0,0.3,0.1,0.3,0.3v0.3c0,0.1,0,0.1,0.1,0.2l0.2,0.2c0.1,0.1,0.1,0.3,0,0.4l-0.2,0.2c0,0-0.1,0.1-0.1,0.2l0,0.3
					C16.5,147.6,16.4,147.7,16.2,147.7z"/>
				
					<linearGradient id="SVGID_24_" gradientUnits="userSpaceOnUse" x1="-529.554" y1="2693.7935" x2="-527.4308" y2="2695.9167" gradientTransform="matrix(0.7071 0.7071 -0.7071 0.7071 2294.6152 -1385.1964)">
					<stop  offset="0" style="stop-color:#000000"/>
					<stop  offset="0.1256" style="stop-color:#040404;stop-opacity:0.8995"/>
					<stop  offset="0.2511" style="stop-color:#100F0F;stop-opacity:0.7991"/>
					<stop  offset="0.3767" style="stop-color:#242322;stop-opacity:0.6986"/>
					<stop  offset="0.5025" style="stop-color:#403E3D;stop-opacity:0.598"/>
					<stop  offset="0.6284" style="stop-color:#65615F;stop-opacity:0.4973"/>
					<stop  offset="0.7544" style="stop-color:#918C89;stop-opacity:0.3965"/>
					<stop  offset="0.8782" style="stop-color:#C5BEBA;stop-opacity:0.2974"/>
					<stop  offset="1" style="stop-color:#FFF6F1;stop-opacity:0.2"/>
				</linearGradient>
				<path class="st34" d="M16.2,147.7l-0.3,0c-0.1,0-0.1,0-0.2,0.1l-0.2,0.2c-0.1,0.1-0.3,0.1-0.4,0l-0.2-0.2c0,0-0.1-0.1-0.2-0.1
					h-0.3c-0.1,0-0.3-0.1-0.3-0.3v-0.3c0-0.1,0-0.1-0.1-0.2l-0.2-0.2c-0.1-0.1-0.1-0.3,0-0.4l0.2-0.2c0,0,0.1-0.1,0.1-0.2v-0.3
					c0-0.1,0.1-0.3,0.3-0.3h0.3c0.1,0,0.1,0,0.2-0.1l0.2-0.2c0.1-0.1,0.3-0.1,0.4,0l0.2,0.2c0,0,0.1,0.1,0.2,0.1h0.3
					c0.1,0,0.3,0.1,0.3,0.3v0.3c0,0.1,0,0.1,0.1,0.2l0.2,0.2c0.1,0.1,0.1,0.3,0,0.4l-0.2,0.2c0,0-0.1,0.1-0.1,0.2l0,0.3
					C16.5,147.6,16.4,147.7,16.2,147.7z"/>
				
					<linearGradient id="SVGID_25_" gradientUnits="userSpaceOnUse" x1="-237.9456" y1="449.0819" x2="-235.8261" y2="451.2014" gradientTransform="matrix(1 0 0 1 252.2926 -303.5042)">
					<stop  offset="0" style="stop-color:#000000"/>
					<stop  offset="0.1256" style="stop-color:#040404;stop-opacity:0.8995"/>
					<stop  offset="0.2511" style="stop-color:#100F0F;stop-opacity:0.7991"/>
					<stop  offset="0.3767" style="stop-color:#242322;stop-opacity:0.6986"/>
					<stop  offset="0.5025" style="stop-color:#403E3D;stop-opacity:0.598"/>
					<stop  offset="0.6284" style="stop-color:#65615F;stop-opacity:0.4973"/>
					<stop  offset="0.7544" style="stop-color:#918C89;stop-opacity:0.3965"/>
					<stop  offset="0.8782" style="stop-color:#C5BEBA;stop-opacity:0.2974"/>
					<stop  offset="1" style="stop-color:#FFF6F1;stop-opacity:0.2"/>
				</linearGradient>
				<path class="st35" d="M16.8,146.8l-0.2,0.2c0,0-0.1,0.1-0.1,0.2v0.3c0,0.1-0.1,0.3-0.3,0.3h-0.3c-0.1,0-0.1,0-0.2,0.1l-0.2,0.2
					c-0.1,0.1-0.3,0.1-0.4,0l-0.2-0.2c0,0-0.1-0.1-0.2-0.1h-0.3c-0.1,0-0.3-0.1-0.3-0.3v-0.3c0-0.1,0-0.1-0.1-0.2l-0.2-0.2
					c-0.1-0.1-0.1-0.3,0-0.4l0.2-0.2c0,0,0.1-0.1,0.1-0.2v-0.3c0-0.1,0.1-0.3,0.3-0.3h0.3c0.1,0,0.1,0,0.2-0.1l0.2-0.2
					c0.1-0.1,0.3-0.1,0.4,0l0.2,0.2c0,0,0.1,0.1,0.2,0.1h0.3c0.1,0,0.3,0.1,0.3,0.3v0.3c0,0.1,0,0.1,0.1,0.2l0.2,0.2
					C16.9,146.5,16.9,146.7,16.8,146.8z"/>
			</g>
		</g>
	</g>
	<ellipse class="st36" cx="5.4" cy="159" rx="1.8" ry="1.8"/>
	<ellipse class="st36" cx="5.4" cy="5" rx="1.8" ry="1.8"/>
	<ellipse class="st36" cx="108.7" cy="5" rx="1.8" ry="1.8"/>
	<ellipse class="st36" cx="109" cy="159.3" rx="1.8" ry="1.8"/>
	<ellipse class="st36" cx="209.6" cy="147.8" rx="1.8" ry="1.8"/>
	<ellipse class="st36" cx="209.6" cy="15.7" rx="1.8" ry="1.8"/>
	<g class="st37">
		<defs>
			<ellipse id="SVGID_26_" class="st37" cx="130.9" cy="81.9" rx="72.9" ry="73.1"/>
		</defs>
		<clipPath id="SVGID_27_">
			<use xlink:href="#SVGID_26_"  style="overflow:visible;"/>
		</clipPath>
		<g class="st38">
			<path class="st39" d="M77.6,154.9"/>
		</g>
		<g class="st38">
			<path class="st39" d="M181.6,10.3"/>
		</g>
	</g>
	<ellipse class="st400" cx="130.9" cy="82" rx="29.1" ry="29.2"/>
	<g>
		<ellipse class="st40" cx="130.9" cy="81.9" rx="26.6" ry="26.7"/>
		
			<linearGradient id="SVGID_28_" gradientUnits="userSpaceOnUse" x1="129.7875" y1="236.9406" x2="152.7923" y2="236.9406" gradientTransform="matrix(1 -1.491747e-03 1.202513e-03 0.8062 0.6776 -108.9148)">
			<stop  offset="0" style="stop-color:#000000"/>
			<stop  offset="0.9988" style="stop-color:#000000;stop-opacity:0.201"/>
			<stop  offset="1" style="stop-color:#000000;stop-opacity:0.2"/>
		</linearGradient>
		<path class="st41" d="M130.9,89.3l18.3,0c0,0,3.3-2.5,3.3-7.4c0-4.5-3.3-7.4-3.3-7.4l-18.3,0L130.9,89.3z"/>
		<g>
			<g>
				<ellipse class="st28" cx="130.9" cy="81.9" rx="7.4" ry="7.4"/>
				<path class="st29" d="M133.7,85.6l-1,0c-0.2,0-0.4,0.1-0.6,0.3l-0.7,0.7c-0.3,0.3-0.9,0.3-1.2,0l-0.7-0.7
					c-0.2-0.2-0.4-0.3-0.6-0.3H128c-0.5,0-0.9-0.4-0.9-0.9v-0.9c0-0.2-0.1-0.4-0.3-0.6l-0.7-0.7c-0.3-0.3-0.3-0.9,0-1.2l0.7-0.7
					c0.2-0.2,0.3-0.4,0.3-0.6V79c0-0.5,0.4-0.9,0.9-0.9h0.9c0.2,0,0.4-0.1,0.6-0.3l0.7-0.7c0.3-0.3,0.9-0.3,1.2,0l0.7,0.7
					c0.2,0.2,0.4,0.3,0.6,0.3h1c0.5,0,0.9,0.4,0.9,0.9v1c0,0.2,0.1,0.4,0.3,0.6l0.7,0.7c0.3,0.3,0.3,0.9,0,1.2l-0.7,0.7
					c-0.2,0.2-0.3,0.4-0.3,0.6l0,1C134.6,85.2,134.2,85.6,133.7,85.6z"/>
				
					<linearGradient id="SVGID_29_" gradientUnits="userSpaceOnUse" x1="-495.9433" y1="2564.072" x2="-489.0219" y2="2570.9934" gradientTransform="matrix(0.7071 0.7071 -0.7071 0.7071 2294.6152 -1385.1964)">
					<stop  offset="0" style="stop-color:#000000"/>
					<stop  offset="0.1256" style="stop-color:#040404;stop-opacity:0.8995"/>
					<stop  offset="0.2511" style="stop-color:#100F0F;stop-opacity:0.7991"/>
					<stop  offset="0.3767" style="stop-color:#242322;stop-opacity:0.6986"/>
					<stop  offset="0.5025" style="stop-color:#403E3D;stop-opacity:0.598"/>
					<stop  offset="0.6284" style="stop-color:#65615F;stop-opacity:0.4973"/>
					<stop  offset="0.7544" style="stop-color:#918C89;stop-opacity:0.3965"/>
					<stop  offset="0.8782" style="stop-color:#C5BEBA;stop-opacity:0.2974"/>
					<stop  offset="1" style="stop-color:#FFF6F1;stop-opacity:0.2"/>
				</linearGradient>
				<path class="st42" d="M133.7,85.6l-1,0c-0.2,0-0.4,0.1-0.6,0.3l-0.7,0.7c-0.3,0.3-0.9,0.3-1.2,0l-0.7-0.7
					c-0.2-0.2-0.4-0.3-0.6-0.3H128c-0.5,0-0.9-0.4-0.9-0.9v-0.9c0-0.2-0.1-0.4-0.3-0.6l-0.7-0.7c-0.3-0.3-0.3-0.9,0-1.2l0.7-0.7
					c0.2-0.2,0.3-0.4,0.3-0.6V79c0-0.5,0.4-0.9,0.9-0.9h0.9c0.2,0,0.4-0.1,0.6-0.3l0.7-0.7c0.3-0.3,0.9-0.3,1.2,0l0.7,0.7
					c0.2,0.2,0.4,0.3,0.6,0.3h1c0.5,0,0.9,0.4,0.9,0.9v1c0,0.2,0.1,0.4,0.3,0.6l0.7,0.7c0.3,0.3,0.3,0.9,0,1.2l-0.7,0.7
					c-0.2,0.2-0.3,0.4-0.3,0.6l0,1C134.6,85.2,134.2,85.6,133.7,85.6z"/>
				
					<linearGradient id="SVGID_30_" gradientUnits="userSpaceOnUse" x1="-124.7513" y1="382.0832" x2="-117.8418" y2="388.9927" gradientTransform="matrix(1 0 0 1 252.2926 -303.5042)">
					<stop  offset="0" style="stop-color:#000000"/>
					<stop  offset="0.1256" style="stop-color:#040404;stop-opacity:0.8995"/>
					<stop  offset="0.2511" style="stop-color:#100F0F;stop-opacity:0.7991"/>
					<stop  offset="0.3767" style="stop-color:#242322;stop-opacity:0.6986"/>
					<stop  offset="0.5025" style="stop-color:#403E3D;stop-opacity:0.598"/>
					<stop  offset="0.6284" style="stop-color:#65615F;stop-opacity:0.4973"/>
					<stop  offset="0.7544" style="stop-color:#918C89;stop-opacity:0.3965"/>
					<stop  offset="0.8782" style="stop-color:#C5BEBA;stop-opacity:0.2974"/>
					<stop  offset="1" style="stop-color:#FFF6F1;stop-opacity:0.2"/>
				</linearGradient>
				<path class="st43" d="M135.5,82.5l-0.7,0.7c-0.2,0.2-0.3,0.4-0.3,0.6v1c0,0.5-0.4,0.9-0.9,0.9h-1c-0.2,0-0.4,0.1-0.6,0.3
					l-0.7,0.7c-0.3,0.3-0.9,0.3-1.2,0l-0.7-0.7c-0.2-0.2-0.4-0.3-0.6-0.3h-1c-0.5,0-0.9-0.4-0.9-0.9v-1c0-0.2-0.1-0.4-0.3-0.6
					l-0.7-0.7c-0.3-0.3-0.3-0.9,0-1.2l0.7-0.7c0.2-0.2,0.3-0.4,0.3-0.6v-1c0-0.5,0.4-0.9,0.9-0.9h1c0.2,0,0.4-0.1,0.6-0.3l0.7-0.7
					c0.3-0.3,0.9-0.3,1.2,0l0.7,0.7c0.2,0.2,0.4,0.3,0.6,0.3h1c0.5,0,0.9,0.4,0.9,0.9v1c0,0.2,0.1,0.4,0.3,0.6l0.7,0.7
					C135.8,81.6,135.8,82.2,135.5,82.5z"/>
			</g>
		</g>
	</g>
	<g>
		<g>
			<ellipse class="st28" cx="97.1" cy="11.2" rx="2.3" ry="2.3"/>
			<path class="st29" d="M97.9,12.4l-0.3,0c-0.1,0-0.1,0-0.2,0.1l-0.2,0.2c-0.1,0.1-0.3,0.1-0.4,0l-0.2-0.2c0,0-0.1-0.1-0.2-0.1
				h-0.3c-0.1,0-0.3-0.1-0.3-0.3v-0.3c0-0.1,0-0.1-0.1-0.2l-0.2-0.2c-0.1-0.1-0.1-0.3,0-0.4l0.2-0.2c0,0,0.1-0.1,0.1-0.2v-0.3
				c0-0.1,0.1-0.3,0.3-0.3h0.3c0.1,0,0.1,0,0.2-0.1l0.2-0.2c0.1-0.1,0.3-0.1,0.4,0l0.2,0.2c0,0,0.1,0.1,0.2,0.1h0.3
				c0.1,0,0.3,0.1,0.3,0.3v0.3c0,0.1,0,0.1,0.1,0.2l0.2,0.2c0.1,0.1,0.1,0.3,0,0.4l-0.2,0.2c0,0-0.1,0.1-0.1,0.2l0,0.3
				C98.2,12.3,98.1,12.4,97.9,12.4z"/>
			
				<linearGradient id="SVGID_31_" gradientUnits="userSpaceOnUse" x1="-567.4941" y1="2540.3186" x2="-565.3708" y2="2542.4417" gradientTransform="matrix(0.7071 0.7071 -0.7071 0.7071 2294.6152 -1385.1964)">
				<stop  offset="0" style="stop-color:#000000"/>
				<stop  offset="0.1256" style="stop-color:#040404;stop-opacity:0.8995"/>
				<stop  offset="0.2511" style="stop-color:#100F0F;stop-opacity:0.7991"/>
				<stop  offset="0.3767" style="stop-color:#242322;stop-opacity:0.6986"/>
				<stop  offset="0.5025" style="stop-color:#403E3D;stop-opacity:0.598"/>
				<stop  offset="0.6284" style="stop-color:#65615F;stop-opacity:0.4973"/>
				<stop  offset="0.7544" style="stop-color:#918C89;stop-opacity:0.3965"/>
				<stop  offset="0.8782" style="stop-color:#C5BEBA;stop-opacity:0.2974"/>
				<stop  offset="1" style="stop-color:#FFF6F1;stop-opacity:0.2"/>
			</linearGradient>
			<path class="st44" d="M97.9,12.4l-0.3,0c-0.1,0-0.1,0-0.2,0.1l-0.2,0.2c-0.1,0.1-0.3,0.1-0.4,0l-0.2-0.2c0,0-0.1-0.1-0.2-0.1
				h-0.3c-0.1,0-0.3-0.1-0.3-0.3v-0.3c0-0.1,0-0.1-0.1-0.2l-0.2-0.2c-0.1-0.1-0.1-0.3,0-0.4l0.2-0.2c0,0,0.1-0.1,0.1-0.2v-0.3
				c0-0.1,0.1-0.3,0.3-0.3h0.3c0.1,0,0.1,0,0.2-0.1l0.2-0.2c0.1-0.1,0.3-0.1,0.4,0l0.2,0.2c0,0,0.1,0.1,0.2,0.1h0.3
				c0.1,0,0.3,0.1,0.3,0.3v0.3c0,0.1,0,0.1,0.1,0.2l0.2,0.2c0.1,0.1,0.1,0.3,0,0.4l-0.2,0.2c0,0-0.1,0.1-0.1,0.2l0,0.3
				C98.2,12.3,98.1,12.4,97.9,12.4z"/>
			
				<linearGradient id="SVGID_32_" gradientUnits="userSpaceOnUse" x1="-156.2501" y1="313.731" x2="-154.1306" y2="315.8505" gradientTransform="matrix(1 0 0 1 252.2926 -303.5042)">
				<stop  offset="0" style="stop-color:#000000"/>
				<stop  offset="0.1256" style="stop-color:#040404;stop-opacity:0.8995"/>
				<stop  offset="0.2511" style="stop-color:#100F0F;stop-opacity:0.7991"/>
				<stop  offset="0.3767" style="stop-color:#242322;stop-opacity:0.6986"/>
				<stop  offset="0.5025" style="stop-color:#403E3D;stop-opacity:0.598"/>
				<stop  offset="0.6284" style="stop-color:#65615F;stop-opacity:0.4973"/>
				<stop  offset="0.7544" style="stop-color:#918C89;stop-opacity:0.3965"/>
				<stop  offset="0.8782" style="stop-color:#C5BEBA;stop-opacity:0.2974"/>
				<stop  offset="1" style="stop-color:#FFF6F1;stop-opacity:0.2"/>
			</linearGradient>
			<path class="st45" d="M98.5,11.4l-0.2,0.2c0,0-0.1,0.1-0.1,0.2v0.3c0,0.1-0.1,0.3-0.3,0.3h-0.3c-0.1,0-0.1,0-0.2,0.1l-0.2,0.2
				c-0.1,0.1-0.3,0.1-0.4,0l-0.2-0.2c0,0-0.1-0.1-0.2-0.1h-0.3c-0.1,0-0.3-0.1-0.3-0.3v-0.3c0-0.1,0-0.1-0.1-0.2l-0.2-0.2
				c-0.1-0.1-0.1-0.3,0-0.4l0.2-0.2c0,0,0.1-0.1,0.1-0.2v-0.3c0-0.1,0.1-0.3,0.3-0.3h0.3c0.1,0,0.1,0,0.2-0.1l0.2-0.2
				c0.1-0.1,0.3-0.1,0.4,0l0.2,0.2c0,0,0.1,0.1,0.2,0.1h0.3c0.1,0,0.3,0.1,0.3,0.3v0.3c0,0.1,0,0.1,0.1,0.2l0.2,0.2
				C98.6,11.2,98.6,11.3,98.5,11.4z"/>
		</g>
	</g>
	<polygon class="st46" points="110.8,146.9 85.4,158.7 81.8,150.7 107.2,138.9 	"/>
	<polygon class="st46" points="81.7,159 81.8,150.7 100.4,150.7 100.4,159 	"/>
	
		<linearGradient id="SVGID_33_" gradientUnits="userSpaceOnUse" x1="94.5911" y1="323.6478" x2="101.6442" y2="323.6478" gradientTransform="matrix(1 -1.491747e-03 1.202513e-03 0.8062 0.6776 -108.9148)">
		<stop  offset="0" style="stop-color:#000000"/>
		<stop  offset="0.9988" style="stop-color:#000000;stop-opacity:0.201"/>
		<stop  offset="1" style="stop-color:#000000;stop-opacity:0.2"/>
	</linearGradient>
	<path class="st47" d="M95.7,154.1l5.6,0c0,0,1-0.8,1-2.3c0-1.4-1-2.3-1-2.3l-5.6,0L95.7,154.1z"/>
	<g>
		<g>
			<ellipse class="st28" cx="95.7" cy="151.9" rx="2.3" ry="2.3"/>
			<path class="st29" d="M96.6,153l-0.3,0c-0.1,0-0.1,0-0.2,0.1l-0.2,0.2c-0.1,0.1-0.3,0.1-0.4,0l-0.2-0.2c0,0-0.1-0.1-0.2-0.1h-0.3
				c-0.1,0-0.3-0.1-0.3-0.3v-0.3c0-0.1,0-0.1-0.1-0.2l-0.2-0.2c-0.1-0.1-0.1-0.3,0-0.4l0.2-0.2c0,0,0.1-0.1,0.1-0.2V151
				c0-0.1,0.1-0.3,0.3-0.3h0.3c0.1,0,0.1,0,0.2-0.1l0.2-0.2c0.1-0.1,0.3-0.1,0.4,0l0.2,0.2c0,0,0.1,0.1,0.2,0.1h0.3
				c0.1,0,0.3,0.1,0.3,0.3v0.3c0,0.1,0,0.1,0.1,0.2l0.2,0.2c0.1,0.1,0.1,0.3,0,0.4l-0.2,0.2c0,0-0.1,0.1-0.1,0.2l0,0.3
				C96.8,152.9,96.7,153,96.6,153z"/>
			
				<linearGradient id="SVGID_34_" gradientUnits="userSpaceOnUse" x1="-469.0304" y1="2640.7151" x2="-466.9072" y2="2642.8381" gradientTransform="matrix(0.7071 0.7071 -0.7071 0.7071 2294.6152 -1385.1964)">
				<stop  offset="0" style="stop-color:#000000"/>
				<stop  offset="0.1256" style="stop-color:#040404;stop-opacity:0.8995"/>
				<stop  offset="0.2511" style="stop-color:#100F0F;stop-opacity:0.7991"/>
				<stop  offset="0.3767" style="stop-color:#242322;stop-opacity:0.6986"/>
				<stop  offset="0.5025" style="stop-color:#403E3D;stop-opacity:0.598"/>
				<stop  offset="0.6284" style="stop-color:#65615F;stop-opacity:0.4973"/>
				<stop  offset="0.7544" style="stop-color:#918C89;stop-opacity:0.3965"/>
				<stop  offset="0.8782" style="stop-color:#C5BEBA;stop-opacity:0.2974"/>
				<stop  offset="1" style="stop-color:#FFF6F1;stop-opacity:0.2"/>
			</linearGradient>
			<path class="st48" d="M96.6,153l-0.3,0c-0.1,0-0.1,0-0.2,0.1l-0.2,0.2c-0.1,0.1-0.3,0.1-0.4,0l-0.2-0.2c0,0-0.1-0.1-0.2-0.1h-0.3
				c-0.1,0-0.3-0.1-0.3-0.3v-0.3c0-0.1,0-0.1-0.1-0.2l-0.2-0.2c-0.1-0.1-0.1-0.3,0-0.4l0.2-0.2c0,0,0.1-0.1,0.1-0.2V151
				c0-0.1,0.1-0.3,0.3-0.3h0.3c0.1,0,0.1,0,0.2-0.1l0.2-0.2c0.1-0.1,0.3-0.1,0.4,0l0.2,0.2c0,0,0.1,0.1,0.2,0.1h0.3
				c0.1,0,0.3,0.1,0.3,0.3v0.3c0,0.1,0,0.1,0.1,0.2l0.2,0.2c0.1,0.1,0.1,0.3,0,0.4l-0.2,0.2c0,0-0.1,0.1-0.1,0.2l0,0.3
				C96.8,152.9,96.7,153,96.6,153z"/>
			
				<linearGradient id="SVGID_35_" gradientUnits="userSpaceOnUse" x1="-157.6168" y1="454.3463" x2="-155.4973" y2="456.4658" gradientTransform="matrix(1 0 0 1 252.2926 -303.5042)">
				<stop  offset="0" style="stop-color:#000000"/>
				<stop  offset="0.1256" style="stop-color:#040404;stop-opacity:0.8995"/>
				<stop  offset="0.2511" style="stop-color:#100F0F;stop-opacity:0.7991"/>
				<stop  offset="0.3767" style="stop-color:#242322;stop-opacity:0.6986"/>
				<stop  offset="0.5025" style="stop-color:#403E3D;stop-opacity:0.598"/>
				<stop  offset="0.6284" style="stop-color:#65615F;stop-opacity:0.4973"/>
				<stop  offset="0.7544" style="stop-color:#918C89;stop-opacity:0.3965"/>
				<stop  offset="0.8782" style="stop-color:#C5BEBA;stop-opacity:0.2974"/>
				<stop  offset="1" style="stop-color:#FFF6F1;stop-opacity:0.2"/>
			</linearGradient>
			<path class="st49" d="M97.1,152l-0.2,0.2c0,0-0.1,0.1-0.1,0.2v0.3c0,0.1-0.1,0.3-0.3,0.3h-0.3c-0.1,0-0.1,0-0.2,0.1l-0.2,0.2
				c-0.1,0.1-0.3,0.1-0.4,0l-0.2-0.2c0,0-0.1-0.1-0.2-0.1h-0.3c-0.1,0-0.3-0.1-0.3-0.3v-0.3c0-0.1,0-0.1-0.1-0.2l-0.2-0.2
				c-0.1-0.1-0.1-0.3,0-0.4l0.2-0.2c0,0,0.1-0.1,0.1-0.2V151c0-0.1,0.1-0.3,0.3-0.3h0.3c0.1,0,0.1,0,0.2-0.1l0.2-0.2
				c0.1-0.1,0.3-0.1,0.4,0l0.2,0.2c0,0,0.1,0.1,0.2,0.1h0.3c0.1,0,0.3,0.1,0.3,0.3v0.3c0,0.1,0,0.1,0.1,0.2l0.2,0.2
				C97.2,151.8,97.2,151.9,97.1,152z"/>
		</g>
	</g>
	<linearGradient id="SVGID_36_" gradientUnits="userSpaceOnUse" x1="176.1816" y1="117.5219" x2="61.6253" y2="27.4437">
		<stop  offset="0" style="stop-color:#000000;stop-opacity:0.7"/>
		<stop  offset="4.543378e-02" style="stop-color:#040404;stop-opacity:0.6372"/>
		<stop  offset="9.084281e-02" style="stop-color:#100F0F;stop-opacity:0.5745"/>
		<stop  offset="0.1363" style="stop-color:#242322;stop-opacity:0.5116"/>
		<stop  offset="0.1818" style="stop-color:#403E3D;stop-opacity:0.4488"/>
		<stop  offset="0.2273" style="stop-color:#65615F;stop-opacity:0.3858"/>
		<stop  offset="0.2729" style="stop-color:#918C89;stop-opacity:0.3228"/>
		<stop  offset="0.3177" style="stop-color:#C5BEBA;stop-opacity:0.2609"/>
		<stop  offset="0.3618" style="stop-color:#FFF6F1;stop-opacity:0.2"/>
		<stop  offset="1" style="stop-color:#000000;stop-opacity:0.7"/>
	</linearGradient>
	<path class="st50" d="M130.9,8.8C90.6,8.8,58,41.5,58,81.9c0,40.4,32.6,73.1,72.9,73.1s72.9-32.7,72.9-73.1
		C203.7,41.5,171.1,8.8,130.9,8.8z M130.9,111.1c-16.1,0-29.1-13.1-29.1-29.2c0-16.2,13-29.2,29.1-29.2c16.1,0,29.1,13.1,29.1,29.2
		C160,98,147,111.1,130.9,111.1z"/>
	<path class="st8" d="M58.6,40.4l47.8,90.8l-0.7,1.2h3c0.9,0,1.5-1,1.1-1.8L62.3,40c0,0-4.4,0.1-4.3,0
		C58.1,39.9,58.6,40.4,58.6,40.4z"/>
	<path class="st51" d="M57.2,40.3l-19,25.4c-0.3,0.3-0.2,0.8,0.1,1.1l66.8,65.3c0.7,0.7,1.8-0.1,1.3-1L58.6,40.4
		C58.3,39.9,57.6,39.8,57.2,40.3z"/>
	
		<linearGradient id="SVGID_37_" gradientUnits="userSpaceOnUse" x1="135.3396" y1="-3.2421" x2="170.1912" y2="-3.2421" gradientTransform="matrix(1.1101 -1.655927e-03 1.494044e-03 1.0016 -103.096 56.7067)">
		<stop  offset="0" style="stop-color:#000000"/>
		<stop  offset="0.9988" style="stop-color:#000000;stop-opacity:0.201"/>
		<stop  offset="1" style="stop-color:#000000;stop-opacity:0.2"/>
	</linearGradient>
	<path class="st52" d="M47.4,67.2l30.8,0c0,0,5.6-4.7,5.6-14c0-8.4-5.6-14-5.6-14l-30.8,0L47.4,67.2z"/>
	<g>
		<path class="st2" d="M61.5,53.2c0,7.7-6.2,14-13.9,14c-0.6,0-1.2,0-1.8-0.1c-6.3-0.8-11.2-5.8-12-12.1v0c-0.1-0.6-0.1-1.2-0.1-1.8
			c0-7.7,6.2-14,13.9-14c2.1,0,4.1,0.5,5.8,1.3C58.2,42.8,61.5,47.6,61.5,53.2z"/>
		<g>
			<g>
				<ellipse class="st28" cx="47.5" cy="53.2" rx="7.4" ry="7.4"/>
				<path class="st29" d="M50.4,56.9l-1,0c-0.2,0-0.4,0.1-0.6,0.3l-0.7,0.7c-0.3,0.3-0.9,0.3-1.2,0l-0.7-0.7
					c-0.2-0.2-0.4-0.3-0.6-0.3h-0.9c-0.5,0-0.9-0.4-0.9-0.9v-0.9c0-0.2-0.1-0.4-0.3-0.6l-0.7-0.7c-0.3-0.3-0.3-0.9,0-1.2l0.7-0.7
					c0.2-0.2,0.3-0.4,0.3-0.6v-0.9c0-0.5,0.4-0.9,0.9-0.9h0.9c0.2,0,0.4-0.1,0.6-0.3l0.7-0.7c0.3-0.3,0.9-0.3,1.2,0l0.7,0.7
					c0.2,0.2,0.4,0.3,0.6,0.3h1c0.5,0,0.9,0.4,0.9,0.9v1c0,0.2,0.1,0.4,0.3,0.6l0.7,0.7c0.3,0.3,0.3,0.9,0,1.2l-0.7,0.7
					c-0.2,0.2-0.3,0.4-0.3,0.6l0,1C51.2,56.6,50.9,56.9,50.4,56.9z"/>
				
					<linearGradient id="SVGID_38_" gradientUnits="userSpaceOnUse" x1="-575.1201" y1="2602.7202" x2="-568.1986" y2="2609.6416" gradientTransform="matrix(0.7071 0.7071 -0.7071 0.7071 2294.6152 -1385.1964)">
					<stop  offset="0" style="stop-color:#000000"/>
					<stop  offset="0.1256" style="stop-color:#040404;stop-opacity:0.8995"/>
					<stop  offset="0.2511" style="stop-color:#100F0F;stop-opacity:0.7991"/>
					<stop  offset="0.3767" style="stop-color:#242322;stop-opacity:0.6986"/>
					<stop  offset="0.5025" style="stop-color:#403E3D;stop-opacity:0.598"/>
					<stop  offset="0.6284" style="stop-color:#65615F;stop-opacity:0.4973"/>
					<stop  offset="0.7544" style="stop-color:#918C89;stop-opacity:0.3965"/>
					<stop  offset="0.8782" style="stop-color:#C5BEBA;stop-opacity:0.2974"/>
					<stop  offset="1" style="stop-color:#FFF6F1;stop-opacity:0.2"/>
				</linearGradient>
				<path class="st53" d="M50.4,56.9l-1,0c-0.2,0-0.4,0.1-0.6,0.3l-0.7,0.7c-0.3,0.3-0.9,0.3-1.2,0l-0.7-0.7
					c-0.2-0.2-0.4-0.3-0.6-0.3h-0.9c-0.5,0-0.9-0.4-0.9-0.9v-0.9c0-0.2-0.1-0.4-0.3-0.6l-0.7-0.7c-0.3-0.3-0.3-0.9,0-1.2l0.7-0.7
					c0.2-0.2,0.3-0.4,0.3-0.6v-0.9c0-0.5,0.4-0.9,0.9-0.9h0.9c0.2,0,0.4-0.1,0.6-0.3l0.7-0.7c0.3-0.3,0.9-0.3,1.2,0l0.7,0.7
					c0.2,0.2,0.4,0.3,0.6,0.3h1c0.5,0,0.9,0.4,0.9,0.9v1c0,0.2,0.1,0.4,0.3,0.6l0.7,0.7c0.3,0.3,0.3,0.9,0,1.2l-0.7,0.7
					c-0.2,0.2-0.3,0.4-0.3,0.6l0,1C51.2,56.6,50.9,56.9,50.4,56.9z"/>
				
					<linearGradient id="SVGID_39_" gradientUnits="userSpaceOnUse" x1="-208.0661" y1="353.4252" x2="-201.1566" y2="360.3346" gradientTransform="matrix(1 0 0 1 252.2926 -303.5042)">
					<stop  offset="0" style="stop-color:#000000"/>
					<stop  offset="0.1256" style="stop-color:#040404;stop-opacity:0.8995"/>
					<stop  offset="0.2511" style="stop-color:#100F0F;stop-opacity:0.7991"/>
					<stop  offset="0.3767" style="stop-color:#242322;stop-opacity:0.6986"/>
					<stop  offset="0.5025" style="stop-color:#403E3D;stop-opacity:0.598"/>
					<stop  offset="0.6284" style="stop-color:#65615F;stop-opacity:0.4973"/>
					<stop  offset="0.7544" style="stop-color:#918C89;stop-opacity:0.3965"/>
					<stop  offset="0.8782" style="stop-color:#C5BEBA;stop-opacity:0.2974"/>
					<stop  offset="1" style="stop-color:#FFF6F1;stop-opacity:0.2"/>
				</linearGradient>
				<path class="st54" d="M52.2,53.8l-0.7,0.7c-0.2,0.2-0.3,0.4-0.3,0.6v1c0,0.5-0.4,0.9-0.9,0.9h-1c-0.2,0-0.4,0.1-0.6,0.3
					l-0.7,0.7c-0.3,0.3-0.9,0.3-1.2,0l-0.7-0.7C46.1,57,45.9,57,45.7,57h-1c-0.5,0-0.9-0.4-0.9-0.9v-1c0-0.2-0.1-0.4-0.3-0.6
					l-0.7-0.7c-0.3-0.3-0.3-0.9,0-1.2l0.7-0.7c0.2-0.2,0.3-0.4,0.3-0.6v-1c0-0.5,0.4-0.9,0.9-0.9h1c0.2,0,0.4-0.1,0.6-0.3l0.7-0.7
					c0.3-0.3,0.9-0.3,1.2,0l0.7,0.7c0.2,0.2,0.4,0.3,0.6,0.3h1c0.5,0,0.9,0.4,0.9,0.9v1c0,0.2,0.1,0.4,0.3,0.6l0.7,0.7
					C52.5,53,52.5,53.5,52.2,53.8z"/>
			</g>
		</g>
	</g>
</g>
</svg>
