<?xml version="1.0" encoding="utf-8"?>
<!-- Generator: Adobe Illustrator 23.1.1, SVG Export Plug-In . SVG Version: 6.00 Build 0)  -->
<svg version="1.1" id="Layer_1" xmlns="http://www.w3.org/2000/svg" xmlns:xlink="http://www.w3.org/1999/xlink" x="0px" y="0px"
	 viewBox="0 0 137.1 60.4" style="enable-background:new 0 0 137.1 60.4;" xml:space="preserve">
<style type="text/css">
	.st0{fill:none;stroke:#17161A;stroke-miterlimit:10;}
	.st1{fill:#4AB048;}
	.st2{fill:#292A2D;}
	.st3{fill:#171717;}
	.st4{fill:none;stroke:#17161A;stroke-width:3;stroke-miterlimit:10;}
	.st5{fill:#B3B5BA;}
	.st6{opacity:0.5;fill:url(#SVGID_1_);}
	.st7{opacity:0.5;fill:url(#SVGID_2_);}
	.st8{opacity:0.5;fill:url(#SVGID_3_);}
	.st9{opacity:0.5;fill:url(#SVGID_4_);}
	.st10{opacity:0.2;fill:url(#SVGID_5_);}
	.st11{opacity:0.6;fill:#030303;}
	.st12{opacity:0.36;fill:url(#SVGID_6_);}
	.st13{opacity:0.36;fill:url(#SVGID_7_);}
	.st14{fill:#171819;}
	.st15{fill:#0C0C0D;}
	.st16{fill:#BABCC1;}
	.st17{fill:#18181A;}
	.st18{fill:#A27A36;}
	.st19{opacity:0.5;fill:url(#SVGID_8_);}
	.st20{fill:#DCBC7F;}
	.st21{opacity:0.5;fill:url(#SVGID_9_);}
	.st22{fill:#5B5B64;}
</style>
<g>
	<path class="st0" d="M83.1,22.6c0,2.6,0.5,5,1.4,7.2l-7.9,6.7H31.1V8.8h45.6l7.9,6.6C83.6,17.7,83.1,20.1,83.1,22.6z"/>
	<path class="st0" d="M83.1,22.6c0,2.6,0.5,5,1.4,7.2l-7.9,6.7H31.1V8.8h45.6l7.9,6.6C83.6,17.7,83.1,20.1,83.1,22.6z"/>
	<path class="st0" d="M83.1,22.6c0,2.6,0.5,5,1.4,7.2l-7.9,6.7H31.1V8.8h45.6l7.9,6.6C83.6,17.7,83.1,20.1,83.1,22.6z"/>
	<path class="st0" d="M83.1,22.6c0,2.6,0.5,5,1.4,7.2l-7.9,6.7H31.1V8.8h45.6l7.9,6.6C83.6,17.7,83.1,20.1,83.1,22.6z"/>
	<rect x="20.4" y="8.8" class="st0" width="5.2" height="27.7"/>
	<path class="st0" d="M91.4,7.2C91.4,7.2,91.4,7.2,91.4,7.2L91.4,7.2L91.4,7.2z"/>
	<path class="st0" d="M83.1,22.6c0,2.6,0.5,5,1.4,7.2l-7.9,6.7H31.1V8.8h45.6l7.9,6.6C83.6,17.7,83.1,20.1,83.1,22.6z"/>
	<path class="st0" d="M83.1,22.6c0,2.6,0.5,5,1.4,7.2l-7.9,6.7H31.1V8.8h45.6l7.9,6.6C83.6,17.7,83.1,20.1,83.1,22.6z"/>
	<path class="st0" d="M83.1,22.6c0,2.6,0.5,5,1.4,7.2l-7.9,6.7H31.1V8.8h45.6l7.9,6.6C83.6,17.7,83.1,20.1,83.1,22.6z"/>
	<path class="st0" d="M83.1,22.6c0,2.6,0.5,5,1.4,7.2l-7.9,6.7H31.1V8.8h45.6l7.9,6.6C83.6,17.7,83.1,20.1,83.1,22.6z"/>
	<path class="st0" d="M83.1,22.6c0,2.6,0.5,5,1.4,7.2l-7.9,6.7H31.1V8.8h45.6l7.9,6.6C83.6,17.7,83.1,20.1,83.1,22.6z"/>
	<path class="st1" d="M118.1,1.2l-6.6,5.7c-2.8-1.8-6.2-2.8-9.8-2.8c-3.8,0-7.3,1.1-10.2,3.1h0l-6.9-5.9L87.6,0h27.2L118.1,1.2z"/>
	<path class="st1" d="M118.6,45l-6,1.8H90.2l-5.8-1.7l7-7c2.9,1.9,6.4,3.1,10.2,3.1c3.7,0,7.1-1.1,10-2.9L118.6,45z"/>
	<path class="st2" d="M137.1,2.7V10l-1-1.7h-9.5l-8,6.8c-1.4-3.2-3.8-5.9-6.7-7.8c-0.1-0.1-0.3-0.2-0.4-0.3l6.6-5.7L114.7,0h19.7
		L137.1,2.7z"/>
	<path class="st2" d="M137.1,36.2v7.9l-2.7,2.7h-21.8l6-1.8l-6.9-6.8c0.4-0.3,0.8-0.6,1.3-0.9c2.4-1.8,4.3-4.2,5.6-6.9l8.1,6.9h9.6
		L137.1,36.2z"/>
	<path class="st2" d="M91.4,38.1c-0.4-0.2-0.7-0.5-1.1-0.8c-2.5-1.9-4.6-4.5-5.8-7.5l-7.9,6.7H31.1V8.8h45.6l7.9,6.6
		c1.4-3.4,3.8-6.2,6.8-8.2l0,0l-6.9-5.9L87.6,0H8.4L7.1,1.3L5.7,2.7v41.4l0,4.4h6.2v-1.6h78.4l-5.8-1.7L91.4,38.1z M25.6,36.5h-5.2
		V8.8h5.2V36.5z"/>
	<rect x="20.4" y="8.8" class="st3" width="5.2" height="27.7"/>
	<path class="st4" d="M118.5,30.4c1.1-2.4,1.7-5,1.7-7.8c0-2.7-0.6-5.3-1.6-7.6"/>
	<path class="st5" d="M118.5,15.1c-1.4-3.2-3.8-5.9-6.7-7.8c-0.1-0.1-0.3-0.2-0.4-0.3c-2.8-1.8-6.2-2.8-9.8-2.8
		c-3.8,0-7.3,1.1-10.2,3.1c0,0,0,0,0,0c-3,2-5.4,4.9-6.8,8.2c-0.9,2.2-1.5,4.7-1.5,7.2c0,2.6,0.5,5,1.4,7.2c1.3,3,3.3,5.6,5.8,7.5
		c0.3,0.3,0.7,0.5,1.1,0.8c2.9,1.9,6.4,3.1,10.2,3.1c3.7,0,7.1-1.1,10-2.9c0.4-0.3,0.8-0.6,1.3-0.9c2.4-1.8,4.3-4.2,5.6-6.9
		c1.1-2.4,1.7-5,1.7-7.8C120.2,19.9,119.6,17.4,118.5,15.1z M116,28.3c-1.3,3.3-3.8,6.1-6.9,7.8c-0.9,0.5-1.9,0.9-2.9,1.2
		c-1.5,0.5-3,0.7-4.6,0.7s-3.2-0.3-4.6-0.7c-1.1-0.3-2.1-0.8-3.1-1.4c-3.2-1.8-5.6-4.8-6.8-8.3c-0.6-1.6-0.8-3.3-0.8-5.1
		c0-1.8,0.3-3.5,0.9-5.1c1.2-3.5,3.6-6.4,6.8-8.2c2.3-1.3,5-2.1,7.8-2.1c2.6,0,5.1,0.7,7.3,1.8c3.2,1.7,5.8,4.6,7.1,8.1
		c0.6,1.7,1,3.5,1,5.5C117.1,24.6,116.7,26.5,116,28.3z"/>
	<path class="st3" d="M83.1,22.6c0,2.6,0.5,5,1.4,7.2l-7.9,6.7H31.1V8.8h45.6l7.9,6.6C83.6,17.7,83.1,20.1,83.1,22.6z"/>
	<path class="st3" d="M137.1,10v26.2l-1,1.1h-9.6l-8.1-6.9c1.1-2.4,1.7-5,1.7-7.8c0-2.7-0.6-5.3-1.6-7.6l8-6.8h9.5L137.1,10z"/>
	<linearGradient id="SVGID_1_" gradientUnits="userSpaceOnUse" x1="73.1063" y1="46.8021" x2="73.1063" y2="44.9217">
		<stop  offset="0" style="stop-color:#000000;stop-opacity:0"/>
		<stop  offset="1" style="stop-color:#000000"/>
	</linearGradient>
	<polygon class="st6" points="134.4,46.8 11.8,46.8 11.8,45.2 134.4,45 	"/>
	<linearGradient id="SVGID_2_" gradientUnits="userSpaceOnUse" x1="70.9162" y1="46.2493" x2="70.9162" y2="38.6946">
		<stop  offset="0" style="stop-color:#000000;stop-opacity:0"/>
		<stop  offset="1" style="stop-color:#000000"/>
	</linearGradient>
	<path class="st7" d="M136.2,38l0,5.2l-1.8,1.8L5.7,45.2v-1.1l0-6.1h85.6c3,2,6.5,3.2,10.4,3.2c3.9,0,7.4-1.2,10.4-3.2H136.2z"/>
	<g>
		
			<linearGradient id="SVGID_3_" gradientUnits="userSpaceOnUse" x1="937.7557" y1="-354.9748" x2="937.7557" y2="-356.4875" gradientTransform="matrix(-1 0 0 -1 1008.4225 -354.9839)">
			<stop  offset="0" style="stop-color:#000000;stop-opacity:0"/>
			<stop  offset="1" style="stop-color:#000000"/>
		</linearGradient>
		<polygon class="st8" points="8.4,0 134.4,0 133.6,1.2 6.9,1.4 		"/>
		
			<linearGradient id="SVGID_4_" gradientUnits="userSpaceOnUse" x1="71.3884" y1="-357.6744" x2="71.3884" y2="-362.4901" gradientTransform="matrix(1 0 0 -1 -1.181439e-03 -354.9839)">
			<stop  offset="0" style="stop-color:#000000;stop-opacity:0"/>
			<stop  offset="1" style="stop-color:#000000"/>
		</linearGradient>
		<path class="st9" d="M137.1,7.3V2.7H5.7v4.6h85.6c3-2,6.5-3.2,10.4-3.2c3.9,0,7.4,1.2,10.4,3.2H137.1z"/>
	</g>
	<linearGradient id="SVGID_5_" gradientUnits="userSpaceOnUse" x1="101.5026" y1="43.5882" x2="101.5026" y2="40.1384">
		<stop  offset="0.1037" style="stop-color:#FFFFFF"/>
		<stop  offset="1" style="stop-color:#000000;stop-opacity:0.36"/>
	</linearGradient>
	<path class="st10" d="M118.6,45l-6,1.8H90.2l-5.8-1.7l7-7c2.9,1.9,6.4,3.1,10.2,3.1c3.7,0,7.1-1.1,10-2.9L118.6,45z"/>
	<polygon class="st11" points="136.1,3.5 136.2,43.2 137.1,44.1 137.1,2.7 	"/>
	<linearGradient id="SVGID_6_" gradientUnits="userSpaceOnUse" x1="135.7114" y1="45.3409" x2="134.9416" y2="43.8527">
		<stop  offset="0" style="stop-color:#FFFFFF"/>
		<stop  offset="0.9701" style="stop-color:#000000"/>
	</linearGradient>
	<polygon class="st12" points="134.4,46.8 134.4,45 136.2,43.2 137.1,44.1 	"/>
	<linearGradient id="SVGID_7_" gradientUnits="userSpaceOnUse" x1="137.0772" y1="-8.743661e-02" x2="134.7071" y2="2.5129">
		<stop  offset="0.3186" style="stop-color:#FFFFFF"/>
		<stop  offset="1" style="stop-color:#000000"/>
	</linearGradient>
	<polygon class="st13" points="133.6,1.2 136.1,3.5 137.1,2.7 134.4,0 	"/>
	<g>
		<polygon class="st14" points="34.3,45.2 29.2,38 29.2,7.3 34.3,1.4 35.3,1.4 30.4,7.3 30.4,38 35.3,45.2 		"/>
	</g>
	<circle class="st15" cx="101.6" cy="22.6" r="15.4"/>
	<circle class="st16" cx="101.6" cy="22.6" r="8.6"/>
	<path class="st17" d="M99.2,28.8L99.2,28.8c0,0.3-0.3,0.5-0.6,0.4c-0.7-0.3-1.3-0.8-1.9-1.3c-0.7-0.6-1.2-1.4-1.6-2.2
		c-0.1-0.3,0.1-0.6,0.4-0.6h0c0.2,0,0.3,0.1,0.4,0.2c0.3,0.7,0.8,1.3,1.4,1.9c0.5,0.5,1.1,0.9,1.7,1.2
		C99.1,28.5,99.2,28.6,99.2,28.8z"/>
	<path class="st17" d="M107.8,25.1c0.3,0,0.5,0.3,0.4,0.6c-0.3,0.7-0.8,1.3-1.3,1.9c-0.6,0.7-1.4,1.2-2.2,1.6
		c-0.3,0.1-0.6-0.1-0.6-0.4v0c0-0.2,0.1-0.3,0.2-0.4c0.7-0.3,1.3-0.8,1.9-1.4c0.5-0.5,0.9-1.1,1.2-1.7
		C107.5,25.2,107.6,25.1,107.8,25.1L107.8,25.1z"/>
	<path class="st17" d="M107.8,20.2L107.8,20.2c-0.2,0-0.3-0.1-0.4-0.2c-0.6-1.3-1.7-2.4-3-3c-0.1-0.1-0.2-0.2-0.2-0.4v0
		c0-0.3,0.3-0.5,0.6-0.4c0.7,0.3,1.3,0.8,1.9,1.3c0.7,0.6,1.2,1.4,1.6,2.1C108.3,19.9,108.1,20.2,107.8,20.2z"/>
	<path class="st17" d="M99.2,16.5L99.2,16.5c0,0.2-0.1,0.3-0.2,0.4c-1.3,0.6-2.4,1.7-3,3c-0.1,0.1-0.2,0.2-0.4,0.2h0
		c-0.3,0-0.5-0.3-0.4-0.6c0.7-1.5,1.9-2.7,3.4-3.4C98.9,16,99.2,16.2,99.2,16.5z"/>
	<polygon class="st2" points="75.5,50.4 69.8,50.4 69.8,48.7 68.2,48.7 68.2,50.4 34.3,50.4 34.3,49 33,49 33,50.4 27.9,50.4 
		27.9,46.8 26.1,46.8 26.1,50.4 22.2,50.4 22.2,46.8 75.5,46.8 	"/>
	<rect x="22.2" y="50.4" class="st18" width="3.9" height="0.8"/>
	<rect x="27.9" y="50.4" class="st18" width="5.1" height="2.7"/>
	<rect x="34.3" y="50.4" class="st18" width="33.9" height="2.7"/>
	<polygon class="st18" points="73.6,53.2 69.8,53.2 69.8,50.4 75.5,50.4 75.5,51.9 	"/>
	<linearGradient id="SVGID_8_" gradientUnits="userSpaceOnUse" x1="48.828" y1="50.4441" x2="48.828" y2="46.6343">
		<stop  offset="0" style="stop-color:#000000;stop-opacity:0"/>
		<stop  offset="1" style="stop-color:#000000"/>
	</linearGradient>
	<polygon class="st19" points="75.5,50.4 69.8,50.4 69.8,48.7 68.2,48.7 68.2,50.4 34.3,50.4 34.3,49 33,49 33,50.4 27.9,50.4 
		27.9,46.8 26.1,46.8 26.1,50.4 22.2,50.4 22.2,46.8 75.5,46.8 	"/>
	<g>
		<rect x="29.5" y="50.4" class="st20" width="0.3" height="2.7"/>
		<rect x="30" y="50.4" class="st20" width="0.3" height="2.7"/>
		<rect x="30.6" y="50.4" class="st20" width="0.3" height="2.7"/>
		<rect x="31.2" y="50.4" class="st20" width="0.3" height="2.7"/>
		<rect x="28.3" y="50.4" class="st20" width="0.3" height="2.7"/>
		<rect x="28.9" y="50.4" class="st20" width="0.3" height="2.7"/>
		<rect x="31.8" y="50.4" class="st20" width="0.3" height="2.7"/>
		<rect x="32.3" y="50.4" class="st20" width="0.3" height="2.7"/>
	</g>
	<g>
		<rect x="22.6" y="50.4" class="st20" width="0.3" height="0.8"/>
		<rect x="23.1" y="50.4" class="st20" width="0.3" height="0.8"/>
		<rect x="23.7" y="50.4" class="st20" width="0.3" height="0.8"/>
		<rect x="24.3" y="50.4" class="st20" width="0.3" height="0.8"/>
		<rect x="24.9" y="50.4" class="st20" width="0.3" height="0.8"/>
		<rect x="25.4" y="50.4" class="st20" width="0.3" height="0.8"/>
	</g>
	<rect x="70.2" y="50.4" class="st20" width="0.3" height="2.7"/>
	<rect x="70.7" y="50.4" class="st20" width="0.3" height="2.7"/>
	<rect x="71.3" y="50.4" class="st20" width="0.3" height="2.7"/>
	<rect x="71.9" y="50.4" class="st20" width="0.3" height="2.7"/>
	<rect x="72.4" y="50.4" class="st20" width="0.3" height="2.7"/>
	<rect x="73.1" y="50.4" class="st20" width="0.3" height="2.7"/>
	<polygon class="st20" points="73.9,52.9 73.6,53.1 73.6,50.4 73.9,50.4 	"/>
	<polygon class="st20" points="74.5,52.5 74.2,52.7 74.2,50.4 74.5,50.4 	"/>
	<polygon class="st20" points="75.1,52.1 74.8,52.3 74.8,50.4 75.1,50.4 	"/>
	<g>
		<rect x="34.8" y="50.4" class="st20" width="0.3" height="2.7"/>
		<rect x="35.4" y="50.4" class="st20" width="0.3" height="2.7"/>
		<rect x="36" y="50.4" class="st20" width="0.3" height="2.7"/>
		<rect x="36.5" y="50.4" class="st20" width="0.3" height="2.7"/>
		<rect x="37.1" y="50.4" class="st20" width="0.3" height="2.7"/>
		<rect x="37.7" y="50.4" class="st20" width="0.3" height="2.7"/>
		<rect x="38.2" y="50.4" class="st20" width="0.3" height="2.7"/>
		<rect x="38.8" y="50.4" class="st20" width="0.3" height="2.7"/>
		<rect x="39.4" y="50.4" class="st20" width="0.3" height="2.7"/>
		<rect x="40" y="50.4" class="st20" width="0.3" height="2.7"/>
		<rect x="40.5" y="50.4" class="st20" width="0.3" height="2.7"/>
		<rect x="41.1" y="50.4" class="st20" width="0.3" height="2.7"/>
		<rect x="41.7" y="50.4" class="st20" width="0.3" height="2.7"/>
		<rect x="42.2" y="50.4" class="st20" width="0.3" height="2.7"/>
		<rect x="42.8" y="50.4" class="st20" width="0.3" height="2.7"/>
		<rect x="43.4" y="50.4" class="st20" width="0.3" height="2.7"/>
		<rect x="43.9" y="50.4" class="st20" width="0.3" height="2.7"/>
		<rect x="44.5" y="50.4" class="st20" width="0.3" height="2.7"/>
		<rect x="45.1" y="50.4" class="st20" width="0.3" height="2.7"/>
		<rect x="45.7" y="50.4" class="st20" width="0.3" height="2.7"/>
		<rect x="46.2" y="50.4" class="st20" width="0.3" height="2.7"/>
		<rect x="46.8" y="50.4" class="st20" width="0.3" height="2.7"/>
		<rect x="47.4" y="50.4" class="st20" width="0.3" height="2.7"/>
		<rect x="47.9" y="50.4" class="st20" width="0.3" height="2.7"/>
		<rect x="48.5" y="50.4" class="st20" width="0.3" height="2.7"/>
		<rect x="49.1" y="50.4" class="st20" width="0.3" height="2.7"/>
		<rect x="49.7" y="50.4" class="st20" width="0.3" height="2.7"/>
		<rect x="50.2" y="50.4" class="st20" width="0.3" height="2.7"/>
		<rect x="50.8" y="50.4" class="st20" width="0.3" height="2.7"/>
		<rect x="51.4" y="50.4" class="st20" width="0.3" height="2.7"/>
		<rect x="51.9" y="50.4" class="st20" width="0.3" height="2.7"/>
		<rect x="52.5" y="50.4" class="st20" width="0.3" height="2.7"/>
		<rect x="53.1" y="50.4" class="st20" width="0.3" height="2.7"/>
		<rect x="53.6" y="50.4" class="st20" width="0.3" height="2.7"/>
		<rect x="54.2" y="50.4" class="st20" width="0.3" height="2.7"/>
		<rect x="54.8" y="50.4" class="st20" width="0.3" height="2.7"/>
		<rect x="55.4" y="50.4" class="st20" width="0.3" height="2.7"/>
		<rect x="55.9" y="50.4" class="st20" width="0.3" height="2.7"/>
		<rect x="56.5" y="50.4" class="st20" width="0.3" height="2.7"/>
		<rect x="57.1" y="50.4" class="st20" width="0.3" height="2.7"/>
		<rect x="57.6" y="50.4" class="st20" width="0.3" height="2.7"/>
		<rect x="58.2" y="50.4" class="st20" width="0.3" height="2.7"/>
		<rect x="58.8" y="50.4" class="st20" width="0.3" height="2.7"/>
		<rect x="59.4" y="50.4" class="st20" width="0.3" height="2.7"/>
		<rect x="59.9" y="50.4" class="st20" width="0.3" height="2.7"/>
		<rect x="60.5" y="50.4" class="st20" width="0.3" height="2.7"/>
		<rect x="61.1" y="50.4" class="st20" width="0.3" height="2.7"/>
		<rect x="61.6" y="50.4" class="st20" width="0.3" height="2.7"/>
		<rect x="62.2" y="50.4" class="st20" width="0.3" height="2.7"/>
		<rect x="62.8" y="50.4" class="st20" width="0.3" height="2.7"/>
		<rect x="63.4" y="50.4" class="st20" width="0.3" height="2.7"/>
		<rect x="63.9" y="50.4" class="st20" width="0.3" height="2.7"/>
		<rect x="64.5" y="50.4" class="st20" width="0.3" height="2.7"/>
		<rect x="65.1" y="50.4" class="st20" width="0.3" height="2.7"/>
		<rect x="66.2" y="50.4" class="st20" width="0.3" height="2.7"/>
		<rect x="66.8" y="50.4" class="st20" width="0.3" height="2.7"/>
		<rect x="67.3" y="50.4" class="st20" width="0.3" height="2.7"/>
		<rect x="65.6" y="50.4" class="st20" width="0.3" height="2.7"/>
	</g>
	<linearGradient id="SVGID_9_" gradientUnits="userSpaceOnUse" x1="8.7356" y1="48.4389" x2="8.7356" y2="46.7202">
		<stop  offset="0" style="stop-color:#000000;stop-opacity:0"/>
		<stop  offset="1" style="stop-color:#000000"/>
	</linearGradient>
	<rect x="5.7" y="46.8" class="st21" width="6.2" height="1.6"/>
	<g>
		<path class="st22" d="M5.6,60.4H4.6V2.9c0-0.6-0.5-1.1-1.1-1.1H0V0.7h3.4c1.2,0,2.2,1,2.2,2.2V60.4z"/>
	</g>
</g>
</svg>
