<?xml version="1.0" encoding="utf-8"?>
<!-- Generator: Adobe Illustrator 23.1.1, SVG Export Plug-In . SVG Version: 6.00 Build 0)  -->
<svg version="1.1" id="Layer_1" xmlns="http://www.w3.org/2000/svg" xmlns:xlink="http://www.w3.org/1999/xlink" x="0px" y="0px"
	 viewBox="0 0 159.2 98.3" style="enable-background:new 0 0 159.2 98.3;" xml:space="preserve">
<style type="text/css">
	.st351{fill:#B8C7CB;}
	.st350{fill:#221F1F;}
	.st352{fill:none;stroke:#221F1F;stroke-width:12;stroke-miterlimit:10;}
	.st353{fill:#F9F6F1;}
	.st354{opacity:7.000000e-02;fill:#010101;}
	.st355{opacity:7.000000e-02;fill:url(#SVGID_1_);}
	.st356{opacity:7.000000e-02;fill:url(#SVGID_2_);}
	.st357{opacity:7.000000e-02;fill:url(#SVGID_3_);}
	.st358{opacity:7.000000e-02;fill:url(#SVGID_4_);}
	.st359{opacity:7.000000e-02;fill:url(#SVGID_5_);}
	.st360{opacity:7.000000e-02;fill:url(#SVGID_6_);}
	.st361{opacity:7.000000e-02;fill:url(#SVGID_7_);}
	.st362{opacity:7.000000e-02;fill:url(#SVGID_8_);}
	.st363{fill:#4D4E4F;}
	.st364{opacity:7.000000e-02;fill:url(#SVGID_9_);}
	.st365{opacity:7.000000e-02;fill:url(#SVGID_10_);}
	.st366{opacity:7.000000e-02;fill:url(#SVGID_11_);}
	.st367{opacity:7.000000e-02;fill:url(#SVGID_12_);}
	.st368{opacity:0.7;fill:#221F1F;}
	.st19{opacity:0.6;}
	.st370{fill:url(#SVGID_13_);}
	.st371{fill:#1A181A;}
	.st372{fill:#FFFFFF;}
	.st373{opacity:0.2;fill:#D8D8D8;}
</style>
<path class="st351" d="M156.5,98.3H2.7c-1.5,0-2.7-1.2-2.7-2.7v-93C0,1.2,1.2,0,2.7,0h153.8c1.5,0,2.7,1.2,2.7,2.7v93
	C159.2,97.1,158,98.3,156.5,98.3z"/>
<g>
	<g>
		<path class="st350" d="M68.1,51.8L68.1,51.8c-1.8,0-3.2,1.7-3,3.5C67.7,73.7,82,88.3,99.9,91c1.8,0.3,3.4-1.1,3.4-3v0
			c0-1.5-1.1-2.8-2.6-3C85.4,82.6,73.3,70.1,71,54.4C70.8,52.9,69.5,51.8,68.1,51.8z M68,46.5L68,46.5c1.5,0,2.7-1.1,3-2.6
			c2.2-15.7,14.4-28.2,29.8-30.5c1.5-0.2,2.6-1.5,2.6-3v0c0-1.9-1.6-3.3-3.4-3C82,10,67.7,24.6,65.1,43C64.8,44.9,66.2,46.5,68,46.5
			z M140.8,54.4c-2.2,15.7-14.4,28.2-29.8,30.5c-1.5,0.2-2.6,1.5-2.6,3v0c0,1.9,1.6,3.3,3.4,3c17.9-2.7,32.2-17.3,34.8-35.7
			c0.3-1.9-1.1-3.5-3-3.5h0C142.3,51.8,141,52.9,140.8,54.4z M108.5,10.4L108.5,10.4c0,1.5,1.1,2.8,2.6,3
			c15.3,2.3,27.5,14.8,29.8,30.5c0.2,1.5,1.5,2.6,3,2.6h0c1.8,0,3.2-1.7,3-3.5c-2.6-18.4-16.9-33-34.8-35.7
			C110.1,7.1,108.5,8.5,108.5,10.4z"/>
	</g>
	<g>
		<path class="st350" d="M77.3,51.8L77.3,51.8c-1.9,0-3.3,1.7-2.9,3.6C76.8,68.6,87,79,99.8,81.5c1.8,0.4,3.5-1.1,3.5-3v0
			c0-1.5-1-2.7-2.4-3C90.5,73.4,82.2,65,80.2,54.2C79.9,52.8,78.7,51.8,77.3,51.8z M77.3,46.5L77.3,46.5c1.4,0,2.7-1,2.9-2.5
			c2-10.7,10.3-19.2,20.8-21.3c1.4-0.3,2.4-1.5,2.4-3v0c0-1.9-1.7-3.4-3.5-3c-12.9,2.5-23,12.9-25.5,26.1
			C74,44.8,75.4,46.5,77.3,46.5z M131.6,54.2c-2,10.7-10.3,19.2-20.8,21.3c-1.4,0.3-2.4,1.5-2.4,3v0c0,1.9,1.7,3.4,3.5,3
			c12.9-2.5,23-12.9,25.5-26.1c0.4-1.9-1.1-3.6-2.9-3.6h0C133.1,51.8,131.9,52.8,131.6,54.2z M108.5,19.8L108.5,19.8
			c0,1.5,1,2.7,2.4,3c10.5,2.1,18.8,10.5,20.8,21.3c0.3,1.4,1.5,2.5,2.9,2.5h0c1.9,0,3.3-1.7,2.9-3.6C135,29.7,124.9,19.3,112,16.8
			C110.2,16.4,108.5,17.9,108.5,19.8z"/>
	</g>
	<g>
		<path class="st350" d="M86.7,51.8L86.7,51.8c-2,0-3.4,1.9-2.9,3.9C86,63.4,92,69.5,99.6,71.8c1.9,0.6,3.8-0.9,3.8-3v0
			c0-1.3-0.9-2.6-2.1-2.9c-5.6-1.7-10-6.2-11.6-11.9C89.2,52.7,88,51.8,86.7,51.8z M86.7,46.5L86.7,46.5c1.3,0,2.5-0.9,2.9-2.2
			c1.6-5.7,6-10.3,11.6-11.9c1.3-0.4,2.1-1.6,2.1-2.9v0c0-2-1.9-3.5-3.8-3C92,28.8,86,34.9,83.8,42.7C83.3,44.6,84.7,46.5,86.7,46.5
			z M122.2,54c-1.6,5.7-6,10.3-11.7,11.9c-1.3,0.4-2.1,1.6-2.1,2.9v0c0,2,1.9,3.5,3.8,3c7.6-2.2,13.6-8.4,15.7-16.1
			c0.5-1.9-0.9-3.9-2.9-3.9h0C123.8,51.8,122.6,52.7,122.2,54z M108.5,29.5L108.5,29.5c0,1.4,0.9,2.6,2.1,2.9
			c5.6,1.6,10,6.2,11.7,11.9c0.4,1.3,1.5,2.2,2.9,2.2h0c2,0,3.4-1.9,2.9-3.9c-2.2-7.8-8.2-13.9-15.7-16.1
			C110.4,26,108.5,27.5,108.5,29.5z"/>
	</g>
	<path class="st350" d="M86.3,8.3c-8.8,4.4-16,11.8-20.3,20.8c-0.3,0.7-1.4,0.5-1.4-0.3V21c0-1,0.3-2,0.9-2.8
		c2.9-3.9,6.3-7.4,10.1-10.4c0.8-0.6,1.7-0.9,2.7-0.9H86C86.8,6.9,87,7.9,86.3,8.3z"/>
	<path class="st350" d="M147.2,21v7.8c0,0.8-1,1-1.4,0.3c-4.3-9-11.5-16.3-20.3-20.8c-0.7-0.3-0.5-1.4,0.3-1.4h7.6
		c1,0,1.9,0.3,2.7,0.9c3.8,3,7.3,6.5,10.1,10.4C146.8,19,147.2,20,147.2,21z"/>
	<path class="st350" d="M147.2,69.5v7.8c0,1-0.3,2-0.9,2.8c-2.9,3.9-6.3,7.4-10.1,10.4c-0.8,0.6-1.7,0.9-2.7,0.9h-7.6
		c-0.8,0-1-1.1-0.3-1.4c8.8-4.4,16-11.8,20.3-20.8C146.1,68.5,147.2,68.8,147.2,69.5z"/>
	<path class="st350" d="M86,91.4h-7.6c-1,0-1.9-0.3-2.7-0.9c-3.8-3-7.3-6.5-10.1-10.4c-0.6-0.8-0.9-1.8-0.9-2.8v-7.8
		c0-0.8,1-1,1.4-0.3c4.3,9,11.5,16.3,20.3,20.8C87,90.4,86.8,91.4,86,91.4z"/>
	<path class="st352" d="M147.2,6.9"/>
	<g>
		<line class="st350" x1="108.5" y1="6.9" x2="108.5" y2="7"/>
	</g>
	<path class="st352" d="M147.2,91.4"/>
</g>
<g>
	<g>
		<ellipse class="st353" cx="67" cy="10.3" rx="2.4" ry="2.4"/>
		<path class="st354" d="M68,11.5l-0.3,0c-0.1,0-0.1,0-0.2,0.1l-0.2,0.2c-0.1,0.1-0.3,0.1-0.4,0l-0.2-0.2c-0.1-0.1-0.1-0.1-0.2-0.1
			h-0.3c-0.2,0-0.3-0.1-0.3-0.3v-0.3c0-0.1,0-0.1-0.1-0.2l-0.2-0.2c-0.1-0.1-0.1-0.3,0-0.4l0.2-0.2c0.1-0.1,0.1-0.1,0.1-0.2V9.4
			c0-0.2,0.1-0.3,0.3-0.3h0.3c0.1,0,0.1,0,0.2-0.1l0.2-0.2c0.1-0.1,0.3-0.1,0.4,0L67.5,9c0.1,0.1,0.1,0.1,0.2,0.1H68
			c0.2,0,0.3,0.1,0.3,0.3v0.3c0,0.1,0,0.1,0.1,0.2l0.2,0.2c0.1,0.1,0.1,0.3,0,0.4l-0.2,0.2c-0.1,0.1-0.1,0.1-0.1,0.2l0,0.3
			C68.2,11.4,68.1,11.5,68,11.5z"/>
		
			<linearGradient id="SVGID_1_" gradientUnits="userSpaceOnUse" x1="-572.8546" y1="2527.0076" x2="-570.5678" y2="2529.2944" gradientTransform="matrix(0.7071 0.7071 -0.7071 0.7071 2258.9788 -1373.0498)">
			<stop  offset="0" style="stop-color:#000000"/>
			<stop  offset="0.1256" style="stop-color:#040404;stop-opacity:0.8995"/>
			<stop  offset="0.2511" style="stop-color:#100F0F;stop-opacity:0.7991"/>
			<stop  offset="0.3767" style="stop-color:#242322;stop-opacity:0.6986"/>
			<stop  offset="0.5025" style="stop-color:#403E3D;stop-opacity:0.598"/>
			<stop  offset="0.6284" style="stop-color:#65615F;stop-opacity:0.4973"/>
			<stop  offset="0.7544" style="stop-color:#918C89;stop-opacity:0.3965"/>
			<stop  offset="0.8782" style="stop-color:#C5BEBA;stop-opacity:0.2974"/>
			<stop  offset="1" style="stop-color:#FFF6F1;stop-opacity:0.2"/>
		</linearGradient>
		<path class="st355" d="M68,11.5l-0.3,0c-0.1,0-0.1,0-0.2,0.1l-0.2,0.2c-0.1,0.1-0.3,0.1-0.4,0l-0.2-0.2c-0.1-0.1-0.1-0.1-0.2-0.1
			h-0.3c-0.2,0-0.3-0.1-0.3-0.3v-0.3c0-0.1,0-0.1-0.1-0.2l-0.2-0.2c-0.1-0.1-0.1-0.3,0-0.4l0.2-0.2c0.1-0.1,0.1-0.1,0.1-0.2V9.4
			c0-0.2,0.1-0.3,0.3-0.3h0.3c0.1,0,0.1,0,0.2-0.1l0.2-0.2c0.1-0.1,0.3-0.1,0.4,0L67.5,9c0.1,0.1,0.1,0.1,0.2,0.1H68
			c0.2,0,0.3,0.1,0.3,0.3v0.3c0,0.1,0,0.1,0.1,0.2l0.2,0.2c0.1,0.1,0.1,0.3,0,0.4l-0.2,0.2c-0.1,0.1-0.1,0.1-0.1,0.2l0,0.3
			C68.2,11.4,68.1,11.5,68,11.5z"/>
		
			<linearGradient id="SVGID_2_" gradientUnits="userSpaceOnUse" x1="-186.332" y1="312.7188" x2="-184.0723" y2="314.9785" gradientTransform="matrix(1 0 0 1 252.2926 -303.5042)">
			<stop  offset="0" style="stop-color:#000000"/>
			<stop  offset="0.1256" style="stop-color:#040404;stop-opacity:0.8995"/>
			<stop  offset="0.2511" style="stop-color:#100F0F;stop-opacity:0.7991"/>
			<stop  offset="0.3767" style="stop-color:#242322;stop-opacity:0.6986"/>
			<stop  offset="0.5025" style="stop-color:#403E3D;stop-opacity:0.598"/>
			<stop  offset="0.6284" style="stop-color:#65615F;stop-opacity:0.4973"/>
			<stop  offset="0.7544" style="stop-color:#918C89;stop-opacity:0.3965"/>
			<stop  offset="0.8782" style="stop-color:#C5BEBA;stop-opacity:0.2974"/>
			<stop  offset="1" style="stop-color:#FFF6F1;stop-opacity:0.2"/>
		</linearGradient>
		<path class="st356" d="M68.5,10.5l-0.2,0.2c-0.1,0.1-0.1,0.1-0.1,0.2v0.3c0,0.2-0.1,0.3-0.3,0.3h-0.3c-0.1,0-0.1,0-0.2,0.1l-0.2,0.2
			c-0.1,0.1-0.3,0.1-0.4,0l-0.2-0.2c-0.1-0.1-0.1-0.1-0.2-0.1h-0.3c-0.2,0-0.3-0.1-0.3-0.3v-0.3c0-0.1,0-0.1-0.1-0.2l-0.2-0.2
			c-0.1-0.1-0.1-0.3,0-0.4l0.2-0.2c0.1-0.1,0.1-0.1,0.1-0.2V9.4c0-0.2,0.1-0.3,0.3-0.3h0.3c0.1,0,0.1,0,0.2-0.1l0.2-0.2
			c0.1-0.1,0.3-0.1,0.4,0L67.5,9c0.1,0.1,0.1,0.1,0.2,0.1H68c0.2,0,0.3,0.1,0.3,0.3v0.3c0,0.1,0,0.1,0.1,0.2l0.2,0.2
			C68.7,10.2,68.7,10.4,68.5,10.5z"/>
	</g>
</g>
<g>
	<g>
		<ellipse class="st353" cx="144.4" cy="10.3" rx="2.4" ry="2.4"/>
		<path class="st354" d="M145.3,11.5l-0.3,0c-0.1,0-0.1,0-0.2,0.1l-0.2,0.2c-0.1,0.1-0.3,0.1-0.4,0l-0.2-0.2c-0.1-0.1-0.1-0.1-0.2-0.1
			h-0.3c-0.2,0-0.3-0.1-0.3-0.3v-0.3c0-0.1,0-0.1-0.1-0.2l-0.2-0.2c-0.1-0.1-0.1-0.3,0-0.4l0.2-0.2c0.1-0.1,0.1-0.1,0.1-0.2V9.4
			c0-0.2,0.1-0.3,0.3-0.3h0.3c0.1,0,0.1,0,0.2-0.1l0.2-0.2c0.1-0.1,0.3-0.1,0.4,0l0.2,0.2c0.1,0.1,0.1,0.1,0.2,0.1h0.3
			c0.2,0,0.3,0.1,0.3,0.3v0.3c0,0.1,0,0.1,0.1,0.2l0.2,0.2c0.1,0.1,0.1,0.3,0,0.4l-0.2,0.2c-0.1,0.1-0.1,0.1-0.1,0.2l0,0.3
			C145.6,11.4,145.4,11.5,145.3,11.5z"/>
		
			<linearGradient id="SVGID_3_" gradientUnits="userSpaceOnUse" x1="-518.1802" y1="2472.3333" x2="-515.8935" y2="2474.6201" gradientTransform="matrix(0.7071 0.7071 -0.7071 0.7071 2258.9788 -1373.0498)">
			<stop  offset="0" style="stop-color:#000000"/>
			<stop  offset="0.1256" style="stop-color:#040404;stop-opacity:0.8995"/>
			<stop  offset="0.2511" style="stop-color:#100F0F;stop-opacity:0.7991"/>
			<stop  offset="0.3767" style="stop-color:#242322;stop-opacity:0.6986"/>
			<stop  offset="0.5025" style="stop-color:#403E3D;stop-opacity:0.598"/>
			<stop  offset="0.6284" style="stop-color:#65615F;stop-opacity:0.4973"/>
			<stop  offset="0.7544" style="stop-color:#918C89;stop-opacity:0.3965"/>
			<stop  offset="0.8782" style="stop-color:#C5BEBA;stop-opacity:0.2974"/>
			<stop  offset="1" style="stop-color:#FFF6F1;stop-opacity:0.2"/>
		</linearGradient>
		<path class="st357" d="M145.3,11.5l-0.3,0c-0.1,0-0.1,0-0.2,0.1l-0.2,0.2c-0.1,0.1-0.3,0.1-0.4,0l-0.2-0.2c-0.1-0.1-0.1-0.1-0.2-0.1
			h-0.3c-0.2,0-0.3-0.1-0.3-0.3v-0.3c0-0.1,0-0.1-0.1-0.2l-0.2-0.2c-0.1-0.1-0.1-0.3,0-0.4l0.2-0.2c0.1-0.1,0.1-0.1,0.1-0.2V9.4
			c0-0.2,0.1-0.3,0.3-0.3h0.3c0.1,0,0.1,0,0.2-0.1l0.2-0.2c0.1-0.1,0.3-0.1,0.4,0l0.2,0.2c0.1,0.1,0.1,0.1,0.2,0.1h0.3
			c0.2,0,0.3,0.1,0.3,0.3v0.3c0,0.1,0,0.1,0.1,0.2l0.2,0.2c0.1,0.1,0.1,0.3,0,0.4l-0.2,0.2c-0.1,0.1-0.1,0.1-0.1,0.2l0,0.3
			C145.6,11.4,145.4,11.5,145.3,11.5z"/>
		
			<linearGradient id="SVGID_4_" gradientUnits="userSpaceOnUse" x1="-109.0107" y1="312.7188" x2="-106.7511" y2="314.9785" gradientTransform="matrix(1 0 0 1 252.2926 -303.5042)">
			<stop  offset="0" style="stop-color:#000000"/>
			<stop  offset="0.1256" style="stop-color:#040404;stop-opacity:0.8995"/>
			<stop  offset="0.2511" style="stop-color:#100F0F;stop-opacity:0.7991"/>
			<stop  offset="0.3767" style="stop-color:#242322;stop-opacity:0.6986"/>
			<stop  offset="0.5025" style="stop-color:#403E3D;stop-opacity:0.598"/>
			<stop  offset="0.6284" style="stop-color:#65615F;stop-opacity:0.4973"/>
			<stop  offset="0.7544" style="stop-color:#918C89;stop-opacity:0.3965"/>
			<stop  offset="0.8782" style="stop-color:#C5BEBA;stop-opacity:0.2974"/>
			<stop  offset="1" style="stop-color:#FFF6F1;stop-opacity:0.2"/>
		</linearGradient>
		<path class="st358" d="M145.9,10.5l-0.2,0.2c-0.1,0.1-0.1,0.1-0.1,0.2v0.3c0,0.2-0.1,0.3-0.3,0.3H145c-0.1,0-0.1,0-0.2,0.1l-0.2,0.2
			c-0.1,0.1-0.3,0.1-0.4,0l-0.2-0.2c-0.1-0.1-0.1-0.1-0.2-0.1h-0.3c-0.2,0-0.3-0.1-0.3-0.3v-0.3c0-0.1,0-0.1-0.1-0.2l-0.2-0.2
			c-0.1-0.1-0.1-0.3,0-0.4l0.2-0.2c0.1-0.1,0.1-0.1,0.1-0.2V9.4c0-0.2,0.1-0.3,0.3-0.3h0.3c0.1,0,0.1,0,0.2-0.1l0.2-0.2
			c0.1-0.1,0.3-0.1,0.4,0l0.2,0.2c0.1,0.1,0.1,0.1,0.2,0.1h0.3c0.2,0,0.3,0.1,0.3,0.3v0.3c0,0.1,0,0.1,0.1,0.2l0.2,0.2
			C146,10.2,146,10.4,145.9,10.5z"/>
	</g>
</g>
<g>
	<g>
		<ellipse class="st353" cx="144.4" cy="88.5" rx="2.4" ry="2.4"/>
		<path class="st354" d="M145.3,89.8l-0.3,0c-0.1,0-0.1,0-0.2,0.1l-0.2,0.2c-0.1,0.1-0.3,0.1-0.4,0l-0.2-0.2c-0.1-0.1-0.1-0.1-0.2-0.1
			h-0.3c-0.2,0-0.3-0.1-0.3-0.3v-0.3c0-0.1,0-0.1-0.1-0.2l-0.2-0.2c-0.1-0.1-0.1-0.3,0-0.4l0.2-0.2c0.1-0.1,0.1-0.1,0.1-0.2v-0.3
			c0-0.2,0.1-0.3,0.3-0.3h0.3c0.1,0,0.1,0,0.2-0.1l0.2-0.2c0.1-0.1,0.3-0.1,0.4,0l0.2,0.2c0.1,0.1,0.1,0.1,0.2,0.1h0.3
			c0.2,0,0.3,0.1,0.3,0.3v0.3c0,0.1,0,0.1,0.1,0.2l0.2,0.2c0.1,0.1,0.1,0.3,0,0.4l-0.2,0.2c-0.1,0.1-0.1,0.1-0.1,0.2l0,0.3
			C145.6,89.6,145.4,89.8,145.3,89.8z"/>
		
			<linearGradient id="SVGID_5_" gradientUnits="userSpaceOnUse" x1="-462.8494" y1="2527.6641" x2="-460.5626" y2="2529.9509" gradientTransform="matrix(0.7071 0.7071 -0.7071 0.7071 2258.9788 -1373.0498)">
			<stop  offset="0" style="stop-color:#000000"/>
			<stop  offset="0.1256" style="stop-color:#040404;stop-opacity:0.8995"/>
			<stop  offset="0.2511" style="stop-color:#100F0F;stop-opacity:0.7991"/>
			<stop  offset="0.3767" style="stop-color:#242322;stop-opacity:0.6986"/>
			<stop  offset="0.5025" style="stop-color:#403E3D;stop-opacity:0.598"/>
			<stop  offset="0.6284" style="stop-color:#65615F;stop-opacity:0.4973"/>
			<stop  offset="0.7544" style="stop-color:#918C89;stop-opacity:0.3965"/>
			<stop  offset="0.8782" style="stop-color:#C5BEBA;stop-opacity:0.2974"/>
			<stop  offset="1" style="stop-color:#FFF6F1;stop-opacity:0.2"/>
		</linearGradient>
		<path class="st359" d="M145.3,89.8l-0.3,0c-0.1,0-0.1,0-0.2,0.1l-0.2,0.2c-0.1,0.1-0.3,0.1-0.4,0l-0.2-0.2c-0.1-0.1-0.1-0.1-0.2-0.1
			h-0.3c-0.2,0-0.3-0.1-0.3-0.3v-0.3c0-0.1,0-0.1-0.1-0.2l-0.2-0.2c-0.1-0.1-0.1-0.3,0-0.4l0.2-0.2c0.1-0.1,0.1-0.1,0.1-0.2v-0.3
			c0-0.2,0.1-0.3,0.3-0.3h0.3c0.1,0,0.1,0,0.2-0.1l0.2-0.2c0.1-0.1,0.3-0.1,0.4,0l0.2,0.2c0.1,0.1,0.1,0.1,0.2,0.1h0.3
			c0.2,0,0.3,0.1,0.3,0.3v0.3c0,0.1,0,0.1,0.1,0.2l0.2,0.2c0.1,0.1,0.1,0.3,0,0.4l-0.2,0.2c-0.1,0.1-0.1,0.1-0.1,0.2l0,0.3
			C145.6,89.6,145.4,89.8,145.3,89.8z"/>
		
			<linearGradient id="SVGID_6_" gradientUnits="userSpaceOnUse" x1="-109.0107" y1="390.9685" x2="-106.7511" y2="393.2281" gradientTransform="matrix(1 0 0 1 252.2926 -303.5042)">
			<stop  offset="0" style="stop-color:#000000"/>
			<stop  offset="0.1256" style="stop-color:#040404;stop-opacity:0.8995"/>
			<stop  offset="0.2511" style="stop-color:#100F0F;stop-opacity:0.7991"/>
			<stop  offset="0.3767" style="stop-color:#242322;stop-opacity:0.6986"/>
			<stop  offset="0.5025" style="stop-color:#403E3D;stop-opacity:0.598"/>
			<stop  offset="0.6284" style="stop-color:#65615F;stop-opacity:0.4973"/>
			<stop  offset="0.7544" style="stop-color:#918C89;stop-opacity:0.3965"/>
			<stop  offset="0.8782" style="stop-color:#C5BEBA;stop-opacity:0.2974"/>
			<stop  offset="1" style="stop-color:#FFF6F1;stop-opacity:0.2"/>
		</linearGradient>
		<path class="st360" d="M145.9,88.7l-0.2,0.2c-0.1,0.1-0.1,0.1-0.1,0.2v0.3c0,0.2-0.1,0.3-0.3,0.3H145c-0.1,0-0.1,0-0.2,0.1
			l-0.2,0.2c-0.1,0.1-0.3,0.1-0.4,0l-0.2-0.2c-0.1-0.1-0.1-0.1-0.2-0.1h-0.3c-0.2,0-0.3-0.1-0.3-0.3v-0.3c0-0.1,0-0.1-0.1-0.2
			l-0.2-0.2c-0.1-0.1-0.1-0.3,0-0.4l0.2-0.2c0.1-0.1,0.1-0.1,0.1-0.2v-0.3c0-0.2,0.1-0.3,0.3-0.3h0.3c0.1,0,0.1,0,0.2-0.1l0.2-0.2
			c0.1-0.1,0.3-0.1,0.4,0l0.2,0.2c0.1,0.1,0.1,0.1,0.2,0.1h0.3c0.2,0,0.3,0.1,0.3,0.3v0.3c0,0.1,0,0.1,0.1,0.2l0.2,0.2
			C146,88.5,146,88.6,145.9,88.7z"/>
	</g>
</g>
<g>
	<g>
		<ellipse class="st353" cx="67" cy="88.5" rx="2.4" ry="2.4"/>
		<path class="st354" d="M68,89.8l-0.3,0c-0.1,0-0.1,0-0.2,0.1l-0.2,0.2c-0.1,0.1-0.3,0.1-0.4,0l-0.2-0.2c-0.1-0.1-0.1-0.1-0.2-0.1
			h-0.3c-0.2,0-0.3-0.1-0.3-0.3v-0.3c0-0.1,0-0.1-0.1-0.2l-0.2-0.2c-0.1-0.1-0.1-0.3,0-0.4l0.2-0.2c0.1-0.1,0.1-0.1,0.1-0.2v-0.3
			c0-0.2,0.1-0.3,0.3-0.3h0.3c0.1,0,0.1,0,0.2-0.1l0.2-0.2c0.1-0.1,0.3-0.1,0.4,0l0.2,0.2c0.1,0.1,0.1,0.1,0.2,0.1H68
			c0.2,0,0.3,0.1,0.3,0.3v0.3c0,0.1,0,0.1,0.1,0.2l0.2,0.2c0.1,0.1,0.1,0.3,0,0.4L68.3,89c-0.1,0.1-0.1,0.1-0.1,0.2l0,0.3
			C68.2,89.6,68.1,89.8,68,89.8z"/>
		
			<linearGradient id="SVGID_7_" gradientUnits="userSpaceOnUse" x1="-517.5237" y1="2582.3384" x2="-515.2369" y2="2584.6252" gradientTransform="matrix(0.7071 0.7071 -0.7071 0.7071 2258.9788 -1373.0498)">
			<stop  offset="0" style="stop-color:#000000"/>
			<stop  offset="0.1256" style="stop-color:#040404;stop-opacity:0.8995"/>
			<stop  offset="0.2511" style="stop-color:#100F0F;stop-opacity:0.7991"/>
			<stop  offset="0.3767" style="stop-color:#242322;stop-opacity:0.6986"/>
			<stop  offset="0.5025" style="stop-color:#403E3D;stop-opacity:0.598"/>
			<stop  offset="0.6284" style="stop-color:#65615F;stop-opacity:0.4973"/>
			<stop  offset="0.7544" style="stop-color:#918C89;stop-opacity:0.3965"/>
			<stop  offset="0.8782" style="stop-color:#C5BEBA;stop-opacity:0.2974"/>
			<stop  offset="1" style="stop-color:#FFF6F1;stop-opacity:0.2"/>
		</linearGradient>
		<path class="st361" d="M68,89.8l-0.3,0c-0.1,0-0.1,0-0.2,0.1l-0.2,0.2c-0.1,0.1-0.3,0.1-0.4,0l-0.2-0.2c-0.1-0.1-0.1-0.1-0.2-0.1
			h-0.3c-0.2,0-0.3-0.1-0.3-0.3v-0.3c0-0.1,0-0.1-0.1-0.2l-0.2-0.2c-0.1-0.1-0.1-0.3,0-0.4l0.2-0.2c0.1-0.1,0.1-0.1,0.1-0.2v-0.3
			c0-0.2,0.1-0.3,0.3-0.3h0.3c0.1,0,0.1,0,0.2-0.1l0.2-0.2c0.1-0.1,0.3-0.1,0.4,0l0.2,0.2c0.1,0.1,0.1,0.1,0.2,0.1H68
			c0.2,0,0.3,0.1,0.3,0.3v0.3c0,0.1,0,0.1,0.1,0.2l0.2,0.2c0.1,0.1,0.1,0.3,0,0.4L68.3,89c-0.1,0.1-0.1,0.1-0.1,0.2l0,0.3
			C68.2,89.6,68.1,89.8,68,89.8z"/>
		
			<linearGradient id="SVGID_8_" gradientUnits="userSpaceOnUse" x1="-186.332" y1="390.9685" x2="-184.0723" y2="393.2281" gradientTransform="matrix(1 0 0 1 252.2926 -303.5042)">
			<stop  offset="0" style="stop-color:#000000"/>
			<stop  offset="0.1256" style="stop-color:#040404;stop-opacity:0.8995"/>
			<stop  offset="0.2511" style="stop-color:#100F0F;stop-opacity:0.7991"/>
			<stop  offset="0.3767" style="stop-color:#242322;stop-opacity:0.6986"/>
			<stop  offset="0.5025" style="stop-color:#403E3D;stop-opacity:0.598"/>
			<stop  offset="0.6284" style="stop-color:#65615F;stop-opacity:0.4973"/>
			<stop  offset="0.7544" style="stop-color:#918C89;stop-opacity:0.3965"/>
			<stop  offset="0.8782" style="stop-color:#C5BEBA;stop-opacity:0.2974"/>
			<stop  offset="1" style="stop-color:#FFF6F1;stop-opacity:0.2"/>
		</linearGradient>
		<path class="st362" d="M68.5,88.7L68.3,89c-0.1,0.1-0.1,0.1-0.1,0.2v0.3c0,0.2-0.1,0.3-0.3,0.3h-0.3c-0.1,0-0.1,0-0.2,0.1l-0.2,0.2
			c-0.1,0.1-0.3,0.1-0.4,0l-0.2-0.2c-0.1-0.1-0.1-0.1-0.2-0.1h-0.3c-0.2,0-0.3-0.1-0.3-0.3v-0.3c0-0.1,0-0.1-0.1-0.2l-0.2-0.2
			c-0.1-0.1-0.1-0.3,0-0.4l0.2-0.2c0.1-0.1,0.1-0.1,0.1-0.2v-0.3c0-0.2,0.1-0.3,0.3-0.3h0.3c0.1,0,0.1,0,0.2-0.1l0.2-0.2
			c0.1-0.1,0.3-0.1,0.4,0l0.2,0.2c0.1,0.1,0.1,0.1,0.2,0.1H68c0.2,0,0.3,0.1,0.3,0.3v0.3c0,0.1,0,0.1,0.1,0.2l0.2,0.2
			C68.7,88.5,68.7,88.6,68.5,88.7z"/>
	</g>
</g>
<path class="st363" d="M54.4,87.7l-4.6,2.7c-0.4,0.2-0.9,0.4-1.4,0.4h-29c-0.5,0-1-0.1-1.4-0.4l-4.6-2.7c-0.9-0.5-1.4-1.5-1.4-2.5
	v-5.9c0-1,0.6-2,1.4-2.5l4.4-2.5c0.4-0.2,0.9-0.4,1.4-0.4h29.3c0.5,0,0.9,0.1,1.4,0.4l4.4,2.5c0.9,0.5,1.4,1.5,1.4,2.5v5.9
	C55.8,86.3,55.3,87.2,54.4,87.7z"/>
<g>
	<g>
		<ellipse class="st353" cx="53.4" cy="82.4" rx="1.6" ry="1.6"/>
		<path class="st354" d="M54.1,83.2l-0.2,0c0,0-0.1,0-0.1,0.1l-0.1,0.1c-0.1,0.1-0.2,0.1-0.3,0l-0.1-0.1c0,0-0.1-0.1-0.1-0.1h-0.2
			c-0.1,0-0.2-0.1-0.2-0.2v-0.2c0,0,0-0.1-0.1-0.1l-0.1-0.1c-0.1-0.1-0.1-0.2,0-0.3l0.1-0.1c0,0,0.1-0.1,0.1-0.1v-0.2
			c0-0.1,0.1-0.2,0.2-0.2H53c0,0,0.1,0,0.1-0.1l0.1-0.1c0.1-0.1,0.2-0.1,0.3,0l0.1,0.1c0,0,0.1,0.1,0.1,0.1h0.2
			c0.1,0,0.2,0.1,0.2,0.2v0.2c0,0,0,0.1,0.1,0.1l0.1,0.1c0.1,0.1,0.1,0.2,0,0.3l-0.1,0.1c0,0-0.1,0.1-0.1,0.1l0,0.2
			C54.2,83.1,54.2,83.2,54.1,83.2z"/>
		
			<linearGradient id="SVGID_9_" gradientUnits="userSpaceOnUse" x1="-531.1464" y1="2587.9448" x2="-529.6348" y2="2589.4563" gradientTransform="matrix(0.7071 0.7071 -0.7071 0.7071 2258.9788 -1373.0498)">
			<stop  offset="0" style="stop-color:#000000"/>
			<stop  offset="0.1256" style="stop-color:#040404;stop-opacity:0.8995"/>
			<stop  offset="0.2511" style="stop-color:#100F0F;stop-opacity:0.7991"/>
			<stop  offset="0.3767" style="stop-color:#242322;stop-opacity:0.6986"/>
			<stop  offset="0.5025" style="stop-color:#403E3D;stop-opacity:0.598"/>
			<stop  offset="0.6284" style="stop-color:#65615F;stop-opacity:0.4973"/>
			<stop  offset="0.7544" style="stop-color:#918C89;stop-opacity:0.3965"/>
			<stop  offset="0.8782" style="stop-color:#C5BEBA;stop-opacity:0.2974"/>
			<stop  offset="1" style="stop-color:#FFF6F1;stop-opacity:0.2"/>
		</linearGradient>
		<path class="st364" d="M54.1,83.2l-0.2,0c0,0-0.1,0-0.1,0.1l-0.1,0.1c-0.1,0.1-0.2,0.1-0.3,0l-0.1-0.1c0,0-0.1-0.1-0.1-0.1h-0.2
			c-0.1,0-0.2-0.1-0.2-0.2v-0.2c0,0,0-0.1-0.1-0.1l-0.1-0.1c-0.1-0.1-0.1-0.2,0-0.3l0.1-0.1c0,0,0.1-0.1,0.1-0.1v-0.2
			c0-0.1,0.1-0.2,0.2-0.2H53c0,0,0.1,0,0.1-0.1l0.1-0.1c0.1-0.1,0.2-0.1,0.3,0l0.1,0.1c0,0,0.1,0.1,0.1,0.1h0.2
			c0.1,0,0.2,0.1,0.2,0.2v0.2c0,0,0,0.1,0.1,0.1l0.1,0.1c0.1,0.1,0.1,0.2,0,0.3l-0.1,0.1c0,0-0.1,0.1-0.1,0.1l0,0.2
			C54.2,83.1,54.2,83.2,54.1,83.2z"/>
		
			<linearGradient id="SVGID_10_" gradientUnits="userSpaceOnUse" x1="-199.5612" y1="385.1409" x2="-198.0676" y2="386.6345" gradientTransform="matrix(1 0 0 1 252.2926 -303.5042)">
			<stop  offset="0" style="stop-color:#000000"/>
			<stop  offset="0.1256" style="stop-color:#040404;stop-opacity:0.8995"/>
			<stop  offset="0.2511" style="stop-color:#100F0F;stop-opacity:0.7991"/>
			<stop  offset="0.3767" style="stop-color:#242322;stop-opacity:0.6986"/>
			<stop  offset="0.5025" style="stop-color:#403E3D;stop-opacity:0.598"/>
			<stop  offset="0.6284" style="stop-color:#65615F;stop-opacity:0.4973"/>
			<stop  offset="0.7544" style="stop-color:#918C89;stop-opacity:0.3965"/>
			<stop  offset="0.8782" style="stop-color:#C5BEBA;stop-opacity:0.2974"/>
			<stop  offset="1" style="stop-color:#FFF6F1;stop-opacity:0.2"/>
		</linearGradient>
		<path class="st365" d="M54.4,82.5l-0.1,0.1c0,0-0.1,0.1-0.1,0.1V83c0,0.1-0.1,0.2-0.2,0.2h-0.2c0,0-0.1,0-0.1,0.1l-0.1,0.1
			c-0.1,0.1-0.2,0.1-0.3,0l-0.1-0.1c0,0-0.1-0.1-0.1-0.1h-0.2c-0.1,0-0.2-0.1-0.2-0.2v-0.2c0,0,0-0.1-0.1-0.1l-0.1-0.1
			c-0.1-0.1-0.1-0.2,0-0.3l0.1-0.1c0,0,0.1-0.1,0.1-0.1v-0.2c0-0.1,0.1-0.2,0.2-0.2H53c0,0,0.1,0,0.1-0.1l0.1-0.1
			c0.1-0.1,0.2-0.1,0.3,0l0.1,0.1c0,0,0.1,0.1,0.1,0.1h0.2c0.1,0,0.2,0.1,0.2,0.2v0.2c0,0,0,0.1,0.1,0.1l0.1,0.1
			C54.5,82.3,54.5,82.4,54.4,82.5z"/>
	</g>
</g>
<g>
	<g>
		<ellipse class="st353" cx="14.2" cy="82.4" rx="1.6" ry="1.6"/>
		<path class="st354" d="M14.8,83.2l-0.2,0c0,0-0.1,0-0.1,0.1l-0.1,0.1c-0.1,0.1-0.2,0.1-0.3,0l-0.1-0.1c0,0-0.1-0.1-0.1-0.1h-0.2
			c-0.1,0-0.2-0.1-0.2-0.2v-0.2c0,0,0-0.1-0.1-0.1l-0.1-0.1c-0.1-0.1-0.1-0.2,0-0.3l0.1-0.1c0,0,0.1-0.1,0.1-0.1v-0.2
			c0-0.1,0.1-0.2,0.2-0.2h0.2c0,0,0.1,0,0.1-0.1l0.1-0.1c0.1-0.1,0.2-0.1,0.3,0l0.1,0.1c0,0,0.1,0.1,0.1,0.1h0.2
			c0.1,0,0.2,0.1,0.2,0.2v0.2c0,0,0,0.1,0.1,0.1l0.1,0.1c0.1,0.1,0.1,0.2,0,0.3L15,82.6c0,0-0.1,0.1-0.1,0.1l0,0.2
			C15,83.1,14.9,83.2,14.8,83.2z"/>
		
			<linearGradient id="SVGID_11_" gradientUnits="userSpaceOnUse" x1="-558.9261" y1="2615.7244" x2="-557.4146" y2="2617.2361" gradientTransform="matrix(0.7071 0.7071 -0.7071 0.7071 2258.9788 -1373.0498)">
			<stop  offset="0" style="stop-color:#000000"/>
			<stop  offset="0.1256" style="stop-color:#040404;stop-opacity:0.8995"/>
			<stop  offset="0.2511" style="stop-color:#100F0F;stop-opacity:0.7991"/>
			<stop  offset="0.3767" style="stop-color:#242322;stop-opacity:0.6986"/>
			<stop  offset="0.5025" style="stop-color:#403E3D;stop-opacity:0.598"/>
			<stop  offset="0.6284" style="stop-color:#65615F;stop-opacity:0.4973"/>
			<stop  offset="0.7544" style="stop-color:#918C89;stop-opacity:0.3965"/>
			<stop  offset="0.8782" style="stop-color:#C5BEBA;stop-opacity:0.2974"/>
			<stop  offset="1" style="stop-color:#FFF6F1;stop-opacity:0.2"/>
		</linearGradient>
		<path class="st366" d="M14.8,83.2l-0.2,0c0,0-0.1,0-0.1,0.1l-0.1,0.1c-0.1,0.1-0.2,0.1-0.3,0l-0.1-0.1c0,0-0.1-0.1-0.1-0.1h-0.2
			c-0.1,0-0.2-0.1-0.2-0.2v-0.2c0,0,0-0.1-0.1-0.1l-0.1-0.1c-0.1-0.1-0.1-0.2,0-0.3l0.1-0.1c0,0,0.1-0.1,0.1-0.1v-0.2
			c0-0.1,0.1-0.2,0.2-0.2h0.2c0,0,0.1,0,0.1-0.1l0.1-0.1c0.1-0.1,0.2-0.1,0.3,0l0.1,0.1c0,0,0.1,0.1,0.1,0.1h0.2
			c0.1,0,0.2,0.1,0.2,0.2v0.2c0,0,0,0.1,0.1,0.1l0.1,0.1c0.1,0.1,0.1,0.2,0,0.3L15,82.6c0,0-0.1,0.1-0.1,0.1l0,0.2
			C15,83.1,14.9,83.2,14.8,83.2z"/>
		
			<linearGradient id="SVGID_12_" gradientUnits="userSpaceOnUse" x1="-238.8477" y1="385.1409" x2="-237.354" y2="386.6345" gradientTransform="matrix(1 0 0 1 252.2926 -303.5042)">
			<stop  offset="0" style="stop-color:#000000"/>
			<stop  offset="0.1256" style="stop-color:#040404;stop-opacity:0.8995"/>
			<stop  offset="0.2511" style="stop-color:#100F0F;stop-opacity:0.7991"/>
			<stop  offset="0.3767" style="stop-color:#242322;stop-opacity:0.6986"/>
			<stop  offset="0.5025" style="stop-color:#403E3D;stop-opacity:0.598"/>
			<stop  offset="0.6284" style="stop-color:#65615F;stop-opacity:0.4973"/>
			<stop  offset="0.7544" style="stop-color:#918C89;stop-opacity:0.3965"/>
			<stop  offset="0.8782" style="stop-color:#C5BEBA;stop-opacity:0.2974"/>
			<stop  offset="1" style="stop-color:#FFF6F1;stop-opacity:0.2"/>
		</linearGradient>
		<path class="st367" d="M15.2,82.5L15,82.6c0,0-0.1,0.1-0.1,0.1V83c0,0.1-0.1,0.2-0.2,0.2h-0.2c0,0-0.1,0-0.1,0.1l-0.1,0.1
			c-0.1,0.1-0.2,0.1-0.3,0l-0.1-0.1c0,0-0.1-0.1-0.1-0.1h-0.2c-0.1,0-0.2-0.1-0.2-0.2v-0.2c0,0,0-0.1-0.1-0.1l-0.1-0.1
			c-0.1-0.1-0.1-0.2,0-0.3l0.1-0.1c0,0,0.1-0.1,0.1-0.1v-0.2c0-0.1,0.1-0.2,0.2-0.2h0.2c0,0,0.1,0,0.1-0.1l0.1-0.1
			c0.1-0.1,0.2-0.1,0.3,0l0.1,0.1c0,0,0.1,0.1,0.1,0.1h0.2c0.1,0,0.2,0.1,0.2,0.2v0.2c0,0,0,0.1,0.1,0.1l0.1,0.1
			C15.2,82.3,15.2,82.4,15.2,82.5z"/>
	</g>
</g>
<path class="st368" d="M51.6,89.4l-1.8,1c-0.3,0.2-0.5,0.2-0.5,0.2l0.1-16.6c0,0,0.2,0,0.6,0.3l1.7,1L51.6,89.4z"/>
<path class="st363" d="M47.7,91.4H20.1c-1.1,0-2-0.9-2-2V75.2c0-1.1,0.9-2,2-2h27.6c1.1,0,2,0.9,2,2v14.2
	C49.7,90.5,48.8,91.4,47.7,91.4z"/>
<g class="st19">
	<linearGradient id="SVGID_13_" gradientUnits="userSpaceOnUse" x1="21.8483" y1="83.1491" x2="52.0593" y2="83.1491">
		<stop  offset="0" style="stop-color:#000000"/>
		<stop  offset="0.8587" style="stop-color:#000000;stop-opacity:0.1413"/>
		<stop  offset="1" style="stop-color:#000000;stop-opacity:0"/>
	</linearGradient>
	<path class="st370" d="M47.6,90.4H20.3c-0.5,0-0.9-0.4-0.9-1v-8.9c0-0.3,0.1-0.5,0.3-0.7l3.7-3.8c0.2-0.2,0.4-0.3,0.7-0.3h19.9
		c0.2,0,0.5,0.1,0.7,0.3l3.7,3.8c0.2,0.2,0.3,0.4,0.3,0.7v8.9C48.5,90,48.1,90.4,47.6,90.4z"/>
</g>
<path class="st371" d="M47.6,90.4H20.3c-0.5,0-0.9-0.4-0.9-1v-8.9c0-0.3,0.1-0.5,0.3-0.7l3.7-3.8c0.2-0.2,0.4-0.3,0.7-0.3h19.9
	c0.2,0,0.5,0.1,0.7,0.3l3.7,3.8c0.2,0.2,0.3,0.4,0.3,0.7v8.9C48.5,90,48.1,90.4,47.6,90.4z"/>
<rect x="33.5" y="78.8" class="st372" width="0.8" height="4.2"/>
<rect x="26.2" y="81.3" class="st372" width="0.8" height="4.2"/>
<rect x="40.8" y="81.3" class="st372" width="0.8" height="4.2"/>
<path class="st373" d="M18.7,73.7v17.2c0,0-0.6-0.5-0.6-1.5V75C18.1,74.3,18.7,73.7,18.7,73.7z"/>
</svg>
