<?xml version="1.0" encoding="utf-8"?>
<!-- Generator: Adobe Illustrator 23.1.1, SVG Export Plug-In . SVG Version: 6.00 Build 0)  -->
<svg version="1.1" id="Layer_1" xmlns="http://www.w3.org/2000/svg" xmlns:xlink="http://www.w3.org/1999/xlink" x="0px" y="0px"
	 viewBox="0 0 217.8 21.5" style="enable-background:new 0 0 217.8 21.5;" xml:space="preserve">
<style type="text/css">
	.st0{opacity:0.2;fill:url(#SVGID_1_);}
	.st1{opacity:0.2;fill:url(#SVGID_2_);}
	.st2{opacity:0.2;fill:url(#SVGID_3_);}
	.st3{fill:#3A3F41;}
	.st4{fill:#010101;}
	.st5{fill:#F2F1DD;}
	.st6{fill:url(#SVGID_4_);}
	.st7{fill:url(#SVGID_5_);}
	.st8{fill:url(#SVGID_6_);}
	.st9{fill:url(#SVGID_7_);}
	.st10{fill:url(#SVGID_8_);}
	.st11{fill:url(#SVGID_9_);}
	.st12{fill:url(#SVGID_10_);}
	.st13{fill:url(#SVGID_11_);}
	.st14{fill:url(#SVGID_12_);}
	.st15{fill:url(#SVGID_13_);}
	.st16{fill:url(#SVGID_14_);}
	.st17{fill:url(#SVGID_15_);}
	.st18{fill:url(#SVGID_16_);}
	.st19{fill:url(#SVGID_17_);}
	.st20{fill:url(#SVGID_18_);}
	.st21{fill:url(#SVGID_19_);}
	.st22{fill:url(#SVGID_20_);}
	.st23{fill:url(#SVGID_21_);}
	.st24{fill:url(#SVGID_22_);}
	.st25{fill:url(#SVGID_23_);}
	.st26{opacity:0.4;fill:url(#SVGID_24_);}
	.st27{opacity:0.4;fill:url(#SVGID_25_);}
	.st28{opacity:0.4;fill:url(#SVGID_26_);}
	.st29{opacity:0.4;fill:url(#SVGID_27_);}
	.st30{opacity:0.4;fill:url(#SVGID_28_);}
	.st31{opacity:0.4;fill:url(#SVGID_29_);}
	.st32{opacity:0.4;fill:url(#SVGID_30_);}
	.st33{opacity:0.4;fill:url(#SVGID_31_);}
</style>
<g>
	
		<linearGradient id="SVGID_1_" gradientUnits="userSpaceOnUse" x1="2558.3279" y1="2393.9817" x2="2562.467" y2="2393.9817" gradientTransform="matrix(0 1 -1 0 2497.8572 -2543.1782)">
		<stop  offset="0" style="stop-color:#000000"/>
		<stop  offset="6.558071e-02" style="stop-color:#040404;stop-opacity:0.8822"/>
		<stop  offset="0.1349" style="stop-color:#111010;stop-opacity:0.7576"/>
		<stop  offset="0.2061" style="stop-color:#262524;stop-opacity:0.6299"/>
		<stop  offset="0.2784" style="stop-color:#444240;stop-opacity:0.4999"/>
		<stop  offset="0.3518" style="stop-color:#6A6765;stop-opacity:0.3681"/>
		<stop  offset="0.426" style="stop-color:#999491;stop-opacity:0.2349"/>
		<stop  offset="0.4993" style="stop-color:#CFC9C5;stop-opacity:0.1031"/>
		<stop  offset="0.5568" style="stop-color:#FFF7F2;stop-opacity:0"/>
	</linearGradient>
	<polygon class="st0" points="0,18.4 0,15.1 207.8,15.1 207.8,18.4 	"/>
	
		<linearGradient id="SVGID_2_" gradientUnits="userSpaceOnUse" x1="2552.6387" y1="2393.9678" x2="2556.8069" y2="2393.9678" gradientTransform="matrix(0 1 -1 0 2497.8572 -2543.1782)">
		<stop  offset="0" style="stop-color:#000000"/>
		<stop  offset="6.558071e-02" style="stop-color:#040404;stop-opacity:0.8822"/>
		<stop  offset="0.1349" style="stop-color:#111010;stop-opacity:0.7576"/>
		<stop  offset="0.2061" style="stop-color:#262524;stop-opacity:0.6299"/>
		<stop  offset="0.2784" style="stop-color:#444240;stop-opacity:0.4999"/>
		<stop  offset="0.3518" style="stop-color:#6A6765;stop-opacity:0.3681"/>
		<stop  offset="0.426" style="stop-color:#999491;stop-opacity:0.2349"/>
		<stop  offset="0.4993" style="stop-color:#CFC9C5;stop-opacity:0.1031"/>
		<stop  offset="0.5568" style="stop-color:#FFF7F2;stop-opacity:0"/>
	</linearGradient>
	<polygon class="st1" points="0,12.7 0,9.5 207.8,9.4 207.8,12.7 	"/>
	
		<linearGradient id="SVGID_3_" gradientUnits="userSpaceOnUse" x1="2547.5925" y1="2393.9817" x2="2551.7317" y2="2393.9817" gradientTransform="matrix(0 1 -1 0 2497.8572 -2543.1782)">
		<stop  offset="0" style="stop-color:#000000"/>
		<stop  offset="6.558071e-02" style="stop-color:#040404;stop-opacity:0.8822"/>
		<stop  offset="0.1349" style="stop-color:#111010;stop-opacity:0.7576"/>
		<stop  offset="0.2061" style="stop-color:#262524;stop-opacity:0.6299"/>
		<stop  offset="0.2784" style="stop-color:#444240;stop-opacity:0.4999"/>
		<stop  offset="0.3518" style="stop-color:#6A6765;stop-opacity:0.3681"/>
		<stop  offset="0.426" style="stop-color:#999491;stop-opacity:0.2349"/>
		<stop  offset="0.4993" style="stop-color:#CFC9C5;stop-opacity:0.1031"/>
		<stop  offset="0.5568" style="stop-color:#FFF7F2;stop-opacity:0"/>
	</linearGradient>
	<polygon class="st2" points="0,7.6 0,4.4 207.8,4.4 207.8,7.6 	"/>
	<g>
		
			<rect x="101.6" y="-84.7" transform="matrix(6.123234e-17 -1 1 6.123234e-17 84.544 123.1103)" class="st3" width="4.4" height="207.9"/>
		<g>
			
				<rect x="-0.5" y="18.8" transform="matrix(6.123234e-17 -1 1 6.123234e-17 -18.274 20.2922)" class="st4" width="3.1" height="1.1"/>
			
				<rect x="1.1" y="18.8" transform="matrix(6.123234e-17 -1 1 6.123234e-17 -16.6088 21.9575)" class="st4" width="3.1" height="1.1"/>
			
				<rect x="2.8" y="18.8" transform="matrix(6.123234e-17 -1 1 6.123234e-17 -14.9435 23.6227)" class="st4" width="3.1" height="1.1"/>
			
				<rect x="4.5" y="18.8" transform="matrix(6.123234e-17 -1 1 6.123234e-17 -13.2783 25.2879)" class="st4" width="3.1" height="1.1"/>
			
				<rect x="6.1" y="18.8" transform="matrix(6.123234e-17 -1 1 6.123234e-17 -11.6131 26.9532)" class="st4" width="3.1" height="1.1"/>
			
				<rect x="7.8" y="18.8" transform="matrix(6.123234e-17 -1 1 6.123234e-17 -9.9479 28.6184)" class="st4" width="3.1" height="1.1"/>
			
				<rect x="9.5" y="18.8" transform="matrix(6.123234e-17 -1 1 6.123234e-17 -8.2826 30.2836)" class="st4" width="3.1" height="1.1"/>
			
				<rect x="11.1" y="18.8" transform="matrix(6.123234e-17 -1 1 6.123234e-17 -6.6174 31.9488)" class="st4" width="3.1" height="1.1"/>
			
				<rect x="12.8" y="18.8" transform="matrix(6.123234e-17 -1 1 6.123234e-17 -4.9522 33.6141)" class="st4" width="3.1" height="1.1"/>
			
				<rect x="14.5" y="18.8" transform="matrix(6.123234e-17 -1 1 6.123234e-17 -3.287 35.2793)" class="st4" width="3.1" height="1.1"/>
			
				<rect x="16.1" y="18.8" transform="matrix(6.123234e-17 -1 1 6.123234e-17 -1.6217 36.9445)" class="st4" width="3.1" height="1.1"/>
			
				<rect x="17.8" y="18.8" transform="matrix(6.123234e-17 -1 1 6.123234e-17 4.350125e-02 38.6097)" class="st4" width="3.1" height="1.1"/>
			
				<rect x="19.5" y="18.8" transform="matrix(6.123234e-17 -1 1 6.123234e-17 1.7087 40.275)" class="st4" width="3.1" height="1.1"/>
			
				<rect x="21.1" y="18.8" transform="matrix(6.123234e-17 -1 1 6.123234e-17 3.374 41.9402)" class="st4" width="3.1" height="1.1"/>
			
				<rect x="22.8" y="18.8" transform="matrix(6.123234e-17 -1 1 6.123234e-17 5.0392 43.6054)" class="st4" width="3.1" height="1.1"/>
			
				<rect x="24.5" y="18.8" transform="matrix(6.123234e-17 -1 1 6.123234e-17 6.7044 45.2706)" class="st4" width="3.1" height="1.1"/>
			
				<rect x="26.1" y="18.8" transform="matrix(6.123234e-17 -1 1 6.123234e-17 8.3696 46.9359)" class="st4" width="3.1" height="1.1"/>
			
				<rect x="27.8" y="18.8" transform="matrix(6.123234e-17 -1 1 6.123234e-17 10.0349 48.6011)" class="st4" width="3.1" height="1.1"/>
			
				<rect x="29.4" y="18.8" transform="matrix(6.123234e-17 -1 1 6.123234e-17 11.7001 50.2663)" class="st4" width="3.1" height="1.1"/>
			
				<rect x="31.1" y="18.8" transform="matrix(6.123234e-17 -1 1 6.123234e-17 13.3653 51.9315)" class="st4" width="3.1" height="1.1"/>
			
				<rect x="32.8" y="18.8" transform="matrix(6.123234e-17 -1 1 6.123234e-17 15.0305 53.5968)" class="st4" width="3.1" height="1.1"/>
			
				<rect x="34.4" y="18.8" transform="matrix(6.123234e-17 -1 1 6.123234e-17 16.6958 55.262)" class="st4" width="3.1" height="1.1"/>
			
				<rect x="36.1" y="18.8" transform="matrix(6.123234e-17 -1 1 6.123234e-17 18.361 56.9272)" class="st4" width="3.1" height="1.1"/>
			
				<rect x="37.8" y="18.8" transform="matrix(6.123234e-17 -1 1 6.123234e-17 20.0262 58.5925)" class="st4" width="3.1" height="1.1"/>
			
				<rect x="39.4" y="18.8" transform="matrix(6.123234e-17 -1 1 6.123234e-17 21.6914 60.2577)" class="st4" width="3.1" height="1.1"/>
			
				<rect x="41.1" y="18.8" transform="matrix(6.123234e-17 -1 1 6.123234e-17 23.3567 61.9229)" class="st4" width="3.1" height="1.1"/>
			
				<rect x="42.8" y="18.8" transform="matrix(6.123234e-17 -1 1 6.123234e-17 25.0219 63.5881)" class="st4" width="3.1" height="1.1"/>
			
				<rect x="44.4" y="18.8" transform="matrix(6.123234e-17 -1 1 6.123234e-17 26.6871 65.2534)" class="st4" width="3.1" height="1.1"/>
			
				<rect x="46.1" y="18.8" transform="matrix(6.123234e-17 -1 1 6.123234e-17 28.3523 66.9186)" class="st4" width="3.1" height="1.1"/>
			
				<rect x="47.8" y="18.8" transform="matrix(6.123234e-17 -1 1 6.123234e-17 30.0176 68.5838)" class="st4" width="3.1" height="1.1"/>
			
				<rect x="49.4" y="18.8" transform="matrix(6.123234e-17 -1 1 6.123234e-17 31.6828 70.249)" class="st4" width="3.1" height="1.1"/>
			
				<rect x="51.1" y="18.8" transform="matrix(6.123234e-17 -1 1 6.123234e-17 33.348 71.9143)" class="st4" width="3.1" height="1.1"/>
			
				<rect x="52.8" y="18.8" transform="matrix(6.123234e-17 -1 1 6.123234e-17 35.0133 73.5795)" class="st4" width="3.1" height="1.1"/>
			
				<rect x="54.4" y="18.8" transform="matrix(6.123234e-17 -1 1 6.123234e-17 36.6785 75.2447)" class="st4" width="3.1" height="1.1"/>
			
				<rect x="56.1" y="18.8" transform="matrix(6.123234e-17 -1 1 6.123234e-17 38.3437 76.9099)" class="st4" width="3.1" height="1.1"/>
			
				<rect x="57.8" y="18.8" transform="matrix(6.123234e-17 -1 1 6.123234e-17 40.0089 78.5752)" class="st4" width="3.1" height="1.1"/>
			
				<rect x="59.4" y="18.8" transform="matrix(6.123234e-17 -1 1 6.123234e-17 41.6742 80.2404)" class="st4" width="3.1" height="1.1"/>
			
				<rect x="61.1" y="18.8" transform="matrix(6.123234e-17 -1 1 6.123234e-17 43.3394 81.9056)" class="st4" width="3.1" height="1.1"/>
			
				<rect x="62.8" y="18.8" transform="matrix(6.123234e-17 -1 1 6.123234e-17 45.0046 83.5708)" class="st4" width="3.1" height="1.1"/>
			
				<rect x="64.4" y="18.8" transform="matrix(6.123234e-17 -1 1 6.123234e-17 46.6698 85.2361)" class="st4" width="3.1" height="1.1"/>
			
				<rect x="66.1" y="18.8" transform="matrix(6.123234e-17 -1 1 6.123234e-17 48.3351 86.9013)" class="st4" width="3.1" height="1.1"/>
			
				<rect x="67.7" y="18.8" transform="matrix(6.123234e-17 -1 1 6.123234e-17 50.0003 88.5665)" class="st4" width="3.1" height="1.1"/>
			
				<rect x="69.4" y="18.8" transform="matrix(6.123234e-17 -1 1 6.123234e-17 51.6655 90.2318)" class="st4" width="3.1" height="1.1"/>
			
				<rect x="71.1" y="18.8" transform="matrix(6.123234e-17 -1 1 6.123234e-17 53.3307 91.897)" class="st4" width="3.1" height="1.1"/>
			
				<rect x="72.7" y="18.8" transform="matrix(6.123234e-17 -1 1 6.123234e-17 54.996 93.5622)" class="st4" width="3.1" height="1.1"/>
			
				<rect x="74.4" y="18.8" transform="matrix(6.123234e-17 -1 1 6.123234e-17 56.6612 95.2274)" class="st4" width="3.1" height="1.1"/>
			
				<rect x="76.1" y="18.8" transform="matrix(6.123234e-17 -1 1 6.123234e-17 58.3264 96.8927)" class="st4" width="3.1" height="1.1"/>
			
				<rect x="77.7" y="18.8" transform="matrix(6.123234e-17 -1 1 6.123234e-17 59.9916 98.5579)" class="st4" width="3.1" height="1.1"/>
			
				<rect x="79.4" y="18.8" transform="matrix(6.123234e-17 -1 1 6.123234e-17 61.6569 100.2231)" class="st4" width="3.1" height="1.1"/>
			
				<rect x="81.1" y="18.8" transform="matrix(6.123234e-17 -1 1 6.123234e-17 63.3221 101.8883)" class="st4" width="3.1" height="1.1"/>
			
				<rect x="82.7" y="18.8" transform="matrix(6.123234e-17 -1 1 6.123234e-17 64.9873 103.5536)" class="st4" width="3.1" height="1.1"/>
			
				<rect x="84.4" y="18.8" transform="matrix(6.123234e-17 -1 1 6.123234e-17 66.6526 105.2188)" class="st4" width="3.1" height="1.1"/>
			
				<rect x="86.1" y="18.8" transform="matrix(6.123234e-17 -1 1 6.123234e-17 68.3178 106.884)" class="st4" width="3.1" height="1.1"/>
			
				<rect x="87.7" y="18.8" transform="matrix(6.123234e-17 -1 1 6.123234e-17 69.983 108.5492)" class="st4" width="3.1" height="1.1"/>
			
				<rect x="89.4" y="18.8" transform="matrix(6.123234e-17 -1 1 6.123234e-17 71.6482 110.2145)" class="st4" width="3.1" height="1.1"/>
			
				<rect x="91.1" y="18.8" transform="matrix(6.123234e-17 -1 1 6.123234e-17 73.3135 111.8797)" class="st4" width="3.1" height="1.1"/>
			
				<rect x="92.7" y="18.8" transform="matrix(6.123234e-17 -1 1 6.123234e-17 74.9787 113.5449)" class="st4" width="3.1" height="1.1"/>
			
				<rect x="94.4" y="18.8" transform="matrix(6.123234e-17 -1 1 6.123234e-17 76.6439 115.2102)" class="st4" width="3.1" height="1.1"/>
			
				<rect x="96.1" y="18.8" transform="matrix(6.123234e-17 -1 1 6.123234e-17 78.3091 116.8754)" class="st4" width="3.1" height="1.1"/>
			
				<rect x="97.7" y="18.8" transform="matrix(6.123234e-17 -1 1 6.123234e-17 79.9744 118.5406)" class="st4" width="3.1" height="1.1"/>
			
				<rect x="99.4" y="18.8" transform="matrix(6.123234e-17 -1 1 6.123234e-17 81.6396 120.2058)" class="st4" width="3.1" height="1.1"/>
			
				<rect x="101.1" y="18.8" transform="matrix(6.123234e-17 -1 1 6.123234e-17 83.3048 121.8711)" class="st4" width="3.1" height="1.1"/>
			
				<rect x="102.7" y="18.8" transform="matrix(6.123234e-17 -1 1 6.123234e-17 84.97 123.5363)" class="st4" width="3.1" height="1.1"/>
			
				<rect x="104.4" y="18.8" transform="matrix(6.123234e-17 -1 1 6.123234e-17 86.6353 125.2015)" class="st4" width="3.1" height="1.1"/>
			
				<rect x="106" y="18.8" transform="matrix(6.123234e-17 -1 1 6.123234e-17 88.3005 126.8667)" class="st4" width="3.1" height="1.1"/>
			
				<rect x="107.7" y="18.8" transform="matrix(6.123234e-17 -1 1 6.123234e-17 89.9657 128.532)" class="st4" width="3.1" height="1.1"/>
			
				<rect x="109.4" y="18.8" transform="matrix(6.123234e-17 -1 1 6.123234e-17 91.631 130.1972)" class="st4" width="3.1" height="1.1"/>
			
				<rect x="111" y="18.8" transform="matrix(6.123234e-17 -1 1 6.123234e-17 93.2962 131.8624)" class="st4" width="3.1" height="1.1"/>
			
				<rect x="112.7" y="18.8" transform="matrix(6.123234e-17 -1 1 6.123234e-17 94.9614 133.5276)" class="st4" width="3.1" height="1.1"/>
			
				<rect x="114.4" y="18.8" transform="matrix(6.123234e-17 -1 1 6.123234e-17 96.6266 135.1929)" class="st4" width="3.1" height="1.1"/>
			
				<rect x="116" y="18.8" transform="matrix(6.123234e-17 -1 1 6.123234e-17 98.2919 136.8581)" class="st4" width="3.1" height="1.1"/>
			
				<rect x="117.7" y="18.8" transform="matrix(6.123234e-17 -1 1 6.123234e-17 99.9571 138.5233)" class="st4" width="3.1" height="1.1"/>
			
				<rect x="119.4" y="18.8" transform="matrix(6.123234e-17 -1 1 6.123234e-17 101.6223 140.1885)" class="st4" width="3.1" height="1.1"/>
			
				<rect x="121" y="18.8" transform="matrix(6.123234e-17 -1 1 6.123234e-17 103.2875 141.8538)" class="st4" width="3.1" height="1.1"/>
			
				<rect x="122.7" y="18.8" transform="matrix(6.123234e-17 -1 1 6.123234e-17 104.9528 143.519)" class="st4" width="3.1" height="1.1"/>
			
				<rect x="124.4" y="18.8" transform="matrix(6.123234e-17 -1 1 6.123234e-17 106.618 145.1842)" class="st4" width="3.1" height="1.1"/>
			
				<rect x="126" y="18.8" transform="matrix(6.123234e-17 -1 1 6.123234e-17 108.2832 146.8494)" class="st4" width="3.1" height="1.1"/>
			
				<rect x="127.7" y="18.8" transform="matrix(6.123234e-17 -1 1 6.123234e-17 109.9484 148.5147)" class="st4" width="3.1" height="1.1"/>
			
				<rect x="129.4" y="18.8" transform="matrix(6.123234e-17 -1 1 6.123234e-17 111.6137 150.1799)" class="st4" width="3.1" height="1.1"/>
			
				<rect x="131" y="18.8" transform="matrix(6.123234e-17 -1 1 6.123234e-17 113.2789 151.8451)" class="st4" width="3.1" height="1.1"/>
			
				<rect x="132.7" y="18.8" transform="matrix(6.123234e-17 -1 1 6.123234e-17 114.9441 153.5104)" class="st4" width="3.1" height="1.1"/>
			
				<rect x="134.4" y="18.8" transform="matrix(6.123234e-17 -1 1 6.123234e-17 116.6093 155.1756)" class="st4" width="3.1" height="1.1"/>
			
				<rect x="136" y="18.8" transform="matrix(6.123234e-17 -1 1 6.123234e-17 118.2746 156.8408)" class="st4" width="3.1" height="1.1"/>
			
				<rect x="137.7" y="18.8" transform="matrix(6.123234e-17 -1 1 6.123234e-17 119.9398 158.506)" class="st4" width="3.1" height="1.1"/>
			
				<rect x="139.4" y="18.8" transform="matrix(6.123234e-17 -1 1 6.123234e-17 121.605 160.1713)" class="st4" width="3.1" height="1.1"/>
			
				<rect x="141" y="18.8" transform="matrix(6.123234e-17 -1 1 6.123234e-17 123.2702 161.8365)" class="st4" width="3.1" height="1.1"/>
			
				<rect x="142.7" y="18.8" transform="matrix(6.123234e-17 -1 1 6.123234e-17 124.9355 163.5017)" class="st4" width="3.1" height="1.1"/>
			
				<rect x="144.3" y="18.8" transform="matrix(6.123234e-17 -1 1 6.123234e-17 126.6007 165.1669)" class="st4" width="3.1" height="1.1"/>
			
				<rect x="146" y="18.8" transform="matrix(6.123234e-17 -1 1 6.123234e-17 128.2659 166.8322)" class="st4" width="3.1" height="1.1"/>
			
				<rect x="147.7" y="18.8" transform="matrix(6.123234e-17 -1 1 6.123234e-17 129.9312 168.4974)" class="st4" width="3.1" height="1.1"/>
			
				<rect x="149.3" y="18.8" transform="matrix(6.123234e-17 -1 1 6.123234e-17 131.5964 170.1626)" class="st4" width="3.1" height="1.1"/>
			
				<rect x="151" y="18.8" transform="matrix(6.123234e-17 -1 1 6.123234e-17 133.2616 171.8279)" class="st4" width="3.1" height="1.1"/>
			
				<rect x="152.7" y="18.8" transform="matrix(6.123234e-17 -1 1 6.123234e-17 134.9268 173.4931)" class="st4" width="3.1" height="1.1"/>
			
				<rect x="154.3" y="18.8" transform="matrix(6.123234e-17 -1 1 6.123234e-17 136.5921 175.1583)" class="st4" width="3.1" height="1.1"/>
			
				<rect x="156" y="18.8" transform="matrix(6.123234e-17 -1 1 6.123234e-17 138.2573 176.8235)" class="st4" width="3.1" height="1.1"/>
			
				<rect x="157.7" y="18.8" transform="matrix(6.123234e-17 -1 1 6.123234e-17 139.9225 178.4888)" class="st4" width="3.1" height="1.1"/>
			
				<rect x="159.3" y="18.8" transform="matrix(6.123234e-17 -1 1 6.123234e-17 141.5877 180.154)" class="st4" width="3.1" height="1.1"/>
			
				<rect x="161" y="18.8" transform="matrix(6.123234e-17 -1 1 6.123234e-17 143.253 181.8192)" class="st4" width="3.1" height="1.1"/>
			
				<rect x="162.7" y="18.8" transform="matrix(6.123234e-17 -1 1 6.123234e-17 144.9182 183.4844)" class="st4" width="3.1" height="1.1"/>
			
				<rect x="164.3" y="18.8" transform="matrix(6.123234e-17 -1 1 6.123234e-17 146.5834 185.1497)" class="st4" width="3.1" height="1.1"/>
			
				<rect x="166" y="18.8" transform="matrix(6.123234e-17 -1 1 6.123234e-17 148.2486 186.8149)" class="st4" width="3.1" height="1.1"/>
			
				<rect x="167.7" y="18.8" transform="matrix(6.123234e-17 -1 1 6.123234e-17 149.9139 188.4801)" class="st4" width="3.1" height="1.1"/>
			
				<rect x="169.3" y="18.8" transform="matrix(6.123234e-17 -1 1 6.123234e-17 151.5791 190.1453)" class="st4" width="3.1" height="1.1"/>
			
				<rect x="171" y="18.8" transform="matrix(6.123234e-17 -1 1 6.123234e-17 153.2443 191.8106)" class="st4" width="3.1" height="1.1"/>
			
				<rect x="172.7" y="18.8" transform="matrix(6.123234e-17 -1 1 6.123234e-17 154.9095 193.4758)" class="st4" width="3.1" height="1.1"/>
			
				<rect x="174.3" y="18.8" transform="matrix(6.123234e-17 -1 1 6.123234e-17 156.5748 195.141)" class="st4" width="3.1" height="1.1"/>
			
				<rect x="176" y="18.8" transform="matrix(6.123234e-17 -1 1 6.123234e-17 158.24 196.8062)" class="st4" width="3.1" height="1.1"/>
			
				<rect x="177.7" y="18.8" transform="matrix(6.123234e-17 -1 1 6.123234e-17 159.9052 198.4715)" class="st4" width="3.1" height="1.1"/>
			
				<rect x="179.3" y="18.8" transform="matrix(6.123234e-17 -1 1 6.123234e-17 161.5704 200.1367)" class="st4" width="3.1" height="1.1"/>
			
				<rect x="181" y="18.8" transform="matrix(6.123234e-17 -1 1 6.123234e-17 163.2357 201.8019)" class="st4" width="3.1" height="1.1"/>
			
				<rect x="182.6" y="18.8" transform="matrix(6.123234e-17 -1 1 6.123234e-17 164.9009 203.4671)" class="st4" width="3.1" height="1.1"/>
			
				<rect x="184.3" y="18.8" transform="matrix(6.123234e-17 -1 1 6.123234e-17 166.5661 205.1324)" class="st4" width="3.1" height="1.1"/>
			
				<rect x="186" y="18.8" transform="matrix(6.123234e-17 -1 1 6.123234e-17 168.2314 206.7976)" class="st4" width="3.1" height="1.1"/>
			
				<rect x="187.6" y="18.8" transform="matrix(6.123234e-17 -1 1 6.123234e-17 169.8966 208.4628)" class="st4" width="3.1" height="1.1"/>
			
				<rect x="189.3" y="18.8" transform="matrix(6.123234e-17 -1 1 6.123234e-17 171.5618 210.1281)" class="st4" width="3.1" height="1.1"/>
			
				<rect x="191" y="18.8" transform="matrix(6.123234e-17 -1 1 6.123234e-17 173.227 211.7933)" class="st4" width="3.1" height="1.1"/>
			
				<rect x="192.6" y="18.8" transform="matrix(6.123234e-17 -1 1 6.123234e-17 174.8923 213.4585)" class="st4" width="3.1" height="1.1"/>
			
				<rect x="194.3" y="18.8" transform="matrix(6.123234e-17 -1 1 6.123234e-17 176.5575 215.1237)" class="st4" width="3.1" height="1.1"/>
			
				<rect x="196" y="18.8" transform="matrix(6.123234e-17 -1 1 6.123234e-17 178.2227 216.789)" class="st4" width="3.1" height="1.1"/>
			
				<rect x="197.6" y="18.8" transform="matrix(6.123234e-17 -1 1 6.123234e-17 179.8879 218.4542)" class="st4" width="3.1" height="1.1"/>
			
				<rect x="199.3" y="18.8" transform="matrix(6.123234e-17 -1 1 6.123234e-17 181.5532 220.1194)" class="st4" width="3.1" height="1.1"/>
			
				<rect x="201" y="18.8" transform="matrix(6.123234e-17 -1 1 6.123234e-17 183.2184 221.7846)" class="st4" width="3.1" height="1.1"/>
			
				<rect x="202.6" y="18.8" transform="matrix(6.123234e-17 -1 1 6.123234e-17 184.8836 223.4499)" class="st4" width="3.1" height="1.1"/>
			
				<rect x="204.3" y="18.8" transform="matrix(6.123234e-17 -1 1 6.123234e-17 186.5489 225.1151)" class="st4" width="3.1" height="1.1"/>
		</g>
	</g>
	<g>
		
			<rect x="101.6" y="-90.4" transform="matrix(6.123234e-17 -1 1 6.123234e-17 90.2333 117.421)" class="st3" width="4.4" height="207.9"/>
		<g>
			
				<rect x="-0.5" y="13.1" transform="matrix(6.123234e-17 -1 1 6.123234e-17 -12.5847 14.6029)" class="st4" width="3.1" height="1.1"/>
			
				<rect x="1.1" y="13.1" transform="matrix(6.123234e-17 -1 1 6.123234e-17 -10.9195 16.2682)" class="st4" width="3.1" height="1.1"/>
			
				<rect x="2.8" y="13.1" transform="matrix(6.123234e-17 -1 1 6.123234e-17 -9.2542 17.9334)" class="st4" width="3.1" height="1.1"/>
			
				<rect x="4.5" y="13.1" transform="matrix(6.123234e-17 -1 1 6.123234e-17 -7.589 19.5986)" class="st4" width="3.1" height="1.1"/>
			
				<rect x="6.1" y="13.1" transform="matrix(6.123234e-17 -1 1 6.123234e-17 -5.9238 21.2638)" class="st4" width="3.1" height="1.1"/>
			
				<rect x="7.8" y="13.1" transform="matrix(6.123234e-17 -1 1 6.123234e-17 -4.2586 22.9291)" class="st4" width="3.1" height="1.1"/>
			
				<rect x="9.5" y="13.1" transform="matrix(6.123234e-17 -1 1 6.123234e-17 -2.5933 24.5943)" class="st4" width="3.1" height="1.1"/>
			
				<rect x="11.1" y="13.1" transform="matrix(6.123234e-17 -1 1 6.123234e-17 -0.9281 26.2595)" class="st4" width="3.1" height="1.1"/>
			
				<rect x="12.8" y="13.1" transform="matrix(6.123234e-17 -1 1 6.123234e-17 0.7371 27.9248)" class="st4" width="3.1" height="1.1"/>
			
				<rect x="14.5" y="13.1" transform="matrix(6.123234e-17 -1 1 6.123234e-17 2.4024 29.59)" class="st4" width="3.1" height="1.1"/>
			
				<rect x="16.1" y="13.1" transform="matrix(6.123234e-17 -1 1 6.123234e-17 4.0676 31.2552)" class="st4" width="3.1" height="1.1"/>
			
				<rect x="17.8" y="13.1" transform="matrix(6.123234e-17 -1 1 6.123234e-17 5.7328 32.9204)" class="st4" width="3.1" height="1.1"/>
			
				<rect x="19.5" y="13.1" transform="matrix(6.123234e-17 -1 1 6.123234e-17 7.398 34.5857)" class="st4" width="3.1" height="1.1"/>
			
				<rect x="21.1" y="13.1" transform="matrix(6.123234e-17 -1 1 6.123234e-17 9.0633 36.2509)" class="st4" width="3.1" height="1.1"/>
			
				<rect x="22.8" y="13.1" transform="matrix(6.123234e-17 -1 1 6.123234e-17 10.7285 37.9161)" class="st4" width="3.1" height="1.1"/>
			
				<rect x="24.5" y="13.1" transform="matrix(6.123234e-17 -1 1 6.123234e-17 12.3937 39.5813)" class="st4" width="3.1" height="1.1"/>
			
				<rect x="26.1" y="13.1" transform="matrix(6.123234e-17 -1 1 6.123234e-17 14.0589 41.2466)" class="st4" width="3.1" height="1.1"/>
			
				<rect x="27.8" y="13.1" transform="matrix(6.123234e-17 -1 1 6.123234e-17 15.7242 42.9118)" class="st4" width="3.1" height="1.1"/>
			
				<rect x="29.4" y="13.1" transform="matrix(6.123234e-17 -1 1 6.123234e-17 17.3894 44.577)" class="st4" width="3.1" height="1.1"/>
			
				<rect x="31.1" y="13.1" transform="matrix(6.123234e-17 -1 1 6.123234e-17 19.0546 46.2422)" class="st4" width="3.1" height="1.1"/>
			
				<rect x="32.8" y="13.1" transform="matrix(6.123234e-17 -1 1 6.123234e-17 20.7198 47.9075)" class="st4" width="3.1" height="1.1"/>
			
				<rect x="34.4" y="13.1" transform="matrix(6.123234e-17 -1 1 6.123234e-17 22.3851 49.5727)" class="st4" width="3.1" height="1.1"/>
			
				<rect x="36.1" y="13.1" transform="matrix(6.123234e-17 -1 1 6.123234e-17 24.0503 51.2379)" class="st4" width="3.1" height="1.1"/>
			
				<rect x="37.8" y="13.1" transform="matrix(6.123234e-17 -1 1 6.123234e-17 25.7155 52.9031)" class="st4" width="3.1" height="1.1"/>
			
				<rect x="39.4" y="13.1" transform="matrix(6.123234e-17 -1 1 6.123234e-17 27.3807 54.5684)" class="st4" width="3.1" height="1.1"/>
			
				<rect x="41.1" y="13.1" transform="matrix(6.123234e-17 -1 1 6.123234e-17 29.046 56.2336)" class="st4" width="3.1" height="1.1"/>
			
				<rect x="42.8" y="13.1" transform="matrix(6.123234e-17 -1 1 6.123234e-17 30.7112 57.8988)" class="st4" width="3.1" height="1.1"/>
			
				<rect x="44.4" y="13.1" transform="matrix(6.123234e-17 -1 1 6.123234e-17 32.3764 59.5641)" class="st4" width="3.1" height="1.1"/>
			
				<rect x="46.1" y="13.1" transform="matrix(6.123234e-17 -1 1 6.123234e-17 34.0417 61.2293)" class="st4" width="3.1" height="1.1"/>
			
				<rect x="47.8" y="13.1" transform="matrix(6.123234e-17 -1 1 6.123234e-17 35.7069 62.8945)" class="st4" width="3.1" height="1.1"/>
			
				<rect x="49.4" y="13.1" transform="matrix(6.123234e-17 -1 1 6.123234e-17 37.3721 64.5597)" class="st4" width="3.1" height="1.1"/>
			
				<rect x="51.1" y="13.1" transform="matrix(6.123234e-17 -1 1 6.123234e-17 39.0373 66.225)" class="st4" width="3.1" height="1.1"/>
			
				<rect x="52.8" y="13.1" transform="matrix(6.123234e-17 -1 1 6.123234e-17 40.7026 67.8902)" class="st4" width="3.1" height="1.1"/>
			
				<rect x="54.4" y="13.1" transform="matrix(6.123234e-17 -1 1 6.123234e-17 42.3678 69.5554)" class="st4" width="3.1" height="1.1"/>
			
				<rect x="56.1" y="13.1" transform="matrix(6.123234e-17 -1 1 6.123234e-17 44.033 71.2206)" class="st4" width="3.1" height="1.1"/>
			
				<rect x="57.8" y="13.1" transform="matrix(6.123234e-17 -1 1 6.123234e-17 45.6982 72.8859)" class="st4" width="3.1" height="1.1"/>
			
				<rect x="59.4" y="13.1" transform="matrix(6.123234e-17 -1 1 6.123234e-17 47.3635 74.5511)" class="st4" width="3.1" height="1.1"/>
			
				<rect x="61.1" y="13.1" transform="matrix(6.123234e-17 -1 1 6.123234e-17 49.0287 76.2163)" class="st4" width="3.1" height="1.1"/>
			
				<rect x="62.8" y="13.1" transform="matrix(6.123234e-17 -1 1 6.123234e-17 50.6939 77.8815)" class="st4" width="3.1" height="1.1"/>
			
				<rect x="64.4" y="13.1" transform="matrix(6.123234e-17 -1 1 6.123234e-17 52.3591 79.5468)" class="st4" width="3.1" height="1.1"/>
			
				<rect x="66.1" y="13.1" transform="matrix(6.123234e-17 -1 1 6.123234e-17 54.0244 81.212)" class="st4" width="3.1" height="1.1"/>
			
				<rect x="67.7" y="13.1" transform="matrix(6.123234e-17 -1 1 6.123234e-17 55.6896 82.8772)" class="st4" width="3.1" height="1.1"/>
			
				<rect x="69.4" y="13.1" transform="matrix(6.123234e-17 -1 1 6.123234e-17 57.3548 84.5424)" class="st4" width="3.1" height="1.1"/>
			
				<rect x="71.1" y="13.1" transform="matrix(6.123234e-17 -1 1 6.123234e-17 59.02 86.2077)" class="st4" width="3.1" height="1.1"/>
			
				<rect x="72.7" y="13.1" transform="matrix(6.123234e-17 -1 1 6.123234e-17 60.6853 87.8729)" class="st4" width="3.1" height="1.1"/>
			
				<rect x="74.4" y="13.1" transform="matrix(6.123234e-17 -1 1 6.123234e-17 62.3505 89.5381)" class="st4" width="3.1" height="1.1"/>
			
				<rect x="76.1" y="13.1" transform="matrix(6.123234e-17 -1 1 6.123234e-17 64.0157 91.2034)" class="st4" width="3.1" height="1.1"/>
			
				<rect x="77.7" y="13.1" transform="matrix(6.123234e-17 -1 1 6.123234e-17 65.681 92.8686)" class="st4" width="3.1" height="1.1"/>
			
				<rect x="79.4" y="13.1" transform="matrix(6.123234e-17 -1 1 6.123234e-17 67.3462 94.5338)" class="st4" width="3.1" height="1.1"/>
			
				<rect x="81.1" y="13.1" transform="matrix(6.123234e-17 -1 1 6.123234e-17 69.0114 96.199)" class="st4" width="3.1" height="1.1"/>
			
				<rect x="82.7" y="13.1" transform="matrix(6.123234e-17 -1 1 6.123234e-17 70.6766 97.8643)" class="st4" width="3.1" height="1.1"/>
			
				<rect x="84.4" y="13.1" transform="matrix(6.123234e-17 -1 1 6.123234e-17 72.3419 99.5295)" class="st4" width="3.1" height="1.1"/>
			
				<rect x="86.1" y="13.1" transform="matrix(6.123234e-17 -1 1 6.123234e-17 74.0071 101.1947)" class="st4" width="3.1" height="1.1"/>
			
				<rect x="87.7" y="13.1" transform="matrix(6.123234e-17 -1 1 6.123234e-17 75.6723 102.8599)" class="st4" width="3.1" height="1.1"/>
			
				<rect x="89.4" y="13.1" transform="matrix(6.123234e-17 -1 1 6.123234e-17 77.3375 104.5252)" class="st4" width="3.1" height="1.1"/>
			
				<rect x="91.1" y="13.1" transform="matrix(6.123234e-17 -1 1 6.123234e-17 79.0028 106.1904)" class="st4" width="3.1" height="1.1"/>
			
				<rect x="92.7" y="13.1" transform="matrix(6.123234e-17 -1 1 6.123234e-17 80.668 107.8556)" class="st4" width="3.1" height="1.1"/>
			
				<rect x="94.4" y="13.1" transform="matrix(6.123234e-17 -1 1 6.123234e-17 82.3332 109.5208)" class="st4" width="3.1" height="1.1"/>
			
				<rect x="96.1" y="13.1" transform="matrix(6.123234e-17 -1 1 6.123234e-17 83.9984 111.1861)" class="st4" width="3.1" height="1.1"/>
			
				<rect x="97.7" y="13.1" transform="matrix(6.123234e-17 -1 1 6.123234e-17 85.6637 112.8513)" class="st4" width="3.1" height="1.1"/>
			
				<rect x="99.4" y="13.1" transform="matrix(6.123234e-17 -1 1 6.123234e-17 87.3289 114.5165)" class="st4" width="3.1" height="1.1"/>
			
				<rect x="101.1" y="13.1" transform="matrix(6.123234e-17 -1 1 6.123234e-17 88.9941 116.1817)" class="st4" width="3.1" height="1.1"/>
			
				<rect x="102.7" y="13.1" transform="matrix(6.123234e-17 -1 1 6.123234e-17 90.6593 117.847)" class="st4" width="3.1" height="1.1"/>
			
				<rect x="104.4" y="13.1" transform="matrix(6.123234e-17 -1 1 6.123234e-17 92.3246 119.5122)" class="st4" width="3.1" height="1.1"/>
			
				<rect x="106" y="13.1" transform="matrix(6.123234e-17 -1 1 6.123234e-17 93.9898 121.1774)" class="st4" width="3.1" height="1.1"/>
			
				<rect x="107.7" y="13.1" transform="matrix(6.123234e-17 -1 1 6.123234e-17 95.655 122.8427)" class="st4" width="3.1" height="1.1"/>
			
				<rect x="109.4" y="13.1" transform="matrix(6.123234e-17 -1 1 6.123234e-17 97.3203 124.5079)" class="st4" width="3.1" height="1.1"/>
			
				<rect x="111" y="13.1" transform="matrix(6.123234e-17 -1 1 6.123234e-17 98.9855 126.1731)" class="st4" width="3.1" height="1.1"/>
			
				<rect x="112.7" y="13.1" transform="matrix(6.123234e-17 -1 1 6.123234e-17 100.6507 127.8383)" class="st4" width="3.1" height="1.1"/>
			
				<rect x="114.4" y="13.1" transform="matrix(6.123234e-17 -1 1 6.123234e-17 102.3159 129.5036)" class="st4" width="3.1" height="1.1"/>
			
				<rect x="116" y="13.1" transform="matrix(6.123234e-17 -1 1 6.123234e-17 103.9812 131.1688)" class="st4" width="3.1" height="1.1"/>
			
				<rect x="117.7" y="13.1" transform="matrix(6.123234e-17 -1 1 6.123234e-17 105.6464 132.834)" class="st4" width="3.1" height="1.1"/>
			
				<rect x="119.4" y="13.1" transform="matrix(6.123234e-17 -1 1 6.123234e-17 107.3116 134.4992)" class="st4" width="3.1" height="1.1"/>
			
				<rect x="121" y="13.1" transform="matrix(6.123234e-17 -1 1 6.123234e-17 108.9768 136.1645)" class="st4" width="3.1" height="1.1"/>
			
				<rect x="122.7" y="13.1" transform="matrix(6.123234e-17 -1 1 6.123234e-17 110.6421 137.8297)" class="st4" width="3.1" height="1.1"/>
			
				<rect x="124.4" y="13.1" transform="matrix(6.123234e-17 -1 1 6.123234e-17 112.3073 139.4949)" class="st4" width="3.1" height="1.1"/>
			
				<rect x="126" y="13.1" transform="matrix(6.123234e-17 -1 1 6.123234e-17 113.9725 141.1601)" class="st4" width="3.1" height="1.1"/>
			
				<rect x="127.7" y="13.1" transform="matrix(6.123234e-17 -1 1 6.123234e-17 115.6377 142.8254)" class="st4" width="3.1" height="1.1"/>
			
				<rect x="129.4" y="13.1" transform="matrix(6.123234e-17 -1 1 6.123234e-17 117.303 144.4906)" class="st4" width="3.1" height="1.1"/>
			
				<rect x="131" y="13.1" transform="matrix(6.123234e-17 -1 1 6.123234e-17 118.9682 146.1558)" class="st4" width="3.1" height="1.1"/>
			
				<rect x="132.7" y="13.1" transform="matrix(6.123234e-17 -1 1 6.123234e-17 120.6334 147.821)" class="st4" width="3.1" height="1.1"/>
			
				<rect x="134.4" y="13.1" transform="matrix(6.123234e-17 -1 1 6.123234e-17 122.2986 149.4863)" class="st4" width="3.1" height="1.1"/>
			
				<rect x="136" y="13.1" transform="matrix(6.123234e-17 -1 1 6.123234e-17 123.9639 151.1515)" class="st4" width="3.1" height="1.1"/>
			
				<rect x="137.7" y="13.1" transform="matrix(6.123234e-17 -1 1 6.123234e-17 125.6291 152.8167)" class="st4" width="3.1" height="1.1"/>
			
				<rect x="139.4" y="13.1" transform="matrix(6.123234e-17 -1 1 6.123234e-17 127.2943 154.4819)" class="st4" width="3.1" height="1.1"/>
			
				<rect x="141" y="13.1" transform="matrix(6.123234e-17 -1 1 6.123234e-17 128.9595 156.1472)" class="st4" width="3.1" height="1.1"/>
			
				<rect x="142.7" y="13.1" transform="matrix(6.123234e-17 -1 1 6.123234e-17 130.6248 157.8124)" class="st4" width="3.1" height="1.1"/>
			
				<rect x="144.3" y="13.1" transform="matrix(6.123234e-17 -1 1 6.123234e-17 132.29 159.4776)" class="st4" width="3.1" height="1.1"/>
			
				<rect x="146" y="13.1" transform="matrix(6.123234e-17 -1 1 6.123234e-17 133.9552 161.1429)" class="st4" width="3.1" height="1.1"/>
			
				<rect x="147.7" y="13.1" transform="matrix(6.123234e-17 -1 1 6.123234e-17 135.6205 162.8081)" class="st4" width="3.1" height="1.1"/>
			
				<rect x="149.3" y="13.1" transform="matrix(6.123234e-17 -1 1 6.123234e-17 137.2857 164.4733)" class="st4" width="3.1" height="1.1"/>
			
				<rect x="151" y="13.1" transform="matrix(6.123234e-17 -1 1 6.123234e-17 138.9509 166.1385)" class="st4" width="3.1" height="1.1"/>
			
				<rect x="152.7" y="13.1" transform="matrix(6.123234e-17 -1 1 6.123234e-17 140.6161 167.8038)" class="st4" width="3.1" height="1.1"/>
			
				<rect x="154.3" y="13.1" transform="matrix(6.123234e-17 -1 1 6.123234e-17 142.2814 169.469)" class="st4" width="3.1" height="1.1"/>
			
				<rect x="156" y="13.1" transform="matrix(6.123234e-17 -1 1 6.123234e-17 143.9466 171.1342)" class="st4" width="3.1" height="1.1"/>
			
				<rect x="157.7" y="13.1" transform="matrix(6.123234e-17 -1 1 6.123234e-17 145.6118 172.7994)" class="st4" width="3.1" height="1.1"/>
			
				<rect x="159.3" y="13.1" transform="matrix(6.123234e-17 -1 1 6.123234e-17 147.277 174.4647)" class="st4" width="3.1" height="1.1"/>
			
				<rect x="161" y="13.1" transform="matrix(6.123234e-17 -1 1 6.123234e-17 148.9423 176.1299)" class="st4" width="3.1" height="1.1"/>
			
				<rect x="162.7" y="13.1" transform="matrix(6.123234e-17 -1 1 6.123234e-17 150.6075 177.7951)" class="st4" width="3.1" height="1.1"/>
			
				<rect x="164.3" y="13.1" transform="matrix(6.123234e-17 -1 1 6.123234e-17 152.2727 179.4604)" class="st4" width="3.1" height="1.1"/>
			
				<rect x="166" y="13.1" transform="matrix(6.123234e-17 -1 1 6.123234e-17 153.9379 181.1256)" class="st4" width="3.1" height="1.1"/>
			
				<rect x="167.7" y="13.1" transform="matrix(6.123234e-17 -1 1 6.123234e-17 155.6032 182.7908)" class="st4" width="3.1" height="1.1"/>
			
				<rect x="169.3" y="13.1" transform="matrix(6.123234e-17 -1 1 6.123234e-17 157.2684 184.456)" class="st4" width="3.1" height="1.1"/>
			
				<rect x="171" y="13.1" transform="matrix(6.123234e-17 -1 1 6.123234e-17 158.9336 186.1213)" class="st4" width="3.1" height="1.1"/>
			
				<rect x="172.7" y="13.1" transform="matrix(6.123234e-17 -1 1 6.123234e-17 160.5989 187.7865)" class="st4" width="3.1" height="1.1"/>
			
				<rect x="174.3" y="13.1" transform="matrix(6.123234e-17 -1 1 6.123234e-17 162.2641 189.4517)" class="st4" width="3.1" height="1.1"/>
			
				<rect x="176" y="13.1" transform="matrix(6.123234e-17 -1 1 6.123234e-17 163.9293 191.1169)" class="st4" width="3.1" height="1.1"/>
			
				<rect x="177.7" y="13.1" transform="matrix(6.123234e-17 -1 1 6.123234e-17 165.5945 192.7822)" class="st4" width="3.1" height="1.1"/>
			
				<rect x="179.3" y="13.1" transform="matrix(6.123234e-17 -1 1 6.123234e-17 167.2598 194.4474)" class="st4" width="3.1" height="1.1"/>
			
				<rect x="181" y="13.1" transform="matrix(6.123234e-17 -1 1 6.123234e-17 168.925 196.1126)" class="st4" width="3.1" height="1.1"/>
			
				<rect x="182.6" y="13.1" transform="matrix(6.123234e-17 -1 1 6.123234e-17 170.5902 197.7778)" class="st4" width="3.1" height="1.1"/>
			
				<rect x="184.3" y="13.1" transform="matrix(6.123234e-17 -1 1 6.123234e-17 172.2554 199.4431)" class="st4" width="3.1" height="1.1"/>
			
				<rect x="186" y="13.1" transform="matrix(6.123234e-17 -1 1 6.123234e-17 173.9207 201.1083)" class="st4" width="3.1" height="1.1"/>
			
				<rect x="187.6" y="13.1" transform="matrix(6.123234e-17 -1 1 6.123234e-17 175.5859 202.7735)" class="st4" width="3.1" height="1.1"/>
			
				<rect x="189.3" y="13.1" transform="matrix(6.123234e-17 -1 1 6.123234e-17 177.2511 204.4388)" class="st4" width="3.1" height="1.1"/>
			
				<rect x="191" y="13.1" transform="matrix(6.123234e-17 -1 1 6.123234e-17 178.9164 206.104)" class="st4" width="3.1" height="1.1"/>
			
				<rect x="192.6" y="13.1" transform="matrix(6.123234e-17 -1 1 6.123234e-17 180.5816 207.7692)" class="st4" width="3.1" height="1.1"/>
			
				<rect x="194.3" y="13.1" transform="matrix(6.123234e-17 -1 1 6.123234e-17 182.2468 209.4344)" class="st4" width="3.1" height="1.1"/>
			
				<rect x="196" y="13.1" transform="matrix(6.123234e-17 -1 1 6.123234e-17 183.912 211.0997)" class="st4" width="3.1" height="1.1"/>
			
				<rect x="197.6" y="13.1" transform="matrix(6.123234e-17 -1 1 6.123234e-17 185.5773 212.7649)" class="st4" width="3.1" height="1.1"/>
			
				<rect x="199.3" y="13.1" transform="matrix(6.123234e-17 -1 1 6.123234e-17 187.2425 214.4301)" class="st4" width="3.1" height="1.1"/>
			
				<rect x="201" y="13.1" transform="matrix(6.123234e-17 -1 1 6.123234e-17 188.9077 216.0953)" class="st4" width="3.1" height="1.1"/>
			
				<rect x="202.6" y="13.1" transform="matrix(6.123234e-17 -1 1 6.123234e-17 190.5729 217.7606)" class="st4" width="3.1" height="1.1"/>
			
				<rect x="204.3" y="13.1" transform="matrix(6.123234e-17 -1 1 6.123234e-17 192.2382 219.4258)" class="st4" width="3.1" height="1.1"/>
		</g>
	</g>
	<g>
		
			<rect x="101.6" y="-96" transform="matrix(6.123234e-17 -1 1 6.123234e-17 95.9226 111.7317)" class="st3" width="4.4" height="207.9"/>
		<g>
			
				<rect x="-0.5" y="7.4" transform="matrix(6.123234e-17 -1 1 6.123234e-17 -6.8954 8.9136)" class="st4" width="3.1" height="1.1"/>
			
				<rect x="1.1" y="7.4" transform="matrix(6.123234e-17 -1 1 6.123234e-17 -5.2302 10.5789)" class="st4" width="3.1" height="1.1"/>
			
				<rect x="2.8" y="7.4" transform="matrix(6.123234e-17 -1 1 6.123234e-17 -3.5649 12.2441)" class="st4" width="3.1" height="1.1"/>
			
				<rect x="4.5" y="7.4" transform="matrix(6.123234e-17 -1 1 6.123234e-17 -1.8997 13.9093)" class="st4" width="3.1" height="1.1"/>
			
				<rect x="6.1" y="7.4" transform="matrix(6.123234e-17 -1 1 6.123234e-17 -0.2345 15.5745)" class="st4" width="3.1" height="1.1"/>
			
				<rect x="7.8" y="7.4" transform="matrix(6.123234e-17 -1 1 6.123234e-17 1.4308 17.2398)" class="st4" width="3.1" height="1.1"/>
			<rect x="9.5" y="7.4" transform="matrix(6.123234e-17 -1 1 6.123234e-17 3.096 18.905)" class="st4" width="3.1" height="1.1"/>
			
				<rect x="11.1" y="7.4" transform="matrix(6.123234e-17 -1 1 6.123234e-17 4.7612 20.5702)" class="st4" width="3.1" height="1.1"/>
			
				<rect x="12.8" y="7.4" transform="matrix(6.123234e-17 -1 1 6.123234e-17 6.4264 22.2355)" class="st4" width="3.1" height="1.1"/>
			
				<rect x="14.5" y="7.4" transform="matrix(6.123234e-17 -1 1 6.123234e-17 8.0917 23.9007)" class="st4" width="3.1" height="1.1"/>
			
				<rect x="16.1" y="7.4" transform="matrix(6.123234e-17 -1 1 6.123234e-17 9.7569 25.5659)" class="st4" width="3.1" height="1.1"/>
			
				<rect x="17.8" y="7.4" transform="matrix(6.123234e-17 -1 1 6.123234e-17 11.4221 27.2311)" class="st4" width="3.1" height="1.1"/>
			
				<rect x="19.5" y="7.4" transform="matrix(6.123234e-17 -1 1 6.123234e-17 13.0873 28.8964)" class="st4" width="3.1" height="1.1"/>
			
				<rect x="21.1" y="7.4" transform="matrix(6.123234e-17 -1 1 6.123234e-17 14.7526 30.5616)" class="st4" width="3.1" height="1.1"/>
			
				<rect x="22.8" y="7.4" transform="matrix(6.123234e-17 -1 1 6.123234e-17 16.4178 32.2268)" class="st4" width="3.1" height="1.1"/>
			
				<rect x="24.5" y="7.4" transform="matrix(6.123234e-17 -1 1 6.123234e-17 18.083 33.892)" class="st4" width="3.1" height="1.1"/>
			
				<rect x="26.1" y="7.4" transform="matrix(6.123234e-17 -1 1 6.123234e-17 19.7482 35.5573)" class="st4" width="3.1" height="1.1"/>
			
				<rect x="27.8" y="7.4" transform="matrix(6.123234e-17 -1 1 6.123234e-17 21.4135 37.2225)" class="st4" width="3.1" height="1.1"/>
			
				<rect x="29.4" y="7.4" transform="matrix(6.123234e-17 -1 1 6.123234e-17 23.0787 38.8877)" class="st4" width="3.1" height="1.1"/>
			
				<rect x="31.1" y="7.4" transform="matrix(6.123234e-17 -1 1 6.123234e-17 24.7439 40.5529)" class="st4" width="3.1" height="1.1"/>
			
				<rect x="32.8" y="7.4" transform="matrix(6.123234e-17 -1 1 6.123234e-17 26.4091 42.2182)" class="st4" width="3.1" height="1.1"/>
			
				<rect x="34.4" y="7.4" transform="matrix(6.123234e-17 -1 1 6.123234e-17 28.0744 43.8834)" class="st4" width="3.1" height="1.1"/>
			
				<rect x="36.1" y="7.4" transform="matrix(6.123234e-17 -1 1 6.123234e-17 29.7396 45.5486)" class="st4" width="3.1" height="1.1"/>
			
				<rect x="37.8" y="7.4" transform="matrix(6.123234e-17 -1 1 6.123234e-17 31.4048 47.2138)" class="st4" width="3.1" height="1.1"/>
			
				<rect x="39.4" y="7.4" transform="matrix(6.123234e-17 -1 1 6.123234e-17 33.07 48.8791)" class="st4" width="3.1" height="1.1"/>
			
				<rect x="41.1" y="7.4" transform="matrix(6.123234e-17 -1 1 6.123234e-17 34.7353 50.5443)" class="st4" width="3.1" height="1.1"/>
			
				<rect x="42.8" y="7.4" transform="matrix(6.123234e-17 -1 1 6.123234e-17 36.4005 52.2095)" class="st4" width="3.1" height="1.1"/>
			
				<rect x="44.4" y="7.4" transform="matrix(6.123234e-17 -1 1 6.123234e-17 38.0657 53.8748)" class="st4" width="3.1" height="1.1"/>
			<rect x="46.1" y="7.4" transform="matrix(6.123234e-17 -1 1 6.123234e-17 39.731 55.54)" class="st4" width="3.1" height="1.1"/>
			
				<rect x="47.8" y="7.4" transform="matrix(6.123234e-17 -1 1 6.123234e-17 41.3962 57.2052)" class="st4" width="3.1" height="1.1"/>
			
				<rect x="49.4" y="7.4" transform="matrix(6.123234e-17 -1 1 6.123234e-17 43.0614 58.8704)" class="st4" width="3.1" height="1.1"/>
			
				<rect x="51.1" y="7.4" transform="matrix(6.123234e-17 -1 1 6.123234e-17 44.7266 60.5357)" class="st4" width="3.1" height="1.1"/>
			
				<rect x="52.8" y="7.4" transform="matrix(6.123234e-17 -1 1 6.123234e-17 46.3919 62.2009)" class="st4" width="3.1" height="1.1"/>
			
				<rect x="54.4" y="7.4" transform="matrix(6.123234e-17 -1 1 6.123234e-17 48.0571 63.8661)" class="st4" width="3.1" height="1.1"/>
			
				<rect x="56.1" y="7.4" transform="matrix(6.123234e-17 -1 1 6.123234e-17 49.7223 65.5313)" class="st4" width="3.1" height="1.1"/>
			
				<rect x="57.8" y="7.4" transform="matrix(6.123234e-17 -1 1 6.123234e-17 51.3875 67.1966)" class="st4" width="3.1" height="1.1"/>
			
				<rect x="59.4" y="7.4" transform="matrix(6.123234e-17 -1 1 6.123234e-17 53.0528 68.8618)" class="st4" width="3.1" height="1.1"/>
			
				<rect x="61.1" y="7.4" transform="matrix(6.123234e-17 -1 1 6.123234e-17 54.718 70.527)" class="st4" width="3.1" height="1.1"/>
			
				<rect x="62.8" y="7.4" transform="matrix(6.123234e-17 -1 1 6.123234e-17 56.3832 72.1922)" class="st4" width="3.1" height="1.1"/>
			
				<rect x="64.4" y="7.4" transform="matrix(6.123234e-17 -1 1 6.123234e-17 58.0484 73.8575)" class="st4" width="3.1" height="1.1"/>
			
				<rect x="66.1" y="7.4" transform="matrix(6.123234e-17 -1 1 6.123234e-17 59.7137 75.5227)" class="st4" width="3.1" height="1.1"/>
			
				<rect x="67.7" y="7.4" transform="matrix(6.123234e-17 -1 1 6.123234e-17 61.3789 77.1879)" class="st4" width="3.1" height="1.1"/>
			
				<rect x="69.4" y="7.4" transform="matrix(6.123234e-17 -1 1 6.123234e-17 63.0441 78.8531)" class="st4" width="3.1" height="1.1"/>
			
				<rect x="71.1" y="7.4" transform="matrix(6.123234e-17 -1 1 6.123234e-17 64.7094 80.5184)" class="st4" width="3.1" height="1.1"/>
			
				<rect x="72.7" y="7.4" transform="matrix(6.123234e-17 -1 1 6.123234e-17 66.3746 82.1836)" class="st4" width="3.1" height="1.1"/>
			
				<rect x="74.4" y="7.4" transform="matrix(6.123234e-17 -1 1 6.123234e-17 68.0398 83.8488)" class="st4" width="3.1" height="1.1"/>
			
				<rect x="76.1" y="7.4" transform="matrix(6.123234e-17 -1 1 6.123234e-17 69.705 85.5141)" class="st4" width="3.1" height="1.1"/>
			
				<rect x="77.7" y="7.4" transform="matrix(6.123234e-17 -1 1 6.123234e-17 71.3703 87.1793)" class="st4" width="3.1" height="1.1"/>
			
				<rect x="79.4" y="7.4" transform="matrix(6.123234e-17 -1 1 6.123234e-17 73.0355 88.8445)" class="st4" width="3.1" height="1.1"/>
			
				<rect x="81.1" y="7.4" transform="matrix(6.123234e-17 -1 1 6.123234e-17 74.7007 90.5097)" class="st4" width="3.1" height="1.1"/>
			
				<rect x="82.7" y="7.4" transform="matrix(6.123234e-17 -1 1 6.123234e-17 76.3659 92.175)" class="st4" width="3.1" height="1.1"/>
			
				<rect x="84.4" y="7.4" transform="matrix(6.123234e-17 -1 1 6.123234e-17 78.0312 93.8402)" class="st4" width="3.1" height="1.1"/>
			
				<rect x="86.1" y="7.4" transform="matrix(6.123234e-17 -1 1 6.123234e-17 79.6964 95.5054)" class="st4" width="3.1" height="1.1"/>
			
				<rect x="87.7" y="7.4" transform="matrix(6.123234e-17 -1 1 6.123234e-17 81.3616 97.1706)" class="st4" width="3.1" height="1.1"/>
			
				<rect x="89.4" y="7.4" transform="matrix(6.123234e-17 -1 1 6.123234e-17 83.0268 98.8359)" class="st4" width="3.1" height="1.1"/>
			
				<rect x="91.1" y="7.4" transform="matrix(6.123234e-17 -1 1 6.123234e-17 84.6921 100.5011)" class="st4" width="3.1" height="1.1"/>
			
				<rect x="92.7" y="7.4" transform="matrix(6.123234e-17 -1 1 6.123234e-17 86.3573 102.1663)" class="st4" width="3.1" height="1.1"/>
			
				<rect x="94.4" y="7.4" transform="matrix(6.123234e-17 -1 1 6.123234e-17 88.0225 103.8315)" class="st4" width="3.1" height="1.1"/>
			
				<rect x="96.1" y="7.4" transform="matrix(6.123234e-17 -1 1 6.123234e-17 89.6877 105.4968)" class="st4" width="3.1" height="1.1"/>
			
				<rect x="97.7" y="7.4" transform="matrix(6.123234e-17 -1 1 6.123234e-17 91.353 107.162)" class="st4" width="3.1" height="1.1"/>
			
				<rect x="99.4" y="7.4" transform="matrix(6.123234e-17 -1 1 6.123234e-17 93.0182 108.8272)" class="st4" width="3.1" height="1.1"/>
			
				<rect x="101.1" y="7.4" transform="matrix(6.123234e-17 -1 1 6.123234e-17 94.6834 110.4924)" class="st4" width="3.1" height="1.1"/>
			
				<rect x="102.7" y="7.4" transform="matrix(6.123234e-17 -1 1 6.123234e-17 96.3486 112.1577)" class="st4" width="3.1" height="1.1"/>
			
				<rect x="104.4" y="7.4" transform="matrix(6.123234e-17 -1 1 6.123234e-17 98.0139 113.8229)" class="st4" width="3.1" height="1.1"/>
			
				<rect x="106" y="7.4" transform="matrix(6.123234e-17 -1 1 6.123234e-17 99.6791 115.4881)" class="st4" width="3.1" height="1.1"/>
			
				<rect x="107.7" y="7.4" transform="matrix(6.123234e-17 -1 1 6.123234e-17 101.3443 117.1534)" class="st4" width="3.1" height="1.1"/>
			
				<rect x="109.4" y="7.4" transform="matrix(6.123234e-17 -1 1 6.123234e-17 103.0096 118.8186)" class="st4" width="3.1" height="1.1"/>
			
				<rect x="111" y="7.4" transform="matrix(6.123234e-17 -1 1 6.123234e-17 104.6748 120.4838)" class="st4" width="3.1" height="1.1"/>
			
				<rect x="112.7" y="7.4" transform="matrix(6.123234e-17 -1 1 6.123234e-17 106.34 122.149)" class="st4" width="3.1" height="1.1"/>
			
				<rect x="114.4" y="7.4" transform="matrix(6.123234e-17 -1 1 6.123234e-17 108.0052 123.8143)" class="st4" width="3.1" height="1.1"/>
			
				<rect x="116" y="7.4" transform="matrix(6.123234e-17 -1 1 6.123234e-17 109.6705 125.4795)" class="st4" width="3.1" height="1.1"/>
			
				<rect x="117.7" y="7.4" transform="matrix(6.123234e-17 -1 1 6.123234e-17 111.3357 127.1447)" class="st4" width="3.1" height="1.1"/>
			
				<rect x="119.4" y="7.4" transform="matrix(6.123234e-17 -1 1 6.123234e-17 113.0009 128.8099)" class="st4" width="3.1" height="1.1"/>
			
				<rect x="121" y="7.4" transform="matrix(6.123234e-17 -1 1 6.123234e-17 114.6661 130.4752)" class="st4" width="3.1" height="1.1"/>
			
				<rect x="122.7" y="7.4" transform="matrix(6.123234e-17 -1 1 6.123234e-17 116.3314 132.1404)" class="st4" width="3.1" height="1.1"/>
			
				<rect x="124.4" y="7.4" transform="matrix(6.123234e-17 -1 1 6.123234e-17 117.9966 133.8056)" class="st4" width="3.1" height="1.1"/>
			
				<rect x="126" y="7.4" transform="matrix(6.123234e-17 -1 1 6.123234e-17 119.6618 135.4708)" class="st4" width="3.1" height="1.1"/>
			
				<rect x="127.7" y="7.4" transform="matrix(6.123234e-17 -1 1 6.123234e-17 121.327 137.1361)" class="st4" width="3.1" height="1.1"/>
			
				<rect x="129.4" y="7.4" transform="matrix(6.123234e-17 -1 1 6.123234e-17 122.9923 138.8013)" class="st4" width="3.1" height="1.1"/>
			
				<rect x="131" y="7.4" transform="matrix(6.123234e-17 -1 1 6.123234e-17 124.6575 140.4665)" class="st4" width="3.1" height="1.1"/>
			
				<rect x="132.7" y="7.4" transform="matrix(6.123234e-17 -1 1 6.123234e-17 126.3227 142.1317)" class="st4" width="3.1" height="1.1"/>
			
				<rect x="134.4" y="7.4" transform="matrix(6.123234e-17 -1 1 6.123234e-17 127.988 143.797)" class="st4" width="3.1" height="1.1"/>
			
				<rect x="136" y="7.4" transform="matrix(6.123234e-17 -1 1 6.123234e-17 129.6532 145.4622)" class="st4" width="3.1" height="1.1"/>
			
				<rect x="137.7" y="7.4" transform="matrix(6.123234e-17 -1 1 6.123234e-17 131.3184 147.1274)" class="st4" width="3.1" height="1.1"/>
			
				<rect x="139.4" y="7.4" transform="matrix(6.123234e-17 -1 1 6.123234e-17 132.9836 148.7926)" class="st4" width="3.1" height="1.1"/>
			
				<rect x="141" y="7.4" transform="matrix(6.123234e-17 -1 1 6.123234e-17 134.6489 150.4579)" class="st4" width="3.1" height="1.1"/>
			
				<rect x="142.7" y="7.4" transform="matrix(6.123234e-17 -1 1 6.123234e-17 136.3141 152.1231)" class="st4" width="3.1" height="1.1"/>
			
				<rect x="144.3" y="7.4" transform="matrix(6.123234e-17 -1 1 6.123234e-17 137.9793 153.7883)" class="st4" width="3.1" height="1.1"/>
			
				<rect x="146" y="7.4" transform="matrix(6.123234e-17 -1 1 6.123234e-17 139.6445 155.4536)" class="st4" width="3.1" height="1.1"/>
			
				<rect x="147.7" y="7.4" transform="matrix(6.123234e-17 -1 1 6.123234e-17 141.3098 157.1188)" class="st4" width="3.1" height="1.1"/>
			
				<rect x="149.3" y="7.4" transform="matrix(6.123234e-17 -1 1 6.123234e-17 142.975 158.784)" class="st4" width="3.1" height="1.1"/>
			
				<rect x="151" y="7.4" transform="matrix(6.123234e-17 -1 1 6.123234e-17 144.6402 160.4492)" class="st4" width="3.1" height="1.1"/>
			
				<rect x="152.7" y="7.4" transform="matrix(6.123234e-17 -1 1 6.123234e-17 146.3054 162.1145)" class="st4" width="3.1" height="1.1"/>
			
				<rect x="154.3" y="7.4" transform="matrix(6.123234e-17 -1 1 6.123234e-17 147.9707 163.7797)" class="st4" width="3.1" height="1.1"/>
			
				<rect x="156" y="7.4" transform="matrix(6.123234e-17 -1 1 6.123234e-17 149.6359 165.4449)" class="st4" width="3.1" height="1.1"/>
			
				<rect x="157.7" y="7.4" transform="matrix(6.123234e-17 -1 1 6.123234e-17 151.3011 167.1101)" class="st4" width="3.1" height="1.1"/>
			
				<rect x="159.3" y="7.4" transform="matrix(6.123234e-17 -1 1 6.123234e-17 152.9664 168.7754)" class="st4" width="3.1" height="1.1"/>
			
				<rect x="161" y="7.4" transform="matrix(6.123234e-17 -1 1 6.123234e-17 154.6316 170.4406)" class="st4" width="3.1" height="1.1"/>
			
				<rect x="162.7" y="7.4" transform="matrix(6.123234e-17 -1 1 6.123234e-17 156.2968 172.1058)" class="st4" width="3.1" height="1.1"/>
			
				<rect x="164.3" y="7.4" transform="matrix(6.123234e-17 -1 1 6.123234e-17 157.962 173.771)" class="st4" width="3.1" height="1.1"/>
			
				<rect x="166" y="7.4" transform="matrix(6.123234e-17 -1 1 6.123234e-17 159.6273 175.4363)" class="st4" width="3.1" height="1.1"/>
			
				<rect x="167.7" y="7.4" transform="matrix(6.123234e-17 -1 1 6.123234e-17 161.2925 177.1015)" class="st4" width="3.1" height="1.1"/>
			
				<rect x="169.3" y="7.4" transform="matrix(6.123234e-17 -1 1 6.123234e-17 162.9577 178.7667)" class="st4" width="3.1" height="1.1"/>
			
				<rect x="171" y="7.4" transform="matrix(6.123234e-17 -1 1 6.123234e-17 164.6229 180.4319)" class="st4" width="3.1" height="1.1"/>
			
				<rect x="172.7" y="7.4" transform="matrix(6.123234e-17 -1 1 6.123234e-17 166.2882 182.0972)" class="st4" width="3.1" height="1.1"/>
			
				<rect x="174.3" y="7.4" transform="matrix(6.123234e-17 -1 1 6.123234e-17 167.9534 183.7624)" class="st4" width="3.1" height="1.1"/>
			
				<rect x="176" y="7.4" transform="matrix(6.123234e-17 -1 1 6.123234e-17 169.6186 185.4276)" class="st4" width="3.1" height="1.1"/>
			
				<rect x="177.7" y="7.4" transform="matrix(6.123234e-17 -1 1 6.123234e-17 171.2838 187.0929)" class="st4" width="3.1" height="1.1"/>
			
				<rect x="179.3" y="7.4" transform="matrix(6.123234e-17 -1 1 6.123234e-17 172.9491 188.7581)" class="st4" width="3.1" height="1.1"/>
			
				<rect x="181" y="7.4" transform="matrix(6.123234e-17 -1 1 6.123234e-17 174.6143 190.4233)" class="st4" width="3.1" height="1.1"/>
			
				<rect x="182.6" y="7.4" transform="matrix(6.123234e-17 -1 1 6.123234e-17 176.2795 192.0885)" class="st4" width="3.1" height="1.1"/>
			
				<rect x="184.3" y="7.4" transform="matrix(6.123234e-17 -1 1 6.123234e-17 177.9447 193.7538)" class="st4" width="3.1" height="1.1"/>
			
				<rect x="186" y="7.4" transform="matrix(6.123234e-17 -1 1 6.123234e-17 179.61 195.419)" class="st4" width="3.1" height="1.1"/>
			
				<rect x="187.6" y="7.4" transform="matrix(6.123234e-17 -1 1 6.123234e-17 181.2752 197.0842)" class="st4" width="3.1" height="1.1"/>
			
				<rect x="189.3" y="7.4" transform="matrix(6.123234e-17 -1 1 6.123234e-17 182.9404 198.7494)" class="st4" width="3.1" height="1.1"/>
			
				<rect x="191" y="7.4" transform="matrix(6.123234e-17 -1 1 6.123234e-17 184.6057 200.4147)" class="st4" width="3.1" height="1.1"/>
			
				<rect x="192.6" y="7.4" transform="matrix(6.123234e-17 -1 1 6.123234e-17 186.2709 202.0799)" class="st4" width="3.1" height="1.1"/>
			
				<rect x="194.3" y="7.4" transform="matrix(6.123234e-17 -1 1 6.123234e-17 187.9361 203.7451)" class="st4" width="3.1" height="1.1"/>
			
				<rect x="196" y="7.4" transform="matrix(6.123234e-17 -1 1 6.123234e-17 189.6013 205.4104)" class="st4" width="3.1" height="1.1"/>
			
				<rect x="197.6" y="7.4" transform="matrix(6.123234e-17 -1 1 6.123234e-17 191.2666 207.0756)" class="st4" width="3.1" height="1.1"/>
			
				<rect x="199.3" y="7.4" transform="matrix(6.123234e-17 -1 1 6.123234e-17 192.9318 208.7408)" class="st4" width="3.1" height="1.1"/>
			
				<rect x="201" y="7.4" transform="matrix(6.123234e-17 -1 1 6.123234e-17 194.597 210.406)" class="st4" width="3.1" height="1.1"/>
			
				<rect x="202.6" y="7.4" transform="matrix(6.123234e-17 -1 1 6.123234e-17 196.2622 212.0713)" class="st4" width="3.1" height="1.1"/>
			
				<rect x="204.3" y="7.4" transform="matrix(6.123234e-17 -1 1 6.123234e-17 197.9275 213.7365)" class="st4" width="3.1" height="1.1"/>
		</g>
	</g>
	<g>
		
			<rect x="101.6" y="-101.7" transform="matrix(6.123234e-17 -1 1 6.123234e-17 101.6119 106.0424)" class="st3" width="4.4" height="207.9"/>
		<g>
			
				<rect x="-0.5" y="1.7" transform="matrix(6.123234e-17 -1 1 6.123234e-17 -1.2061 3.2243)" class="st4" width="3.1" height="1.1"/>
			<rect x="1.1" y="1.7" transform="matrix(6.123234e-17 -1 1 6.123234e-17 0.4591 4.8896)" class="st4" width="3.1" height="1.1"/>
			<rect x="2.8" y="1.7" transform="matrix(6.123234e-17 -1 1 6.123234e-17 2.1244 6.5548)" class="st4" width="3.1" height="1.1"/>
			<rect x="4.5" y="1.7" transform="matrix(6.123234e-17 -1 1 6.123234e-17 3.7896 8.22)" class="st4" width="3.1" height="1.1"/>
			<rect x="6.1" y="1.7" transform="matrix(6.123234e-17 -1 1 6.123234e-17 5.4548 9.8852)" class="st4" width="3.1" height="1.1"/>
			
				<rect x="7.8" y="1.7" transform="matrix(6.123234e-17 -1 1 6.123234e-17 7.1201 11.5505)" class="st4" width="3.1" height="1.1"/>
			
				<rect x="9.5" y="1.7" transform="matrix(6.123234e-17 -1 1 6.123234e-17 8.7853 13.2157)" class="st4" width="3.1" height="1.1"/>
			
				<rect x="11.1" y="1.7" transform="matrix(6.123234e-17 -1 1 6.123234e-17 10.4505 14.8809)" class="st4" width="3.1" height="1.1"/>
			
				<rect x="12.8" y="1.7" transform="matrix(6.123234e-17 -1 1 6.123234e-17 12.1157 16.5461)" class="st4" width="3.1" height="1.1"/>
			
				<rect x="14.5" y="1.7" transform="matrix(6.123234e-17 -1 1 6.123234e-17 13.781 18.2114)" class="st4" width="3.1" height="1.1"/>
			
				<rect x="16.1" y="1.7" transform="matrix(6.123234e-17 -1 1 6.123234e-17 15.4462 19.8766)" class="st4" width="3.1" height="1.1"/>
			
				<rect x="17.8" y="1.7" transform="matrix(6.123234e-17 -1 1 6.123234e-17 17.1114 21.5418)" class="st4" width="3.1" height="1.1"/>
			
				<rect x="19.5" y="1.7" transform="matrix(6.123234e-17 -1 1 6.123234e-17 18.7766 23.2071)" class="st4" width="3.1" height="1.1"/>
			
				<rect x="21.1" y="1.7" transform="matrix(6.123234e-17 -1 1 6.123234e-17 20.4419 24.8723)" class="st4" width="3.1" height="1.1"/>
			
				<rect x="22.8" y="1.7" transform="matrix(6.123234e-17 -1 1 6.123234e-17 22.1071 26.5375)" class="st4" width="3.1" height="1.1"/>
			
				<rect x="24.5" y="1.7" transform="matrix(6.123234e-17 -1 1 6.123234e-17 23.7723 28.2027)" class="st4" width="3.1" height="1.1"/>
			
				<rect x="26.1" y="1.7" transform="matrix(6.123234e-17 -1 1 6.123234e-17 25.4375 29.868)" class="st4" width="3.1" height="1.1"/>
			
				<rect x="27.8" y="1.7" transform="matrix(6.123234e-17 -1 1 6.123234e-17 27.1028 31.5332)" class="st4" width="3.1" height="1.1"/>
			
				<rect x="29.4" y="1.7" transform="matrix(6.123234e-17 -1 1 6.123234e-17 28.768 33.1984)" class="st4" width="3.1" height="1.1"/>
			
				<rect x="31.1" y="1.7" transform="matrix(6.123234e-17 -1 1 6.123234e-17 30.4332 34.8636)" class="st4" width="3.1" height="1.1"/>
			
				<rect x="32.8" y="1.7" transform="matrix(6.123234e-17 -1 1 6.123234e-17 32.0984 36.5289)" class="st4" width="3.1" height="1.1"/>
			
				<rect x="34.4" y="1.7" transform="matrix(6.123234e-17 -1 1 6.123234e-17 33.7637 38.1941)" class="st4" width="3.1" height="1.1"/>
			
				<rect x="36.1" y="1.7" transform="matrix(6.123234e-17 -1 1 6.123234e-17 35.4289 39.8593)" class="st4" width="3.1" height="1.1"/>
			
				<rect x="37.8" y="1.7" transform="matrix(6.123234e-17 -1 1 6.123234e-17 37.0941 41.5245)" class="st4" width="3.1" height="1.1"/>
			
				<rect x="39.4" y="1.7" transform="matrix(6.123234e-17 -1 1 6.123234e-17 38.7594 43.1898)" class="st4" width="3.1" height="1.1"/>
			
				<rect x="41.1" y="1.7" transform="matrix(6.123234e-17 -1 1 6.123234e-17 40.4246 44.855)" class="st4" width="3.1" height="1.1"/>
			
				<rect x="42.8" y="1.7" transform="matrix(6.123234e-17 -1 1 6.123234e-17 42.0898 46.5202)" class="st4" width="3.1" height="1.1"/>
			
				<rect x="44.4" y="1.7" transform="matrix(6.123234e-17 -1 1 6.123234e-17 43.755 48.1854)" class="st4" width="3.1" height="1.1"/>
			
				<rect x="46.1" y="1.7" transform="matrix(6.123234e-17 -1 1 6.123234e-17 45.4203 49.8507)" class="st4" width="3.1" height="1.1"/>
			
				<rect x="47.8" y="1.7" transform="matrix(6.123234e-17 -1 1 6.123234e-17 47.0855 51.5159)" class="st4" width="3.1" height="1.1"/>
			
				<rect x="49.4" y="1.7" transform="matrix(6.123234e-17 -1 1 6.123234e-17 48.7507 53.1811)" class="st4" width="3.1" height="1.1"/>
			
				<rect x="51.1" y="1.7" transform="matrix(6.123234e-17 -1 1 6.123234e-17 50.4159 54.8464)" class="st4" width="3.1" height="1.1"/>
			
				<rect x="52.8" y="1.7" transform="matrix(6.123234e-17 -1 1 6.123234e-17 52.0812 56.5116)" class="st4" width="3.1" height="1.1"/>
			
				<rect x="54.4" y="1.7" transform="matrix(6.123234e-17 -1 1 6.123234e-17 53.7464 58.1768)" class="st4" width="3.1" height="1.1"/>
			
				<rect x="56.1" y="1.7" transform="matrix(6.123234e-17 -1 1 6.123234e-17 55.4116 59.842)" class="st4" width="3.1" height="1.1"/>
			
				<rect x="57.8" y="1.7" transform="matrix(6.123234e-17 -1 1 6.123234e-17 57.0768 61.5073)" class="st4" width="3.1" height="1.1"/>
			
				<rect x="59.4" y="1.7" transform="matrix(6.123234e-17 -1 1 6.123234e-17 58.7421 63.1725)" class="st4" width="3.1" height="1.1"/>
			
				<rect x="61.1" y="1.7" transform="matrix(6.123234e-17 -1 1 6.123234e-17 60.4073 64.8377)" class="st4" width="3.1" height="1.1"/>
			
				<rect x="62.8" y="1.7" transform="matrix(6.123234e-17 -1 1 6.123234e-17 62.0725 66.5029)" class="st4" width="3.1" height="1.1"/>
			
				<rect x="64.4" y="1.7" transform="matrix(6.123234e-17 -1 1 6.123234e-17 63.7377 68.1682)" class="st4" width="3.1" height="1.1"/>
			
				<rect x="66.1" y="1.7" transform="matrix(6.123234e-17 -1 1 6.123234e-17 65.403 69.8334)" class="st4" width="3.1" height="1.1"/>
			
				<rect x="67.7" y="1.7" transform="matrix(6.123234e-17 -1 1 6.123234e-17 67.0682 71.4986)" class="st4" width="3.1" height="1.1"/>
			
				<rect x="69.4" y="1.7" transform="matrix(6.123234e-17 -1 1 6.123234e-17 68.7334 73.1638)" class="st4" width="3.1" height="1.1"/>
			
				<rect x="71.1" y="1.7" transform="matrix(6.123234e-17 -1 1 6.123234e-17 70.3987 74.8291)" class="st4" width="3.1" height="1.1"/>
			
				<rect x="72.7" y="1.7" transform="matrix(6.123234e-17 -1 1 6.123234e-17 72.0639 76.4943)" class="st4" width="3.1" height="1.1"/>
			
				<rect x="74.4" y="1.7" transform="matrix(6.123234e-17 -1 1 6.123234e-17 73.7291 78.1595)" class="st4" width="3.1" height="1.1"/>
			
				<rect x="76.1" y="1.7" transform="matrix(6.123234e-17 -1 1 6.123234e-17 75.3943 79.8247)" class="st4" width="3.1" height="1.1"/>
			
				<rect x="77.7" y="1.7" transform="matrix(6.123234e-17 -1 1 6.123234e-17 77.0596 81.49)" class="st4" width="3.1" height="1.1"/>
			
				<rect x="79.4" y="1.7" transform="matrix(6.123234e-17 -1 1 6.123234e-17 78.7248 83.1552)" class="st4" width="3.1" height="1.1"/>
			
				<rect x="81.1" y="1.7" transform="matrix(6.123234e-17 -1 1 6.123234e-17 80.39 84.8204)" class="st4" width="3.1" height="1.1"/>
			
				<rect x="82.7" y="1.7" transform="matrix(6.123234e-17 -1 1 6.123234e-17 82.0552 86.4857)" class="st4" width="3.1" height="1.1"/>
			
				<rect x="84.4" y="1.7" transform="matrix(6.123234e-17 -1 1 6.123234e-17 83.7205 88.1509)" class="st4" width="3.1" height="1.1"/>
			
				<rect x="86.1" y="1.7" transform="matrix(6.123234e-17 -1 1 6.123234e-17 85.3857 89.8161)" class="st4" width="3.1" height="1.1"/>
			
				<rect x="87.7" y="1.7" transform="matrix(6.123234e-17 -1 1 6.123234e-17 87.0509 91.4813)" class="st4" width="3.1" height="1.1"/>
			
				<rect x="89.4" y="1.7" transform="matrix(6.123234e-17 -1 1 6.123234e-17 88.7161 93.1466)" class="st4" width="3.1" height="1.1"/>
			
				<rect x="91.1" y="1.7" transform="matrix(6.123234e-17 -1 1 6.123234e-17 90.3814 94.8118)" class="st4" width="3.1" height="1.1"/>
			
				<rect x="92.7" y="1.7" transform="matrix(6.123234e-17 -1 1 6.123234e-17 92.0466 96.477)" class="st4" width="3.1" height="1.1"/>
			
				<rect x="94.4" y="1.7" transform="matrix(6.123234e-17 -1 1 6.123234e-17 93.7118 98.1422)" class="st4" width="3.1" height="1.1"/>
			
				<rect x="96.1" y="1.7" transform="matrix(6.123234e-17 -1 1 6.123234e-17 95.3771 99.8075)" class="st4" width="3.1" height="1.1"/>
			
				<rect x="97.7" y="1.7" transform="matrix(6.123234e-17 -1 1 6.123234e-17 97.0423 101.4727)" class="st4" width="3.1" height="1.1"/>
			
				<rect x="99.4" y="1.7" transform="matrix(6.123234e-17 -1 1 6.123234e-17 98.7075 103.1379)" class="st4" width="3.1" height="1.1"/>
			
				<rect x="101.1" y="1.7" transform="matrix(6.123234e-17 -1 1 6.123234e-17 100.3727 104.8031)" class="st4" width="3.1" height="1.1"/>
			
				<rect x="102.7" y="1.7" transform="matrix(6.123234e-17 -1 1 6.123234e-17 102.038 106.4684)" class="st4" width="3.1" height="1.1"/>
			
				<rect x="104.4" y="1.7" transform="matrix(6.123234e-17 -1 1 6.123234e-17 103.7032 108.1336)" class="st4" width="3.1" height="1.1"/>
			
				<rect x="106" y="1.7" transform="matrix(6.123234e-17 -1 1 6.123234e-17 105.3684 109.7988)" class="st4" width="3.1" height="1.1"/>
			
				<rect x="107.7" y="1.7" transform="matrix(6.123234e-17 -1 1 6.123234e-17 107.0336 111.4641)" class="st4" width="3.1" height="1.1"/>
			
				<rect x="109.4" y="1.7" transform="matrix(6.123234e-17 -1 1 6.123234e-17 108.6989 113.1293)" class="st4" width="3.1" height="1.1"/>
			
				<rect x="111" y="1.7" transform="matrix(6.123234e-17 -1 1 6.123234e-17 110.3641 114.7945)" class="st4" width="3.1" height="1.1"/>
			
				<rect x="112.7" y="1.7" transform="matrix(6.123234e-17 -1 1 6.123234e-17 112.0293 116.4597)" class="st4" width="3.1" height="1.1"/>
			
				<rect x="114.4" y="1.7" transform="matrix(6.123234e-17 -1 1 6.123234e-17 113.6945 118.125)" class="st4" width="3.1" height="1.1"/>
			
				<rect x="116" y="1.7" transform="matrix(6.123234e-17 -1 1 6.123234e-17 115.3598 119.7902)" class="st4" width="3.1" height="1.1"/>
			
				<rect x="117.7" y="1.7" transform="matrix(6.123234e-17 -1 1 6.123234e-17 117.025 121.4554)" class="st4" width="3.1" height="1.1"/>
			
				<rect x="119.4" y="1.7" transform="matrix(6.123234e-17 -1 1 6.123234e-17 118.6902 123.1206)" class="st4" width="3.1" height="1.1"/>
			
				<rect x="121" y="1.7" transform="matrix(6.123234e-17 -1 1 6.123234e-17 120.3554 124.7859)" class="st4" width="3.1" height="1.1"/>
			
				<rect x="122.7" y="1.7" transform="matrix(6.123234e-17 -1 1 6.123234e-17 122.0207 126.4511)" class="st4" width="3.1" height="1.1"/>
			
				<rect x="124.4" y="1.7" transform="matrix(6.123234e-17 -1 1 6.123234e-17 123.6859 128.1163)" class="st4" width="3.1" height="1.1"/>
			
				<rect x="126" y="1.7" transform="matrix(6.123234e-17 -1 1 6.123234e-17 125.3511 129.7815)" class="st4" width="3.1" height="1.1"/>
			
				<rect x="127.7" y="1.7" transform="matrix(6.123234e-17 -1 1 6.123234e-17 127.0163 131.4468)" class="st4" width="3.1" height="1.1"/>
			
				<rect x="129.4" y="1.7" transform="matrix(6.123234e-17 -1 1 6.123234e-17 128.6816 133.112)" class="st4" width="3.1" height="1.1"/>
			
				<rect x="131" y="1.7" transform="matrix(6.123234e-17 -1 1 6.123234e-17 130.3468 134.7772)" class="st4" width="3.1" height="1.1"/>
			
				<rect x="132.7" y="1.7" transform="matrix(6.123234e-17 -1 1 6.123234e-17 132.012 136.4424)" class="st4" width="3.1" height="1.1"/>
			
				<rect x="134.4" y="1.7" transform="matrix(6.123234e-17 -1 1 6.123234e-17 133.6773 138.1077)" class="st4" width="3.1" height="1.1"/>
			
				<rect x="136" y="1.7" transform="matrix(6.123234e-17 -1 1 6.123234e-17 135.3425 139.7729)" class="st4" width="3.1" height="1.1"/>
			
				<rect x="137.7" y="1.7" transform="matrix(6.123234e-17 -1 1 6.123234e-17 137.0077 141.4381)" class="st4" width="3.1" height="1.1"/>
			
				<rect x="139.4" y="1.7" transform="matrix(6.123234e-17 -1 1 6.123234e-17 138.6729 143.1033)" class="st4" width="3.1" height="1.1"/>
			
				<rect x="141" y="1.7" transform="matrix(6.123234e-17 -1 1 6.123234e-17 140.3382 144.7686)" class="st4" width="3.1" height="1.1"/>
			
				<rect x="142.7" y="1.7" transform="matrix(6.123234e-17 -1 1 6.123234e-17 142.0034 146.4338)" class="st4" width="3.1" height="1.1"/>
			
				<rect x="144.3" y="1.7" transform="matrix(6.123234e-17 -1 1 6.123234e-17 143.6686 148.099)" class="st4" width="3.1" height="1.1"/>
			
				<rect x="146" y="1.7" transform="matrix(6.123234e-17 -1 1 6.123234e-17 145.3338 149.7643)" class="st4" width="3.1" height="1.1"/>
			
				<rect x="147.7" y="1.7" transform="matrix(6.123234e-17 -1 1 6.123234e-17 146.9991 151.4295)" class="st4" width="3.1" height="1.1"/>
			
				<rect x="149.3" y="1.7" transform="matrix(6.123234e-17 -1 1 6.123234e-17 148.6643 153.0947)" class="st4" width="3.1" height="1.1"/>
			
				<rect x="151" y="1.7" transform="matrix(6.123234e-17 -1 1 6.123234e-17 150.3295 154.7599)" class="st4" width="3.1" height="1.1"/>
			
				<rect x="152.7" y="1.7" transform="matrix(6.123234e-17 -1 1 6.123234e-17 151.9948 156.4252)" class="st4" width="3.1" height="1.1"/>
			
				<rect x="154.3" y="1.7" transform="matrix(6.123234e-17 -1 1 6.123234e-17 153.66 158.0904)" class="st4" width="3.1" height="1.1"/>
			
				<rect x="156" y="1.7" transform="matrix(6.123234e-17 -1 1 6.123234e-17 155.3252 159.7556)" class="st4" width="3.1" height="1.1"/>
			
				<rect x="157.7" y="1.7" transform="matrix(6.123234e-17 -1 1 6.123234e-17 156.9904 161.4208)" class="st4" width="3.1" height="1.1"/>
			
				<rect x="159.3" y="1.7" transform="matrix(6.123234e-17 -1 1 6.123234e-17 158.6557 163.0861)" class="st4" width="3.1" height="1.1"/>
			
				<rect x="161" y="1.7" transform="matrix(6.123234e-17 -1 1 6.123234e-17 160.3209 164.7513)" class="st4" width="3.1" height="1.1"/>
			
				<rect x="162.7" y="1.7" transform="matrix(6.123234e-17 -1 1 6.123234e-17 161.9861 166.4165)" class="st4" width="3.1" height="1.1"/>
			
				<rect x="164.3" y="1.7" transform="matrix(6.123234e-17 -1 1 6.123234e-17 163.6513 168.0817)" class="st4" width="3.1" height="1.1"/>
			
				<rect x="166" y="1.7" transform="matrix(6.123234e-17 -1 1 6.123234e-17 165.3166 169.747)" class="st4" width="3.1" height="1.1"/>
			
				<rect x="167.7" y="1.7" transform="matrix(6.123234e-17 -1 1 6.123234e-17 166.9818 171.4122)" class="st4" width="3.1" height="1.1"/>
			
				<rect x="169.3" y="1.7" transform="matrix(6.123234e-17 -1 1 6.123234e-17 168.647 173.0774)" class="st4" width="3.1" height="1.1"/>
			
				<rect x="171" y="1.7" transform="matrix(6.123234e-17 -1 1 6.123234e-17 170.3122 174.7426)" class="st4" width="3.1" height="1.1"/>
			
				<rect x="172.7" y="1.7" transform="matrix(6.123234e-17 -1 1 6.123234e-17 171.9775 176.4079)" class="st4" width="3.1" height="1.1"/>
			
				<rect x="174.3" y="1.7" transform="matrix(6.123234e-17 -1 1 6.123234e-17 173.6427 178.0731)" class="st4" width="3.1" height="1.1"/>
			
				<rect x="176" y="1.7" transform="matrix(6.123234e-17 -1 1 6.123234e-17 175.3079 179.7383)" class="st4" width="3.1" height="1.1"/>
			
				<rect x="177.7" y="1.7" transform="matrix(6.123234e-17 -1 1 6.123234e-17 176.9731 181.4035)" class="st4" width="3.1" height="1.1"/>
			
				<rect x="179.3" y="1.7" transform="matrix(6.123234e-17 -1 1 6.123234e-17 178.6384 183.0688)" class="st4" width="3.1" height="1.1"/>
			
				<rect x="181" y="1.7" transform="matrix(6.123234e-17 -1 1 6.123234e-17 180.3036 184.734)" class="st4" width="3.1" height="1.1"/>
			
				<rect x="182.6" y="1.7" transform="matrix(6.123234e-17 -1 1 6.123234e-17 181.9688 186.3992)" class="st4" width="3.1" height="1.1"/>
			
				<rect x="184.3" y="1.7" transform="matrix(6.123234e-17 -1 1 6.123234e-17 183.634 188.0645)" class="st4" width="3.1" height="1.1"/>
			
				<rect x="186" y="1.7" transform="matrix(6.123234e-17 -1 1 6.123234e-17 185.2993 189.7297)" class="st4" width="3.1" height="1.1"/>
			
				<rect x="187.6" y="1.7" transform="matrix(6.123234e-17 -1 1 6.123234e-17 186.9645 191.3949)" class="st4" width="3.1" height="1.1"/>
			
				<rect x="189.3" y="1.7" transform="matrix(6.123234e-17 -1 1 6.123234e-17 188.6297 193.0601)" class="st4" width="3.1" height="1.1"/>
			
				<rect x="191" y="1.7" transform="matrix(6.123234e-17 -1 1 6.123234e-17 190.295 194.7254)" class="st4" width="3.1" height="1.1"/>
			
				<rect x="192.6" y="1.7" transform="matrix(6.123234e-17 -1 1 6.123234e-17 191.9602 196.3906)" class="st4" width="3.1" height="1.1"/>
			
				<rect x="194.3" y="1.7" transform="matrix(6.123234e-17 -1 1 6.123234e-17 193.6254 198.0558)" class="st4" width="3.1" height="1.1"/>
			
				<rect x="196" y="1.7" transform="matrix(6.123234e-17 -1 1 6.123234e-17 195.2906 199.721)" class="st4" width="3.1" height="1.1"/>
			
				<rect x="197.6" y="1.7" transform="matrix(6.123234e-17 -1 1 6.123234e-17 196.9559 201.3863)" class="st4" width="3.1" height="1.1"/>
			
				<rect x="199.3" y="1.7" transform="matrix(6.123234e-17 -1 1 6.123234e-17 198.6211 203.0515)" class="st4" width="3.1" height="1.1"/>
			
				<rect x="201" y="1.7" transform="matrix(6.123234e-17 -1 1 6.123234e-17 200.2863 204.7167)" class="st4" width="3.1" height="1.1"/>
			
				<rect x="202.6" y="1.7" transform="matrix(6.123234e-17 -1 1 6.123234e-17 201.9515 206.3819)" class="st4" width="3.1" height="1.1"/>
			
				<rect x="204.3" y="1.7" transform="matrix(6.123234e-17 -1 1 6.123234e-17 203.6168 208.0472)" class="st4" width="3.1" height="1.1"/>
		</g>
	</g>
	<path class="st5" d="M217.5,21.5h-9.7V11.4h9.7c0.2,0,0.4,0.2,0.4,0.4v9.3C217.8,21.3,217.7,21.5,217.5,21.5z"/>
	<path class="st5" d="M217.5,10.1h-9.7V0h9.7c0.2,0,0.4,0.2,0.4,0.4v9.3C217.8,9.9,217.7,10.1,217.5,10.1z"/>
	<g>
		
			<linearGradient id="SVGID_4_" gradientUnits="userSpaceOnUse" x1="1282.0956" y1="4386.978" x2="1282.0956" y2="4388.5972" gradientTransform="matrix(0 1 -1 0 4604.1377 -1265.6582)">
			<stop  offset="0.3594" style="stop-color:#F3F2DD"/>
			<stop  offset="1" style="stop-color:#000000"/>
		</linearGradient>
		<rect x="216.2" y="11.4" class="st6" width="0.4" height="10.1"/>
		
			<linearGradient id="SVGID_5_" gradientUnits="userSpaceOnUse" x1="2677.4319" y1="-2770.6782" x2="2677.4319" y2="-2769.0593" gradientTransform="matrix(0 -1 1 0 2985.9875 2693.8694)">
			<stop  offset="0.3594" style="stop-color:#F3F2DD"/>
			<stop  offset="1" style="stop-color:#000000"/>
		</linearGradient>
		<rect x="215.8" y="11.4" class="st7" width="0.4" height="10.1"/>
	</g>
	<g>
		
			<linearGradient id="SVGID_6_" gradientUnits="userSpaceOnUse" x1="1270.7184" y1="4386.978" x2="1270.7184" y2="4388.5972" gradientTransform="matrix(0 1 -1 0 4604.1377 -1265.6582)">
			<stop  offset="0.3594" style="stop-color:#F3F2DD"/>
			<stop  offset="1" style="stop-color:#000000"/>
		</linearGradient>
		<rect x="216.2" y="0" class="st8" width="0.4" height="10.1"/>
		
			<linearGradient id="SVGID_7_" gradientUnits="userSpaceOnUse" x1="2688.8093" y1="-2770.6782" x2="2688.8093" y2="-2769.0593" gradientTransform="matrix(0 -1 1 0 2985.9875 2693.8694)">
			<stop  offset="0.3594" style="stop-color:#F3F2DD"/>
			<stop  offset="1" style="stop-color:#000000"/>
		</linearGradient>
		<rect x="215.8" y="0" class="st9" width="0.4" height="10.1"/>
	</g>
	<g>
		
			<linearGradient id="SVGID_8_" gradientUnits="userSpaceOnUse" x1="1282.0956" y1="4388.4575" x2="1282.0956" y2="4389.6113" gradientTransform="matrix(0 1 -1 0 4604.1377 -1265.6582)">
			<stop  offset="0.3594" style="stop-color:#F3F2DD"/>
			<stop  offset="1" style="stop-color:#000000"/>
		</linearGradient>
		<rect x="215" y="11.4" class="st10" width="0.3" height="10.1"/>
		
			<linearGradient id="SVGID_9_" gradientUnits="userSpaceOnUse" x1="2677.4319" y1="-2771.6262" x2="2677.4319" y2="-2770.4724" gradientTransform="matrix(0 -1 1 0 2985.9875 2693.8694)">
			<stop  offset="0.3594" style="stop-color:#F3F2DD"/>
			<stop  offset="1" style="stop-color:#000000"/>
		</linearGradient>
		<rect x="214.7" y="11.4" class="st11" width="0.3" height="10.1"/>
	</g>
	<g>
		
			<linearGradient id="SVGID_10_" gradientUnits="userSpaceOnUse" x1="1270.7184" y1="4388.4575" x2="1270.7184" y2="4389.6113" gradientTransform="matrix(0 1 -1 0 4604.1377 -1265.6582)">
			<stop  offset="0.3594" style="stop-color:#F3F2DD"/>
			<stop  offset="1" style="stop-color:#000000"/>
		</linearGradient>
		<rect x="215" y="0" class="st12" width="0.3" height="10.1"/>
		
			<linearGradient id="SVGID_11_" gradientUnits="userSpaceOnUse" x1="2688.8093" y1="-2771.6262" x2="2688.8093" y2="-2770.4724" gradientTransform="matrix(0 -1 1 0 2985.9875 2693.8694)">
			<stop  offset="0.3594" style="stop-color:#F3F2DD"/>
			<stop  offset="1" style="stop-color:#000000"/>
		</linearGradient>
		<rect x="214.7" y="0" class="st13" width="0.3" height="10.1"/>
	</g>
	<g>
		
			<linearGradient id="SVGID_12_" gradientUnits="userSpaceOnUse" x1="1282.0956" y1="4389.1646" x2="1282.0956" y2="4390.3184" gradientTransform="matrix(0 1 -1 0 4604.1377 -1265.6582)">
			<stop  offset="0.3594" style="stop-color:#F3F2DD"/>
			<stop  offset="1" style="stop-color:#000000"/>
		</linearGradient>
		<rect x="214.3" y="11.4" class="st14" width="0.3" height="10.1"/>
		
			<linearGradient id="SVGID_13_" gradientUnits="userSpaceOnUse" x1="2677.4319" y1="-2772.3335" x2="2677.4319" y2="-2771.1794" gradientTransform="matrix(0 -1 1 0 2985.9875 2693.8694)">
			<stop  offset="0.3594" style="stop-color:#F3F2DD"/>
			<stop  offset="1" style="stop-color:#000000"/>
		</linearGradient>
		<rect x="214" y="11.4" class="st15" width="0.3" height="10.1"/>
	</g>
	<g>
		
			<linearGradient id="SVGID_14_" gradientUnits="userSpaceOnUse" x1="1270.7184" y1="4389.1646" x2="1270.7184" y2="4390.3184" gradientTransform="matrix(0 1 -1 0 4604.1377 -1265.6582)">
			<stop  offset="0.3594" style="stop-color:#F3F2DD"/>
			<stop  offset="1" style="stop-color:#000000"/>
		</linearGradient>
		<rect x="214.3" y="0" class="st16" width="0.3" height="10.1"/>
		
			<linearGradient id="SVGID_15_" gradientUnits="userSpaceOnUse" x1="2688.8093" y1="-2772.3335" x2="2688.8093" y2="-2771.1794" gradientTransform="matrix(0 -1 1 0 2985.9875 2693.8694)">
			<stop  offset="0.3594" style="stop-color:#F3F2DD"/>
			<stop  offset="1" style="stop-color:#000000"/>
		</linearGradient>
		<rect x="214" y="0" class="st17" width="0.3" height="10.1"/>
	</g>
	<g>
		
			<linearGradient id="SVGID_16_" gradientUnits="userSpaceOnUse" x1="1282.0956" y1="4389.8716" x2="1282.0956" y2="4391.0259" gradientTransform="matrix(0 1 -1 0 4604.1377 -1265.6582)">
			<stop  offset="0.3594" style="stop-color:#F3F2DD"/>
			<stop  offset="1" style="stop-color:#000000"/>
		</linearGradient>
		<rect x="213.6" y="11.4" class="st18" width="0.3" height="10.1"/>
		
			<linearGradient id="SVGID_17_" gradientUnits="userSpaceOnUse" x1="2677.4319" y1="-2773.0405" x2="2677.4319" y2="-2771.8867" gradientTransform="matrix(0 -1 1 0 2985.9875 2693.8694)">
			<stop  offset="0.3594" style="stop-color:#F3F2DD"/>
			<stop  offset="1" style="stop-color:#000000"/>
		</linearGradient>
		<rect x="213.3" y="11.4" class="st19" width="0.3" height="10.1"/>
	</g>
	<g>
		
			<linearGradient id="SVGID_18_" gradientUnits="userSpaceOnUse" x1="1270.7184" y1="4389.8716" x2="1270.7184" y2="4391.0259" gradientTransform="matrix(0 1 -1 0 4604.1377 -1265.6582)">
			<stop  offset="0.3594" style="stop-color:#F3F2DD"/>
			<stop  offset="1" style="stop-color:#000000"/>
		</linearGradient>
		<rect x="213.6" y="0" class="st20" width="0.3" height="10.1"/>
		
			<linearGradient id="SVGID_19_" gradientUnits="userSpaceOnUse" x1="2688.8093" y1="-2773.0405" x2="2688.8093" y2="-2771.8867" gradientTransform="matrix(0 -1 1 0 2985.9875 2693.8694)">
			<stop  offset="0.3594" style="stop-color:#F3F2DD"/>
			<stop  offset="1" style="stop-color:#000000"/>
		</linearGradient>
		<rect x="213.3" y="0" class="st21" width="0.3" height="10.1"/>
	</g>
	<g>
		
			<linearGradient id="SVGID_20_" gradientUnits="userSpaceOnUse" x1="1282.0956" y1="4390.5791" x2="1282.0956" y2="4391.7329" gradientTransform="matrix(0 1 -1 0 4604.1377 -1265.6582)">
			<stop  offset="0.3594" style="stop-color:#F3F2DD"/>
			<stop  offset="1" style="stop-color:#000000"/>
		</linearGradient>
		<rect x="212.9" y="11.4" class="st22" width="0.3" height="10.1"/>
		
			<linearGradient id="SVGID_21_" gradientUnits="userSpaceOnUse" x1="2677.4319" y1="-2773.7478" x2="2677.4319" y2="-2772.5938" gradientTransform="matrix(0 -1 1 0 2985.9875 2693.8694)">
			<stop  offset="0.3594" style="stop-color:#F3F2DD"/>
			<stop  offset="1" style="stop-color:#000000"/>
		</linearGradient>
		<rect x="212.6" y="11.4" class="st23" width="0.3" height="10.1"/>
	</g>
	<g>
		
			<linearGradient id="SVGID_22_" gradientUnits="userSpaceOnUse" x1="1270.7184" y1="4390.5791" x2="1270.7184" y2="4391.7329" gradientTransform="matrix(0 1 -1 0 4604.1377 -1265.6582)">
			<stop  offset="0.3594" style="stop-color:#F3F2DD"/>
			<stop  offset="1" style="stop-color:#000000"/>
		</linearGradient>
		<rect x="212.9" y="0" class="st24" width="0.3" height="10.1"/>
		
			<linearGradient id="SVGID_23_" gradientUnits="userSpaceOnUse" x1="2688.8093" y1="-2773.7478" x2="2688.8093" y2="-2772.5938" gradientTransform="matrix(0 -1 1 0 2985.9875 2693.8694)">
			<stop  offset="0.3594" style="stop-color:#F3F2DD"/>
			<stop  offset="1" style="stop-color:#000000"/>
		</linearGradient>
		<rect x="212.6" y="0" class="st25" width="0.3" height="10.1"/>
	</g>
	<linearGradient id="SVGID_24_" gradientUnits="userSpaceOnUse" x1="1.1666" y1="2.198" x2="134.9728" y2="2.198">
		<stop  offset="0" style="stop-color:#000000"/>
		<stop  offset="0.1146" style="stop-color:#040404;stop-opacity:0.8822"/>
		<stop  offset="0.2359" style="stop-color:#111010;stop-opacity:0.7576"/>
		<stop  offset="0.3603" style="stop-color:#262524;stop-opacity:0.6299"/>
		<stop  offset="0.4868" style="stop-color:#444240;stop-opacity:0.4999"/>
		<stop  offset="0.615" style="stop-color:#6A6765;stop-opacity:0.3681"/>
		<stop  offset="0.7446" style="stop-color:#999491;stop-opacity:0.2349"/>
		<stop  offset="0.8729" style="stop-color:#CFC9C5;stop-opacity:0.1031"/>
		<stop  offset="0.9733" style="stop-color:#FFF7F2;stop-opacity:0"/>
	</linearGradient>
	<rect class="st26" width="207.8" height="4.4"/>
	<linearGradient id="SVGID_25_" gradientUnits="userSpaceOnUse" x1="1.1666" y1="7.9159" x2="134.9728" y2="7.9159">
		<stop  offset="0" style="stop-color:#000000"/>
		<stop  offset="0.1146" style="stop-color:#040404;stop-opacity:0.8822"/>
		<stop  offset="0.2359" style="stop-color:#111010;stop-opacity:0.7576"/>
		<stop  offset="0.3603" style="stop-color:#262524;stop-opacity:0.6299"/>
		<stop  offset="0.4868" style="stop-color:#444240;stop-opacity:0.4999"/>
		<stop  offset="0.615" style="stop-color:#6A6765;stop-opacity:0.3681"/>
		<stop  offset="0.7446" style="stop-color:#999491;stop-opacity:0.2349"/>
		<stop  offset="0.8729" style="stop-color:#CFC9C5;stop-opacity:0.1031"/>
		<stop  offset="0.9733" style="stop-color:#FFF7F2;stop-opacity:0"/>
	</linearGradient>
	<rect y="5.7" class="st27" width="207.8" height="4.4"/>
	<linearGradient id="SVGID_26_" gradientUnits="userSpaceOnUse" x1="1.1666" y1="13.5686" x2="134.9728" y2="13.5686">
		<stop  offset="0" style="stop-color:#000000"/>
		<stop  offset="0.1146" style="stop-color:#040404;stop-opacity:0.8822"/>
		<stop  offset="0.2359" style="stop-color:#111010;stop-opacity:0.7576"/>
		<stop  offset="0.3603" style="stop-color:#262524;stop-opacity:0.6299"/>
		<stop  offset="0.4868" style="stop-color:#444240;stop-opacity:0.4999"/>
		<stop  offset="0.615" style="stop-color:#6A6765;stop-opacity:0.3681"/>
		<stop  offset="0.7446" style="stop-color:#999491;stop-opacity:0.2349"/>
		<stop  offset="0.8729" style="stop-color:#CFC9C5;stop-opacity:0.1031"/>
		<stop  offset="0.9733" style="stop-color:#FFF7F2;stop-opacity:0"/>
	</linearGradient>
	<rect y="11.4" class="st28" width="207.8" height="4.4"/>
	<linearGradient id="SVGID_27_" gradientUnits="userSpaceOnUse" x1="1.1666" y1="19.2831" x2="134.9728" y2="19.2831">
		<stop  offset="0" style="stop-color:#000000"/>
		<stop  offset="0.1146" style="stop-color:#040404;stop-opacity:0.8822"/>
		<stop  offset="0.2359" style="stop-color:#111010;stop-opacity:0.7576"/>
		<stop  offset="0.3603" style="stop-color:#262524;stop-opacity:0.6299"/>
		<stop  offset="0.4868" style="stop-color:#444240;stop-opacity:0.4999"/>
		<stop  offset="0.615" style="stop-color:#6A6765;stop-opacity:0.3681"/>
		<stop  offset="0.7446" style="stop-color:#999491;stop-opacity:0.2349"/>
		<stop  offset="0.8729" style="stop-color:#CFC9C5;stop-opacity:0.1031"/>
		<stop  offset="0.9733" style="stop-color:#FFF7F2;stop-opacity:0"/>
	</linearGradient>
	<rect y="17.1" class="st29" width="207.8" height="4.4"/>
	<linearGradient id="SVGID_28_" gradientUnits="userSpaceOnUse" x1="103.8893" y1="-1.0599" x2="103.8893" y2="3.1023">
		<stop  offset="0" style="stop-color:#FFFFFF;stop-opacity:0.4"/>
		<stop  offset="0.5584" style="stop-color:#FFFCFB;stop-opacity:0.1767"/>
		<stop  offset="1" style="stop-color:#FFF7F2;stop-opacity:0"/>
	</linearGradient>
	<rect y="0" class="st30" width="207.8" height="4.4"/>
	<linearGradient id="SVGID_29_" gradientUnits="userSpaceOnUse" x1="103.8893" y1="4.6409" x2="103.8893" y2="8.8031">
		<stop  offset="0" style="stop-color:#FFFFFF;stop-opacity:0.4"/>
		<stop  offset="0.5584" style="stop-color:#FFFCFB;stop-opacity:0.1767"/>
		<stop  offset="1" style="stop-color:#FFF7F2;stop-opacity:0"/>
	</linearGradient>
	<rect y="5.7" class="st31" width="207.8" height="4.4"/>
	<linearGradient id="SVGID_30_" gradientUnits="userSpaceOnUse" x1="103.8893" y1="10.3187" x2="103.8893" y2="14.4809">
		<stop  offset="0" style="stop-color:#FFFFFF;stop-opacity:0.4"/>
		<stop  offset="0.5584" style="stop-color:#FFFCFB;stop-opacity:0.1767"/>
		<stop  offset="1" style="stop-color:#FFF7F2;stop-opacity:0"/>
	</linearGradient>
	<rect y="11.4" class="st32" width="207.8" height="4.4"/>
	<linearGradient id="SVGID_31_" gradientUnits="userSpaceOnUse" x1="103.8893" y1="16.0081" x2="103.8893" y2="20.1702">
		<stop  offset="0" style="stop-color:#FFFFFF;stop-opacity:0.4"/>
		<stop  offset="0.5584" style="stop-color:#FFFCFB;stop-opacity:0.1767"/>
		<stop  offset="1" style="stop-color:#FFF7F2;stop-opacity:0"/>
	</linearGradient>
	<rect y="17.1" class="st33" width="207.8" height="4.4"/>
</g>
</svg>
